<?xml version="1.0" encoding="utf-8"?>
<!-- Generator: Adobe Illustrator 22.1.0, SVG Export Plug-In . SVG Version: 6.00 Build 0)  -->
<svg version="1.1" id="Capa_1" xmlns="http://www.w3.org/2000/svg" xmlns:xlink="http://www.w3.org/1999/xlink" x="0px" y="0px"
	 viewBox="0 0 694.6 288.1" style="enable-background:new 0 0 694.6 288.1;" xml:space="preserve">
<style type="text/css">
	.st0{fill:#D8A972;}
</style>
<g>
	<g>
		<path class="st0" d="M427.9,29.7c2.7-3.4,6-7.2,9.3-8.1c3.5-1,5.6,0.6,6.2,2.7c0.8,3.2-3.3,3.2-4.1,6.4c-0.6,2.5,1.2,4.1,3.3,4.3
			l-19.3,50.1c0,0,0,0,0,0c0,0,0,0,0,0c0,0,0,0.1,0,0.1c0,0,0,0,0,0c0,0,0,0.1,0,0.1c0,0,0,0,0,0c0,0,0,0.1,0,0.1c0,0,0,0,0,0
			c0,0,0,0.1,0,0.1c0,0,0,0,0,0c0,0,0,0,0,0.1c0,0,0,0,0,0c0,0,0,0,0,0.1c0,0,0,0,0,0c0,0,0,0,0,0c4,3.5,13,4.7,20.1,4.7
			c7.1,0,16.1-1.2,20.1-4.7c0,0,0,0,0,0c0,0,0,0,0,0c0,0,0,0,0-0.1c0,0,0,0,0,0c0,0,0,0,0-0.1c0,0,0,0,0,0c0,0,0-0.1,0-0.1
			c0,0,0,0,0,0c0,0,0-0.1,0-0.1c0,0,0,0,0,0c0,0,0-0.1,0-0.1c0,0,0,0,0,0c0,0,0-0.1,0-0.1c0,0,0,0,0,0c0,0,0,0,0,0l-19.3-50.3
			c1-0.3,2-0.9,2.8-1.9c2.3-3,1.9-9.4-2-12.9l0,0c-0.5-0.5-1.1-0.9-1.7-1.3c0,0,0,0-0.1,0c0,0,0,0,0,0c0,0,0,0,0,0
			c-2.5-1.3-5.4-1.3-8.4-0.1c-3.4,1.2-6.9,3.9-10.1,7.6c-12.6,15.1-22.6,31.3-31.6,47.6c-6.8,11.3-14.3,21.4-21.7,29.4
			c-0.5,0.6-1.1,1.1-1.6,1.6c-8.5,8.4-17,14-24,15.9c-4.1,1.1-7.6,0.9-10.2-0.7c-2.3-1.4-3.5-3-4-5.1c-0.8-4,1.8-10,7.6-17.9
			c6.7-9,19.1-25.8,22-42.6c1-5.9,1-11.4,0.1-16.3c-0.9-4.7-2.8-8.8-5.4-12.4c-4.9-6.5-12.4-10.8-21.9-12.4
			c-10.7-1.8-23.1-0.3-34.5,3.8c-10.5,3.6-20.1,9-27.2,15.5c-10.3,9.4-15.2,20.6-14.3,32.4c0.5,5.8,2.5,10.9,6,15.1
			c3.3,3.9,7.8,6.9,13.1,8.6c4.9,1.6,10.4,2.2,16.1,1.7l-19.7,51.2c0,0,0,0,0,0c0,0,0,0,0,0c0,0,0,0.1,0,0.1c0,0,0,0,0,0
			c0,0,0,0,0,0.1c0,0,0,0,0,0c0,0,0,0.1,0,0.1c0,0,0,0,0,0c0,0,0,0.1,0,0.1c0,0,0,0,0,0c0,0,0,0,0,0.1c0,0,0,0,0,0c0,0,0,0,0,0.1
			c0,0,0,0,0,0c0,0,0,0,0,0c4,3.5,13,4.7,20.1,4.7c7.1,0,16.1-1.2,20.1-4.7c0,0,0,0,0,0c0,0,0,0,0,0c0,0,0,0,0-0.1c0,0,0,0,0,0
			c0,0,0,0,0-0.1c0,0,0,0,0,0c0,0,0-0.1,0-0.1c0,0,0,0,0,0c0,0,0-0.1,0-0.1c0,0,0,0,0,0c0,0,0,0,0-0.1c0,0,0,0,0,0c0,0,0-0.1,0-0.1
			c0,0,0,0,0,0c0,0,0,0,0,0l-19.7-51.3c0,0,0,0,0,0c2.8-0.3,5.6-0.9,8.4-1.8c9.3-2.9,17.4-8.7,23.9-16.9c0.4-0.4,0.3-1.1-0.1-1.5
			c-0.4-0.4-1.1-0.4-1.5,0.1c-6.2,6.5-14.1,10.7-21.8,13c-7.2,2.2-14.6,2.2-20.8,0c-9.4-3.3-15.2-11.1-15.8-21.3
			c-0.9-13.4,6.4-22.9,12.7-28.6c5.5-5,12.8-9.2,20.8-12.2c1.1-0.4,2.3-0.8,3.4-1.1c10.7-3.2,21.2-4.2,29.7-2.7c0,0,0,0,0,0
			c8.6,1.5,15.6,5.6,19.6,11.7c3.9,5.9,5,13.7,3,22.3c-2.9,12.5-13.7,26.9-21.5,37.4c-1,1.3-1.9,2.5-2.8,3.7
			c-6.7,9-9.3,17.8-7.1,24.3c1.4,4.3,4.9,7.3,10,8.9c1.8,0.5,3.6,0.8,5.6,0.8c7.7,0,16.5-4.2,26-12.3c2.9-2.5,5.8-5.3,8.8-8.5
			c1.4-1.4,2.7-2.9,4-4.4c-18.9,36.8-35.8,68.6-67.8,77.9c-3,0.8-6,1.3-9,1.7c-3.5,0.4-7,0.6-10.4,0.5c-3.5-0.1-7-0.4-10.4-1
			c-3.5-0.6-6.9-1.4-10.2-2.4c-6.7-2-13.2-4.9-19.3-8.5c-3-1.8-6-3.8-8.8-5.9c-2.8-2.1-5.6-4.4-8.2-6.8c-5.2-4.8-9.9-10.1-14.2-15.8
			c-4.2-5.7-7.9-11.8-11.1-18.2c-6.3-12.8-10.3-26.6-11.9-40.8c-1.6-14-0.8-28.3,2.3-42.1c12.1-8.9,14-26.2,15.1-40
			c-10.3,9.8-20.3,24.8-15.6,39.8c-1.7,6.8-2.8,13.8-3.4,20.8c-0.6,7.2-0.5,14.4,0.1,21.6c1.3,14.4,5.1,28.6,11.3,41.7
			c3.1,6.6,6.7,12.9,11,18.8c4.2,5.9,9,11.5,14.3,16.5c2.6,2.5,5.4,4.9,8.3,7.1c2.9,2.2,5.9,4.3,9,6.2c6.2,3.8,12.9,6.9,19.9,9.2
			c3.5,1.1,7.1,2,10.7,2.6c3.6,0.6,7.3,1,11,1.2c6.8,0.2,13.7-0.4,20.3-1.9c9.1-1.6,17.7-4.9,25.5-9.9c8.5-5.4,16.2-12.7,23.6-22.3
			c13.6-17.6,24-40.3,34-62.3C405.4,66.8,415.1,45.5,427.9,29.7z M443.1,84.8h-18.2l18.2-47.4V84.8z M444.3,37.4l18.2,47.4h-18.2
			V37.4z M294.6,93.8l18.2,47.4h-18.2V93.8z M293.4,141.2h-18.2l18.2-47.4V141.2z"/>
		<path class="st0" d="M198.4,73.5c12.4-8.1,16.7-25.4,17.9-39.3C204.7,42.7,197.3,57.3,198.4,73.5z"/>
		<path class="st0" d="M206.1,111.5c10-11.1,8.5-29.3,5.6-44.9C201.2,80.3,200.6,97.2,206.1,111.5z"/>
		<path class="st0" d="M220.1,100.4c-4.9,14.9-5.4,32.2,5.3,44.7C233.4,132.4,226.7,112.3,220.1,100.4z"/>
		<path class="st0" d="M259.8,172.5c3.9-17.5-10.6-35.1-22.3-46.4C235.4,143.8,242.6,164.6,259.8,172.5z"/>
		<path class="st0" d="M194.5,73.5c0.3-15.5-3.4-34.8-7.7-46.7C179.8,41.2,181.3,63.4,194.5,73.5z"/>
		<path class="st0" d="M201.9,113.2c-6-17.9-14.9-34.8-24.5-44.8C175.4,95.6,191.3,108.7,201.9,113.2z"/>
		<path class="st0" d="M182.4,113.6c5.2,18.7,19.1,36.9,38.6,34.4C208,130.9,194.4,121.5,182.4,113.6z"/>
		<path class="st0" d="M256.8,177.7c-16.7-10.6-35.7-15.9-54.7-20.3C217.9,181.5,245.7,185.6,256.8,177.7z"/>
		<path class="st0" d="M424.5,181.8c7-2.2,13.7-5.3,19.9-9.2c3.1-1.9,6.1-4,9-6.2c2.9-2.2,5.7-4.6,8.3-7.1c5.3-5,10-10.6,14.3-16.5
			c4.2-5.9,7.9-12.2,11-18.8c6.2-13.1,10-27.3,11.3-41.7c0.7-7.2,0.7-14.4,0.1-21.6c-0.6-7-1.7-14-3.4-20.8c4.7-15-5.2-30-15.6-39.8
			c1,13.9,2.9,31.1,15.1,40c3,13.8,3.8,28.1,2.3,42.1c-1.6,14.2-5.6,28.1-11.9,40.8c-3.2,6.4-6.8,12.5-11.1,18.2
			c-4.2,5.7-9,11-14.2,15.8c-2.6,2.4-5.3,4.7-8.2,6.8c-2.8,2.1-5.8,4.1-8.8,5.9c-6.1,3.6-12.5,6.5-19.3,8.5c-3.4,1-6.8,1.8-10.2,2.4
			c-3.5,0.6-6.9,0.9-10.4,1c-3.5,0.1-7-0.1-10.4-0.5c-2.7-0.3-5.4-0.8-8.1-1.5c-1.2-0.3-2.4,0.5-2.8,1.7c-0.3,1.3,0.5,2.6,1.8,2.8
			c6.4,1.4,13.1,2,19.6,1.7c3.7-0.1,7.4-0.5,11-1.2C417.5,183.8,421,182.9,424.5,181.8z"/>
		<path class="st0" d="M478.3,34.2c1.1,13.9,5.4,31.2,17.9,39.3C497.3,57.3,490,42.7,478.3,34.2z"/>
		<path class="st0" d="M488.5,111.5c5.5-14.3,4.9-31.2-5.6-44.9C480,82.2,478.5,100.5,488.5,111.5z"/>
		<path class="st0" d="M474.5,100.4c-6.5,11.9-13.2,32-5.3,44.7C479.9,132.6,479.4,115.3,474.5,100.4z"/>
		<path class="st0" d="M434.8,172.5c17.2-7.9,24.4-28.7,22.3-46.4C445.4,137.4,430.9,155.1,434.8,172.5z"/>
		<path class="st0" d="M507.8,26.9c-4.2,11.8-8,31.2-7.7,46.7C513.3,63.4,514.8,41.2,507.8,26.9z"/>
		<path class="st0" d="M517.2,68.4c-9.6,10-18.4,26.9-24.5,44.8C503.3,108.7,519.2,95.6,517.2,68.4z"/>
		<path class="st0" d="M473.6,148c19.5,2.5,33.4-15.7,38.6-34.4C500.2,121.5,486.7,130.9,473.6,148z"/>
		<path class="st0" d="M492.4,157.4c-18.9,4.3-37.9,9.7-54.7,20.3C448.9,185.6,476.7,181.5,492.4,157.4z"/>
	</g>
	<g>
		<path class="st0" d="M0.3,269.6h4.5l5.5-19.4l-2.5-24.1H2.9l0.3-1.2h19.5l-0.3,1.2h-5.1l2.3,23.6l12.1-16.8
			c0.7-0.9,1.2-1.8,1.6-2.8c0.4-1,0.7-1.8,0.7-2.4c0-0.6-0.3-1-0.8-1.3c-0.5-0.2-1.1-0.4-1.8-0.4h-1.8l0.3-1.2h11.9l-0.3,1.2h-1
			c-1.1,0-2.1,0.3-2.8,0.9c-0.7,0.6-1.6,1.7-2.7,3.2l-15.3,21.1l-5.1,18.2h5.2l-0.3,1.2H0L0.3,269.6z"/>
		<path class="st0" d="M40.3,265.7c0,0.7-0.1,1.3-0.4,2c-0.2,0.7-0.6,1.2-1,1.8c-0.5,0.5-1,1-1.6,1.3c-0.6,0.3-1.3,0.5-2,0.5
			c-1.2,0-2.2-0.4-2.9-1.1c-0.7-0.8-1-1.6-1-2.6c0-0.7,0.1-1.3,0.4-2c0.2-0.6,0.6-1.2,1-1.8c0.5-0.5,1-1,1.6-1.3
			c0.6-0.3,1.3-0.5,2-0.5c1.2,0,2.2,0.4,2.9,1.1C40,263.9,40.3,264.7,40.3,265.7z"/>
		<path class="st0" d="M59.4,269.6h1.4c1.1,0,2.1-0.4,3-1.1c0.9-0.8,1.5-1.8,1.9-3L77,226.2h-4.8l0.3-1.2h14.8l2.5,32.9h0.1
			l21.5-32.9h14.3l-0.3,1.2h-4.6l-12.4,43.5h5.2l-0.3,1.2H93.5l0.3-1.2h4.9l11.9-41.4l-0.1-0.1l-27.6,42.7h-1.7L78,227.3h-0.1
			l-10.4,36.4c-0.3,1-0.5,2-0.5,3c0,0.5,0.2,1.1,0.7,1.9c0.5,0.7,1.3,1.1,2.3,1.1h2.2l-0.3,1.2H59.1L59.4,269.6z"/>
		<path class="st0" d="M149.4,253.7c0,2-0.4,4.1-1.2,6.2c-0.8,2.1-2,4.1-3.5,5.8c-1.5,1.7-3.3,3.1-5.5,4.2c-2.1,1.1-4.5,1.6-7.1,1.6
			c-1.3,0-2.6-0.2-3.9-0.7c-1.3-0.5-2.4-1.2-3.4-2.1c-1-1-1.8-2.1-2.4-3.5c-0.6-1.4-0.9-3-0.9-4.7c0-2.9,0.5-5.4,1.6-7.7
			c1.1-2.3,2.4-4.3,4-5.9s3.4-2.9,5.4-3.7c2-0.9,3.9-1.3,5.9-1.3c1.7,0,3.3,0.3,4.7,0.9c1.4,0.6,2.5,1.5,3.4,2.5
			c0.9,1.1,1.6,2.3,2.1,3.8C149.2,250.5,149.4,252,149.4,253.7z M142.8,246.2c0-1.3-0.3-2.2-0.8-2.8c-0.6-0.6-1.5-0.9-2.9-0.9
			c-0.9,0-1.7,0.2-2.3,0.5c-0.6,0.3-1.2,0.8-1.6,1.3c-0.5,0.5-0.8,1.1-1.1,1.8c-0.3,0.7-0.6,1.3-0.8,1.9c-0.6,1.5-1.2,3.2-1.8,4.9
			c-0.6,1.8-1.1,3.5-1.6,5.2c-0.5,1.7-0.8,3.3-1.1,4.8c-0.3,1.5-0.5,2.6-0.5,3.4c0,1.4,0.3,2.5,1,3.2c0.7,0.7,1.6,1.1,2.8,1.1
			c1,0,1.8-0.2,2.5-0.6c0.7-0.4,1.2-0.9,1.7-1.5c0.5-0.6,0.8-1.2,1.1-1.9c0.3-0.7,0.6-1.3,0.8-2c0.3-0.6,0.6-1.4,0.9-2.5
			c0.3-1.1,0.7-2.2,1-3.5c0.3-1.3,0.7-2.6,1-3.9c0.3-1.3,0.6-2.6,0.9-3.8c0.3-1.2,0.5-2.2,0.6-3.1
			C142.7,247.2,142.8,246.6,142.8,246.2z"/>
		<path class="st0" d="M160.6,243.7h-4l0.3-1.2h6.7c1.6,0,2.8-0.1,3.7-0.4c0.9-0.2,1.7-0.6,2.3-1.1l-2.4,7.2h0.1
			c0.4-0.7,1-1.4,1.6-2.1c0.6-0.8,1.3-1.5,2.1-2.1c0.8-0.7,1.6-1.2,2.5-1.6c0.9-0.4,1.8-0.7,2.8-0.7c1.4,0,2.6,0.3,3.6,1
			c1,0.7,1.5,1.9,1.5,3.5c0,1.3-0.4,2.4-1.3,3.4c-0.8,1-2,1.5-3.6,1.5c-1.2,0-2.2-0.4-3-1.1c-0.8-0.7-1.1-1.7-1.1-2.9
			c0-0.4,0.1-0.8,0.2-1.2c0.2-0.4,0.3-0.7,0.5-1c0.2-0.3,0.3-0.5,0.5-0.7c0.2-0.2,0.2-0.2,0.2-0.3c0-0.1-0.1-0.2-0.3-0.2
			c-0.3,0-0.9,0.3-1.6,1c-0.7,0.7-1.5,1.5-2.2,2.3c-0.8,0.9-1.4,1.8-2,2.7c-0.6,0.9-1,1.5-1.1,1.9l-5.5,19.1h-8.3L160.6,243.7z"/>
		<path class="st0" d="M205.1,264.8c-1.4,2.1-3.1,3.8-5.1,5c-2,1.2-4.4,1.8-7,1.8c-1.8,0-3.3-0.3-4.7-0.9c-1.3-0.6-2.4-1.4-3.3-2.3
			c-0.9-1-1.5-2.1-2-3.4c-0.5-1.3-0.7-2.7-0.7-4.1c0-2.2,0.5-4.4,1.6-6.7c1-2.3,2.4-4.3,4.1-6.2c1.7-1.9,3.5-3.4,5.6-4.5
			c2.1-1.1,4.2-1.7,6.2-1.7c1,0,1.9,0.1,2.9,0.4c1,0.3,1.8,0.7,2.6,1.3c0.8,0.6,1.4,1.3,1.9,2.1c0.5,0.8,0.7,1.8,0.7,2.9
			c0,1.7-0.4,3.1-1.1,4.3c-0.8,1.2-1.7,2.2-3,2.9c-1.2,0.7-2.6,1.3-4,1.6c-1.5,0.3-3,0.5-4.4,0.5c-0.3,0-0.9,0-1.7-0.1
			c-0.8-0.1-1.5-0.2-2.1-0.4c-0.4,1.5-0.7,3-1,4.5c-0.3,1.5-0.4,2.9-0.4,4.3c0,1.3,0.4,2.4,1.1,3.2c0.7,0.8,1.7,1.2,3,1.2
			c2,0,3.9-0.6,5.7-1.7c1.8-1.1,3.2-2.6,4.3-4.3L205.1,264.8z M201.7,245.2c0-1-0.2-1.7-0.7-2.1c-0.5-0.4-1-0.6-1.4-0.6
			c-1.5,0-2.8,1.2-4,3.5c-1.1,2.3-2.4,5.8-3.7,10.4c0.3,0.2,0.8,0.4,1.3,0.5c0.5,0.1,1,0.2,1.5,0.2c1.4,0,2.5-0.4,3.3-1.2
			c0.7-0.8,1.3-1.8,1.8-3.1c0.5-1.3,1-2.7,1.4-4C201.5,247.6,201.7,246.4,201.7,245.2z"/>
		<path class="st0" d="M214.7,243.3l0.2-0.8h6.7c1.6,0,2.8-0.1,3.7-0.4c0.9-0.2,1.7-0.6,2.3-1.1l-8.7,28.6c-0.3,0.9-0.7,2-1.3,3.2
			c-0.5,1.2-1.2,2.5-2,3.8c-0.8,1.3-1.7,2.6-2.7,3.9c-1,1.3-2.1,2.4-3.4,3.4c-1.2,1-2.5,1.8-3.9,2.4c-1.4,0.6-2.8,0.9-4.3,0.9
			c-1.3,0-2.5-0.3-3.6-1c-1.1-0.7-1.7-1.8-1.7-3.3c0-1.1,0.4-2.1,1.1-3c0.7-0.8,1.7-1.3,2.8-1.3c1.1,0,2.1,0.3,2.8,0.8
			c0.7,0.5,1.1,1.5,1.1,2.8c0,0.7-0.2,1.4-0.7,2.1c-0.5,0.7-1.1,1.2-1.9,1.3c-0.2,0-0.4,0.1-0.6,0.1c-0.2,0-0.3,0.1-0.3,0.2
			c0,0.1,0.1,0.2,0.2,0.3c0.1,0.1,0.4,0.1,0.8,0.1c1,0,1.8-0.2,2.5-0.7c0.7-0.5,1.3-1.1,1.8-2c0.5-0.9,1-2,1.5-3.3
			c0.5-1.3,0.9-2.9,1.5-4.7l10-32.2h-4L214.7,243.3z M221.8,231.6c0-1.3,0.4-2.3,1.3-3.2c0.9-0.9,1.9-1.3,3.2-1.3
			c1.3,0,2.3,0.4,3.2,1.3c0.9,0.9,1.3,1.9,1.3,3.2s-0.4,2.3-1.3,3.2c-0.9,0.9-1.9,1.3-3.2,1.3c-1.3,0-2.3-0.4-3.2-1.3
			C222.3,233.9,221.8,232.8,221.8,231.6z"/>
		<path class="st0" d="M260.1,253.7c0,2-0.4,4.1-1.2,6.2c-0.8,2.1-2,4.1-3.5,5.8c-1.5,1.7-3.3,3.1-5.5,4.2c-2.1,1.1-4.5,1.6-7.1,1.6
			c-1.3,0-2.6-0.2-3.9-0.7c-1.3-0.5-2.4-1.2-3.4-2.1c-1-1-1.8-2.1-2.4-3.5c-0.6-1.4-0.9-3-0.9-4.7c0-2.9,0.5-5.4,1.6-7.7
			c1.1-2.3,2.4-4.3,4-5.9s3.4-2.9,5.4-3.7c2-0.9,3.9-1.3,5.9-1.3c1.7,0,3.3,0.3,4.7,0.9c1.4,0.6,2.5,1.5,3.4,2.5
			c0.9,1.1,1.6,2.3,2.1,3.8C259.9,250.5,260.1,252,260.1,253.7z M253.5,246.2c0-1.3-0.3-2.2-0.8-2.8c-0.6-0.6-1.5-0.9-2.9-0.9
			c-0.9,0-1.7,0.2-2.3,0.5c-0.6,0.3-1.2,0.8-1.6,1.3c-0.5,0.5-0.8,1.1-1.1,1.8c-0.3,0.7-0.6,1.3-0.8,1.9c-0.6,1.5-1.2,3.2-1.8,4.9
			c-0.6,1.8-1.1,3.5-1.6,5.2c-0.5,1.7-0.8,3.3-1.1,4.8c-0.3,1.5-0.5,2.6-0.5,3.4c0,1.4,0.3,2.5,1,3.2c0.7,0.7,1.6,1.1,2.8,1.1
			c1,0,1.8-0.2,2.5-0.6c0.7-0.4,1.2-0.9,1.7-1.5c0.5-0.6,0.8-1.2,1.1-1.9c0.3-0.7,0.6-1.3,0.8-2c0.3-0.6,0.6-1.4,0.9-2.5
			c0.3-1.1,0.7-2.2,1-3.5c0.3-1.3,0.7-2.6,1-3.9c0.3-1.3,0.6-2.6,0.9-3.8c0.3-1.2,0.5-2.2,0.6-3.1
			C253.4,247.2,253.5,246.6,253.5,246.2z"/>
		<path class="st0" d="M271,243.7h-3.8l0.3-1.2h6.7c1.6,0,2.8-0.1,3.7-0.4c0.9-0.2,1.7-0.6,2.3-1.1l-2.7,8.3l0.1,0.1
			c0.7-0.8,1.4-1.7,2.2-2.6c0.8-0.9,1.7-1.7,2.6-2.5c0.9-0.8,1.9-1.4,3-1.9c1.1-0.5,2.2-0.7,3.5-0.7c2,0,3.4,0.5,4.5,1.5
			c1,1,1.6,2.3,1.6,4c0,1-0.3,2.3-0.8,4c-0.5,1.6-1.1,3.3-1.7,4.9l-2.9,8.3c-0.2,0.7-0.4,1.4-0.7,2c-0.2,0.7-0.3,1.2-0.3,1.5
			c0,0.6,0.1,0.9,0.3,1.1c0.2,0.2,0.5,0.3,0.8,0.3c0.5,0,1.1-0.2,1.6-0.6c0.6-0.4,1.1-0.9,1.6-1.5c0.5-0.6,1-1.1,1.4-1.8
			c0.4-0.6,0.7-1.1,0.9-1.4l0.9,0.5c-0.5,0.8-1,1.6-1.6,2.4c-0.6,0.8-1.3,1.6-2.1,2.3c-0.8,0.7-1.7,1.3-2.6,1.7
			c-1,0.4-2.1,0.7-3.3,0.7c-1.7,0-3.1-0.5-4-1.6c-0.9-1.1-1.4-2.4-1.4-3.8c0-0.6,0.1-1.2,0.3-1.9c0.2-0.7,0.4-1.3,0.6-1.8l5.1-15.2
			c0.2-0.6,0.4-1.1,0.5-1.6c0.1-0.4,0.2-0.9,0.2-1.3c0-0.4-0.2-0.7-0.5-0.8c-0.3-0.1-0.6-0.2-0.9-0.2c-0.8,0-1.7,0.4-2.8,1.2
			c-1.1,0.8-2.1,1.8-3.1,2.9c-1,1.1-1.9,2.3-2.7,3.5c-0.8,1.2-1.3,2.2-1.5,3l-4.9,16.9h-8.3L271,243.7z"/>
		<path class="st0" d="M310.3,269.6h1.4c0.6,0,1.1-0.1,1.6-0.4c0.5-0.3,1-0.6,1.5-0.9c0.5-0.4,0.9-0.8,1.2-1.2
			c0.4-0.4,0.7-0.8,0.9-1.2l28.6-42.9h1.4v46.6h4.6l-0.3,1.2h-19.1l0.3-1.2h5.1v-12.8h-12.9l-5.5,8.5c-0.3,0.4-0.6,0.9-0.9,1.3
			c-0.3,0.5-0.5,0.9-0.5,1.2c0,0.7,0.3,1.2,0.9,1.4c0.6,0.2,1.3,0.4,2,0.4h2.4l-0.3,1.2H310L310.3,269.6z M337.5,237.2h-0.1
			l-12,18.5h12.1V237.2z"/>
		<path class="st0" d="M359.8,242.6h5.5l2.3-7.8c1.7-0.5,3.4-0.9,4.8-1.4c1.5-0.4,3-1.2,4.4-2.2l-3.4,11.4h5.9l-0.3,1.2h-5.9
			l-5.7,20.6c-0.2,0.7-0.4,1.4-0.7,2c-0.2,0.7-0.3,1.2-0.3,1.5c0,0.6,0.1,0.9,0.3,1.1s0.5,0.3,0.8,0.3c0.5,0,1.1-0.2,1.7-0.6
			c0.6-0.4,1.1-0.9,1.7-1.5c0.5-0.6,1-1.2,1.4-1.9c0.4-0.7,0.8-1.2,1-1.7l0.4-0.9l1,0.5l-0.9,1.6c-0.4,0.7-0.9,1.5-1.5,2.3
			c-0.6,0.8-1.3,1.6-2.1,2.2c-0.8,0.7-1.6,1.2-2.5,1.7c-0.9,0.4-1.8,0.7-2.8,0.7c-1.5,0-2.7-0.3-3.5-0.8c-0.8-0.5-1.4-1.1-1.8-1.7
			c-0.4-0.6-0.6-1.2-0.7-1.8c-0.1-0.6-0.1-0.9-0.1-1.1c0-0.5,0.1-1.1,0.2-1.8c0.2-0.7,0.3-1.4,0.6-2l5.2-18.6h-5.5L359.8,242.6z"/>
		<path class="st0" d="M381.1,242.6h5.5l2.3-7.8c1.7-0.5,3.4-0.9,4.8-1.4c1.5-0.4,3-1.2,4.4-2.2l-3.4,11.4h5.9l-0.3,1.2h-5.9
			l-5.7,20.6c-0.2,0.7-0.4,1.4-0.7,2c-0.2,0.7-0.3,1.2-0.3,1.5c0,0.6,0.1,0.9,0.3,1.1c0.2,0.2,0.5,0.3,0.8,0.3
			c0.5,0,1.1-0.2,1.7-0.6c0.6-0.4,1.1-0.9,1.7-1.5c0.5-0.6,1-1.2,1.4-1.9c0.4-0.7,0.8-1.2,1-1.7l0.4-0.9l1,0.5l-0.9,1.6
			c-0.4,0.7-0.9,1.5-1.5,2.3c-0.6,0.8-1.3,1.6-2.1,2.2c-0.8,0.7-1.6,1.2-2.5,1.7c-0.9,0.4-1.8,0.7-2.8,0.7c-1.5,0-2.7-0.3-3.5-0.8
			c-0.8-0.5-1.4-1.1-1.8-1.7c-0.4-0.6-0.6-1.2-0.6-1.8c-0.1-0.6-0.1-0.9-0.1-1.1c0-0.5,0.1-1.1,0.2-1.8c0.2-0.7,0.3-1.4,0.6-2
			l5.2-18.6h-5.5L381.1,242.6z"/>
		<path class="st0" d="M428.9,253.7c0,2-0.4,4.1-1.2,6.2c-0.8,2.1-2,4.1-3.5,5.8c-1.5,1.7-3.3,3.1-5.5,4.2c-2.1,1.1-4.5,1.6-7.1,1.6
			c-1.3,0-2.6-0.2-3.9-0.7c-1.3-0.5-2.4-1.2-3.4-2.1c-1-1-1.8-2.1-2.4-3.5c-0.6-1.4-0.9-3-0.9-4.7c0-2.9,0.5-5.4,1.6-7.7
			s2.4-4.3,4-5.9s3.4-2.9,5.4-3.7c2-0.9,3.9-1.3,5.9-1.3c1.7,0,3.3,0.3,4.7,0.9c1.4,0.6,2.5,1.5,3.4,2.5c0.9,1.1,1.6,2.3,2.1,3.8
			C428.7,250.5,428.9,252,428.9,253.7z M422.3,246.2c0-1.3-0.3-2.2-0.8-2.8c-0.6-0.6-1.5-0.9-2.9-0.9c-0.9,0-1.7,0.2-2.3,0.5
			c-0.6,0.3-1.2,0.8-1.6,1.3c-0.5,0.5-0.8,1.1-1.1,1.8c-0.3,0.7-0.6,1.3-0.8,1.9c-0.6,1.5-1.2,3.2-1.8,4.9c-0.6,1.8-1.1,3.5-1.6,5.2
			c-0.5,1.7-0.8,3.3-1.1,4.8c-0.3,1.5-0.5,2.6-0.5,3.4c0,1.4,0.3,2.5,1,3.2c0.7,0.7,1.6,1.1,2.8,1.1c1,0,1.8-0.2,2.5-0.6
			c0.7-0.4,1.2-0.9,1.7-1.5c0.5-0.6,0.8-1.2,1.1-1.9c0.3-0.7,0.6-1.3,0.8-2c0.3-0.6,0.6-1.4,0.9-2.5c0.3-1.1,0.7-2.2,1-3.5
			c0.3-1.3,0.7-2.6,1-3.9c0.3-1.3,0.6-2.6,0.9-3.8s0.5-2.2,0.6-3.1C422.2,247.2,422.3,246.6,422.3,246.2z"/>
		<path class="st0" d="M440.1,243.7h-4l0.3-1.2h6.7c1.6,0,2.8-0.1,3.7-0.4c0.9-0.2,1.7-0.6,2.3-1.1l-2.4,7.2h0.1
			c0.4-0.7,1-1.4,1.6-2.1c0.6-0.8,1.3-1.5,2.1-2.1c0.8-0.7,1.6-1.2,2.5-1.6c0.9-0.4,1.8-0.7,2.8-0.7c1.4,0,2.6,0.3,3.6,1
			c1,0.7,1.5,1.9,1.5,3.5c0,1.3-0.4,2.4-1.3,3.4c-0.8,1-2,1.5-3.6,1.5c-1.2,0-2.2-0.4-3-1.1c-0.8-0.7-1.1-1.7-1.1-2.9
			c0-0.4,0.1-0.8,0.2-1.2c0.2-0.4,0.3-0.7,0.5-1c0.2-0.3,0.3-0.5,0.5-0.7c0.2-0.2,0.2-0.2,0.2-0.3c0-0.1-0.1-0.2-0.3-0.2
			c-0.3,0-0.9,0.3-1.6,1c-0.7,0.7-1.5,1.5-2.2,2.3c-0.8,0.9-1.4,1.8-2,2.7c-0.6,0.9-1,1.5-1.1,1.9l-5.5,19.1H432L440.1,243.7z"/>
		<path class="st0" d="M468.4,243.7h-3.8l0.3-1.2h6.7c1.6,0,2.8-0.1,3.7-0.4c0.9-0.2,1.7-0.6,2.3-1.1l-2.7,8.3l0.1,0.1
			c0.7-0.8,1.4-1.7,2.2-2.6c0.8-0.9,1.7-1.7,2.6-2.5c0.9-0.8,1.9-1.4,3-1.9c1.1-0.5,2.2-0.7,3.5-0.7c2,0,3.4,0.5,4.5,1.5
			c1,1,1.6,2.3,1.6,4c0,1-0.3,2.3-0.8,4c-0.5,1.6-1.1,3.3-1.7,4.9l-2.9,8.3c-0.2,0.7-0.4,1.4-0.7,2c-0.2,0.7-0.3,1.2-0.3,1.5
			c0,0.6,0.1,0.9,0.3,1.1c0.2,0.2,0.5,0.3,0.8,0.3c0.5,0,1.1-0.2,1.6-0.6c0.6-0.4,1.1-0.9,1.6-1.5c0.5-0.6,1-1.1,1.4-1.8
			c0.4-0.6,0.7-1.1,0.9-1.4l0.9,0.5c-0.5,0.8-1,1.6-1.6,2.4c-0.6,0.8-1.3,1.6-2.1,2.3c-0.8,0.7-1.7,1.3-2.6,1.7
			c-1,0.4-2.1,0.7-3.3,0.7c-1.7,0-3.1-0.5-4-1.6c-0.9-1.1-1.4-2.4-1.4-3.8c0-0.6,0.1-1.2,0.3-1.9c0.2-0.7,0.4-1.3,0.6-1.8l5.1-15.2
			c0.2-0.6,0.4-1.1,0.5-1.6c0.1-0.4,0.2-0.9,0.2-1.3c0-0.4-0.2-0.7-0.5-0.8c-0.3-0.1-0.6-0.2-0.9-0.2c-0.8,0-1.7,0.4-2.8,1.2
			c-1.1,0.8-2.1,1.8-3.1,2.9c-1,1.1-1.9,2.3-2.7,3.5c-0.8,1.2-1.3,2.2-1.5,3l-4.9,16.9h-8.3L468.4,243.7z"/>
		<path class="st0" d="M520.5,264.8c-1.4,2.1-3.1,3.8-5.1,5c-2,1.2-4.4,1.8-7,1.8c-1.8,0-3.3-0.3-4.7-0.9c-1.3-0.6-2.4-1.4-3.3-2.3
			c-0.9-1-1.5-2.1-2-3.4c-0.5-1.3-0.7-2.7-0.7-4.1c0-2.2,0.5-4.4,1.6-6.7c1-2.3,2.4-4.3,4.1-6.2c1.7-1.9,3.5-3.4,5.6-4.5
			c2.1-1.1,4.2-1.7,6.2-1.7c1,0,1.9,0.1,2.9,0.4c1,0.3,1.8,0.7,2.6,1.3c0.8,0.6,1.4,1.3,1.9,2.1c0.5,0.8,0.7,1.8,0.7,2.9
			c0,1.7-0.4,3.1-1.1,4.3c-0.8,1.2-1.7,2.2-3,2.9c-1.2,0.7-2.6,1.3-4,1.6c-1.5,0.3-3,0.5-4.4,0.5c-0.3,0-0.9,0-1.7-0.1
			s-1.5-0.2-2.1-0.4c-0.4,1.5-0.7,3-1,4.5c-0.3,1.5-0.4,2.9-0.4,4.3c0,1.3,0.4,2.4,1.1,3.2c0.7,0.8,1.7,1.2,3,1.2
			c2,0,3.9-0.6,5.7-1.7c1.8-1.1,3.2-2.6,4.3-4.3L520.5,264.8z M517,245.2c0-1-0.2-1.7-0.7-2.1c-0.5-0.4-1-0.6-1.4-0.6
			c-1.5,0-2.8,1.2-4,3.5c-1.1,2.3-2.4,5.8-3.7,10.4c0.3,0.2,0.8,0.4,1.3,0.5c0.5,0.1,1,0.2,1.5,0.2c1.4,0,2.5-0.4,3.3-1.2
			c0.7-0.8,1.3-1.8,1.8-3.1c0.5-1.3,1-2.7,1.4-4C516.8,247.6,517,246.4,517,245.2z"/>
		<path class="st0" d="M533.4,251.6c-0.2-1.4-0.4-2.6-0.7-3.6c-0.3-1-0.8-1.5-1.6-1.5c-0.6,0-1.1,0.2-1.6,0.6
			c-0.5,0.4-0.9,0.8-1.2,1.3c-0.3,0.5-0.7,1.1-0.9,1.6c-0.3,0.6-0.5,1.1-0.7,1.5l-0.9-0.3c0.5-1,1.1-2,1.8-3.2
			c0.6-1.1,1.4-2.1,2.2-3c0.8-0.9,1.8-1.7,2.9-2.3c1.1-0.6,2.2-0.9,3.5-0.9c1.3,0,2.4,0.3,3.2,0.9c0.8,0.6,1.3,1.8,1.5,3.6l1.6,16.5
			h0.1l9.3-15.8c0.4-0.7,0.8-1.3,1.2-1.9c0.4-0.6,0.9-1.2,1.5-1.7c0.6-0.5,1.2-0.9,1.8-1.2c0.7-0.3,1.4-0.5,2.1-0.5
			c1.3,0,2.3,0.4,3,1.1c0.8,0.7,1.1,1.8,1.1,3.1c0,1.2-0.4,2.3-1.1,3.1c-0.8,0.9-1.8,1.3-3,1.3c-1,0-1.8-0.3-2.5-0.9
			c-0.7-0.6-1.1-1.4-1.1-2.4c0-1,0.3-1.8,0.8-2.5c-0.3,0-0.6,0.2-0.9,0.5c-0.3,0.3-0.7,0.7-1,1.1c-0.3,0.4-0.6,0.9-0.9,1.3
			c-0.3,0.4-0.5,0.8-0.6,1l-17.9,30.3c-0.7,1.2-1.5,2.4-2.2,3.5c-0.8,1.1-1.6,2.1-2.5,3c-0.9,0.9-2,1.6-3.2,2.1
			c-1.2,0.5-2.5,0.8-4.1,0.8c-1.3,0-2.5-0.4-3.5-1.2c-1-0.8-1.5-1.9-1.5-3.3c0-1.3,0.4-2.5,1.1-3.5c0.8-1,1.8-1.5,3.2-1.5
			c0.4,0,0.9,0.1,1.3,0.2c0.5,0.1,0.9,0.3,1.2,0.7c0.4,0.3,0.7,0.7,0.9,1.2c0.2,0.5,0.4,1.1,0.4,1.8c0,0.8-0.1,1.4-0.4,1.9
			c-0.3,0.5-0.6,0.8-0.9,1c-0.3,0.2-0.6,0.4-0.9,0.5c-0.3,0.1-0.4,0.2-0.4,0.4c0,0.2,0.1,0.3,0.2,0.5c0.2,0.1,0.3,0.2,0.6,0.2
			c1.6,0,3.1-0.6,4.6-1.8c1.5-1.2,2.7-2.7,3.7-4.5l3.7-6.6L533.4,251.6z"/>
		<path class="st0" d="M554.2,280.9c0.9-0.2,1.8-0.7,2.9-1.3c1-0.7,2-1.4,2.9-2.3c0.9-0.9,1.7-1.8,2.3-2.8c0.6-1,0.9-2,0.9-3
			c0-0.3-0.1-0.5-0.3-0.5c-0.2,0-0.5,0.1-0.7,0.2c-0.3,0.1-0.7,0.2-1.2,0.2c-1,0-1.9-0.4-2.7-1.2c-0.8-0.8-1.1-1.7-1.1-2.7
			c0-1.5,0.5-2.8,1.4-3.8c0.9-1.1,2.1-1.6,3.6-1.6c1.3,0,2.4,0.5,3.1,1.6c0.7,1.1,1.1,2.2,1.1,3.5c0,1.6-0.3,3.1-1,4.7
			c-0.7,1.6-1.6,3-2.7,4.4c-1.1,1.3-2.4,2.5-3.8,3.6c-1.4,1-2.9,1.8-4.3,2.3L554.2,280.9z"/>
		<path class="st0" d="M601,269.6h4.8l-0.3,1.2h-19.1l0.3-1.2h4.7l12.1-43.5h-5.1l0.3-1.2h19.5c1.3,0,2.7,0.1,4.5,0.3
			c1.7,0.2,3.3,0.6,4.9,1.2c1.5,0.7,2.9,1.6,3.9,3c1.1,1.3,1.6,3.2,1.6,5.5c0,2.4-0.5,4.6-1.4,6.5c-0.9,1.9-2.2,3.5-3.9,4.8
			c-1.7,1.3-3.7,2.3-6.1,3c-2.4,0.7-5,1-7.9,1h-7.4L601,269.6z M606.8,249.1h5.7c1.9,0,3.4-0.2,4.4-0.7c1-0.5,2-1.3,2.8-2.4
			c0.5-0.6,1-1.4,1.5-2.5c0.5-1.1,1-2.3,1.4-3.6c0.4-1.3,0.8-2.7,1.1-4.1c0.3-1.4,0.4-2.7,0.4-3.9c0-1.2-0.2-2.1-0.6-2.8
			c-0.4-0.7-0.8-1.3-1.4-1.7c-0.6-0.4-1.3-0.7-2-0.9c-0.8-0.2-1.5-0.2-2.3-0.2h-4.6L606.8,249.1z"/>
		<path class="st0" d="M633.8,265.7c0,0.7-0.1,1.3-0.4,2c-0.2,0.7-0.6,1.2-1,1.8c-0.5,0.5-1,1-1.6,1.3c-0.6,0.3-1.3,0.5-2,0.5
			c-1.2,0-2.2-0.4-2.9-1.1c-0.7-0.8-1-1.6-1-2.6c0-0.7,0.1-1.3,0.4-2c0.2-0.6,0.6-1.2,1-1.8c0.5-0.5,1-1,1.6-1.3
			c0.6-0.3,1.3-0.5,2-0.5c1.2,0,2.2,0.4,2.9,1.1C633.4,263.9,633.8,264.7,633.8,265.7z"/>
		<path class="st0" d="M637.5,269.6h1.4c0.6,0,1.1-0.1,1.6-0.4c0.5-0.3,1-0.6,1.5-0.9c0.5-0.4,0.9-0.8,1.2-1.2
			c0.4-0.4,0.7-0.8,0.9-1.2l28.6-42.9h1.4v46.6h4.6l-0.3,1.2h-19.1l0.3-1.2h5.1v-12.8h-12.9l-5.5,8.5c-0.3,0.4-0.6,0.9-0.9,1.3
			c-0.3,0.5-0.5,0.9-0.5,1.2c0,0.7,0.3,1.2,0.9,1.4c0.6,0.2,1.3,0.4,2,0.4h2.4l-0.3,1.2h-12.9L637.5,269.6z M664.7,237.2h-0.1
			l-12,18.5h12.1V237.2z"/>
		<path class="st0" d="M694.6,265.7c0,0.7-0.1,1.3-0.4,2c-0.2,0.7-0.6,1.2-1,1.8c-0.5,0.5-1,1-1.6,1.3c-0.6,0.3-1.3,0.5-2,0.5
			c-1.2,0-2.2-0.4-2.9-1.1c-0.7-0.8-1-1.6-1-2.6c0-0.7,0.1-1.3,0.4-2c0.2-0.6,0.6-1.2,1-1.8c0.5-0.5,1-1,1.6-1.3
			c0.6-0.3,1.3-0.5,2-0.5c1.2,0,2.2,0.4,2.9,1.1C694.3,263.9,694.6,264.7,694.6,265.7z"/>
	</g>
</g>
</svg>
