<?xml version="1.0" standalone="no"?>
<!DOCTYPE svg PUBLIC "-//W3C//DTD SVG 1.1//EN" "http://www.w3.org/Graphics/SVG/1.1/DTD/svg11.dtd" >
<svg>
<metadata>
Created by FontForge 20120731 at Wed Jul  3 17:39:31 2019
 By www
Copyright  [c]  - Roger White - 1993 - All Rights Reserved - see .txt file for terms for distribution and use.
</metadata>
<defs>
<font id="CardiffItalic" horiz-adv-x="500" >
  <font-face 
    font-family="Cardiff"
    font-weight="500"
    font-style="italic"
    font-stretch="normal"
    units-per-em="1000"
    panose-1="2 2 6 0 0 0 0 0 0 0"
    ascent="800"
    descent="-200"
    x-height="428"
    cap-height="652"
    bbox="-168 -216 1012 886"
    underline-thickness="50"
    underline-position="-50"
    slope="12"
    unicode-range="U+0020-2122"
  />
<missing-glyph horiz-adv-x="502" 
d="M-1 0h500v500h-500v-500zM9 10v480h480v-480h-480z" />
    <glyph glyph-name=".notdef" horiz-adv-x="502" 
d="M-1 0h500v500h-500v-500zM9 10v480h480v-480h-480z" />
    <glyph glyph-name="space" unicode=" " horiz-adv-x="300" 
 />
    <glyph glyph-name="space" unicode="&#xa0;" horiz-adv-x="300" 
 />
    <glyph glyph-name="exclam" unicode="!" horiz-adv-x="332" 
d="M188 553q-14 -86 -29 -161q-25 -127 -44 -208l18 -4l48 130l42 99l33 75l27 69q16 38 16 66q0 19 -11 36q-12 15 -32 15q-51 0 -68 -117zM88 -8q21 0 37 16t16 37q0 23 -16 37q-14 16 -37 16q-21 0 -37 -16t-16 -37t16 -37t37 -16z" />
    <glyph glyph-name="quotedbl" unicode="&#x22;" horiz-adv-x="420" 
d="M162 605l-8 -78l-11 -105h21q45 96 84 193q4 9 4 20q0 17 -10 24t-23 7q-21 0 -37 -16q-17 -17 -20 -45zM342 605q-11 -80 -14 -110q-6 -45 -6 -73h22l46 104l36 89l4 22q0 29 -32 29q-20 0 -36 -16q-17 -17 -20 -45z" />
    <glyph glyph-name="numbersign" unicode="#" 
d="M191 465h-105l-12 -55h98l-55 -142h-105l-10 -55h94l-78 -213h60l80 213h129l-80 -213h63l80 213h103l12 55h-96l55 142h105l10 55h-96l80 213h-60l-80 -213h-131l80 213h-61zM232 410h131l-54 -142h-129z" />
    <glyph glyph-name="dollar" unicode="$" 
d="M129 551q-4 -10 -8 -41q0 -35 17 -64q14 -30 39 -53q18 -18 23 -22q12 -10 24 -18l36 -25l-71 -297q-52 15 -81 47q-15 17 -24 46q-10 29 -10 69l-17 -4l-28 -123q14 -11 35 -22q11 -6 29 -15q30 -13 89 -27l-24 -92h35l22 90q100 0 155 36t73 91q10 23 10 64
q0 46 -19 80q-9 17 -21 34q-9 13 -24 28q-28 28 -50 43l-26 20l56 241q39 -11 62 -44q22 -34 22 -93l16 -2l27 113q-18 15 -40 25q-22 11 -51 18l-30 8l18 70h-36l-15 -64l-25 1q-60 0 -99 -18q-40 -19 -61 -45q-12 -17 -18 -28q-7 -12 -10 -27zM205 568q9 31 29 48
q19 16 41 21q19 4 33 4h28l-55 -221q-39 26 -61 56q-21 29 -21 57zM289 307q90 -66 90 -147q0 -42 -20 -71q-20 -31 -57 -47q-36 -15 -81 -15z" />
    <glyph glyph-name="percent" unicode="%" horiz-adv-x="832" 
d="M158 600q-37 -37 -59 -85q-23 -51 -23 -95q7 -56 35 -90q18 -21 35 -29q19 -10 45 -10q56 0 106 38q48 36 77 96q28 58 28 116q0 25 -6 53q15 -7 27 -9q12 -3 32 -3q31 0 60 8q27 8 51 21l2 -2l-349 -623h49l384 690h-41q-31 -34 -69 -51q-39 -18 -87 -18q-26 0 -47 7
q-21 6 -25 11q-37 37 -88 37q-37 0 -71 -16q-37 -17 -66 -46zM188 520q18 42 51 77q32 36 56 36q9 0 16 -4l27 -18q13 -7 29 -11q8 -27 8 -63q0 -50 -21 -98q-20 -47 -59 -80q-37 -31 -88 -39q-57 0 -57 63q0 10 2 26q1 12 6 27l17 51zM512 268q-23 -33 -33 -67
q-12 -34 -12 -70q0 -34 13 -61q13 -31 34 -47q23 -18 49 -21l23 -2q55 0 105 41t75 100q25 57 25 117q0 33 -13 58q-14 26 -38 39q-26 14 -56 14q-49 0 -96 -30q-48 -31 -76 -71zM576 229q10 25 28 50q21 28 43 44q23 17 46 17q31 0 51 -26t20 -58q0 -39 -19 -90
q-20 -55 -59 -94q-41 -41 -92 -41q-51 8 -51 69q0 6 2 21v3q1 8 5 24l16 53z" />
    <glyph glyph-name="ampersand" unicode="&#x26;" horiz-adv-x="777" 
d="M330 379q-69 -28 -117 -55q-54 -30 -80 -56q-31 -29 -44 -62q-15 -33 -15 -73q0 -26 7 -44q6 -20 18 -38q24 -34 63 -51q38 -18 86 -18q52 0 106 21q51 18 103 58q25 -36 61 -59q35 -22 76 -22q75 0 129 71l-10 10q-35 -29 -70 -32q-39 0 -74 33q-36 33 -49 63l91 127
l24 35l9 12q6 8 10 11l24 16l8 3q8 3 11 4q4 1 18 1v16h-186v-18q51 0 51 -37q0 -19 -10 -35q-32 -56 -70 -100q-34 63 -49 108q-16 44 -37 128l89 53q28 19 55 52q27 32 27 70l-3 27q-7 33 -34 50q-26 16 -62 16q-53 0 -90 -28q-36 -28 -55 -77q-19 -47 -19 -96
q0 -24 3 -44q1 -15 5 -40zM172 133l-3 18l-3 15q0 40 27 77q25 35 61 60q39 27 78 43q40 -154 106 -256q-17 -19 -59 -36q-21 -8 -46 -14q-22 -5 -40 -5q-49 0 -77 25q-31 25 -44 73zM412 582q5 27 21 40t36 13q25 0 37 -17q12 -16 12 -42q0 -37 -26 -78q-26 -42 -84 -70
l-6 52q0 26 4 51q3 29 6 51z" />
    <glyph glyph-name="quotesingle" unicode="'" horiz-adv-x="332" 
d="M180 619q1 -14 7 -23q6 -10 17 -21l16 -17q5 -8 5 -17q0 -38 -75 -88l10 -17q25 13 32 18q14 9 28 22q15 13 28 28q12 12 22 27q19 31 19 63t-17 52q-18 18 -43 18q-22 0 -35 -12q-14 -12 -14 -33z" />
    <glyph glyph-name="parenleft" unicode="(" horiz-adv-x="332" 
d="M49 275l-2 -12q-5 -31 -6 -39q-2 -22 -2 -50q0 -26 3 -55q2 -21 8 -54q12 -60 27 -106q14 -41 32 -81q19 -40 32 -60l17 6q-24 62 -36 128q-13 65 -13 144q0 28 5 78q2 23 8 61q0 4 2 16q12 74 36 147q24 72 63 139q21 35 42 62q23 29 49 55l-13 16l-3 -3
q-44 -40 -62 -58q-31 -30 -57 -60q-55 -67 -83 -128q-33 -68 -47 -146z" />
    <glyph glyph-name="parenright" unicode=")" horiz-adv-x="332" 
d="M201 219q-9 -53 -24 -107q-18 -57 -38 -100q-21 -46 -53 -94q-31 -45 -70 -82l13 -18q79 63 136 141q60 81 92 169q32 91 32 183q0 188 -100 357l-19 -4q49 -111 49 -250q0 -72 -18 -195z" />
    <glyph glyph-name="asterisk" unicode="*" 
d="M277 607q24 -67 24 -132q-16 8 -36 24q-8 7 -18 15l-3 2q-9 8 -17 17l-26 26q-16 19 -39 19q-16 0 -26 -9q-11 -11 -11 -24q4 -26 29 -37l30 -7l53 -13q26 -9 58 -27q-58 -37 -127 -45q-38 -8 -41 -39q1 -14 13 -27q10 -12 22 -12q21 3 35 17l23 26l32 32q17 14 47 32
l1 -11l1 -14q0 -24 -4 -39l-14 -49l-12 -41q1 -15 12 -26t24 -11q39 5 39 41l-2 18l-9 27q-7 18 -12 42q-5 27 -5 63q35 -18 48 -30l50 -56q16 -16 37 -21q16 2 26 13q11 11 11 26q0 29 -31 35l-79 21q-11 4 -24 11q-14 6 -28 15q14 11 24 15q3 1 7 3l21 9q9 4 20 7l2 1
q2 1 10 2q13 3 21 5l30 7q27 6 27 33q0 19 -10 30q-11 11 -25 11q-17 0 -35 -19q-61 -69 -102 -90l-2 17q0 20 14 67q12 44 12 68q0 41 -33 41q-15 0 -25 -10t-10 -29z" />
    <glyph glyph-name="plus" unicode="+" horiz-adv-x="560" 
d="M265 347h-221l-25 -66h221l-84 -221h64l84 221h221l25 66h-221l83 219h-64z" />
    <glyph glyph-name="comma" unicode="," horiz-adv-x="250" 
d="M25 53q1 -14 7 -24l17 -20l9 -9l6 -6l1 -2q5 -8 5 -17q0 -41 -74 -88l10 -18q48 24 89 68q40 43 40 90q0 35 -18 54q-17 19 -43 19q-22 0 -35 -13q-14 -14 -14 -34z" />
    <glyph glyph-name="hyphen" unicode="-" horiz-adv-x="332" 
d="M63 254l-14 -63h219l13 63h-218z" />
    <glyph glyph-name="period" unicode="." horiz-adv-x="250" 
d="M82 100q-23 0 -40 -17t-17 -40q0 -21 17 -38t40 -17t39 16t16 39q0 25 -16 41t-39 16z" />
    <glyph glyph-name="slash" unicode="/" horiz-adv-x="277" 
d="M-66 -20h74l377 686h-72z" />
    <glyph glyph-name="zero" unicode="0" 
d="M342 676q-49 0 -96 -27q-48 -29 -84 -74q-41 -51 -64 -97q-26 -49 -40 -102q-15 -58 -20 -91q-7 -36 -7 -78q0 -32 6 -61q5 -31 15 -53q19 -48 57 -74q17 -12 42 -20q21 -7 48 -7q51 0 101 32q46 29 89 85q40 51 67 120q27 68 36 123q0 1 1 12q2 16 3 30v36q0 63 -13 116
q-13 55 -50 93q-35 37 -91 37zM143 359q17 62 46 135q24 60 64 109q38 45 81 45q42 0 63 -33t21 -99q0 -42 -23 -188q-13 -69 -42 -138q-28 -70 -69 -120t-91 -50q-82 0 -82 138q0 46 9 97q7 47 23 104z" />
    <glyph glyph-name="one" unicode="1" 
d="M295 551q-10 -37 -51 -181q-19 -65 -43 -152q-3 -10 -6 -22l-27 -102q-11 -35 -18 -47q-9 -12 -22 -18q-13 -7 -27 -9l-52 -6v-14h279v14q-48 0 -65 7q-19 6 -21 20l-2 8l5 23l7 24l75 271l77 279l2 12l2 14q0 1 -1 3l-1 3l-195 -41v-14h51q20 0 32 -5q9 -4 9 -20
q0 -18 -8 -47z" />
    <glyph glyph-name="two" unicode="2" 
d="M316 357q-40 -58 -81 -103l-112 -120l-111 -118v-16h355l49 131l-16 8q-13 -30 -34 -48q-20 -17 -73 -17l-184 2v4q64 62 157 157q76 78 109 113q74 77 74 162q0 45 -21 82q-23 37 -58 59q-37 21 -81 21q-32 0 -63 -10q-32 -10 -63 -32q-30 -21 -51 -51q-21 -27 -32 -65
l20 -6q26 45 65 70q38 24 75 24q33 0 64 -17q28 -16 45 -44q16 -28 16 -61q0 -58 -49 -125z" />
    <glyph glyph-name="three" unicode="3" 
d="M377 531q-7 -44 -36 -73q-30 -30 -68 -46q-22 -10 -37 -14q-12 -3 -38 -9l-59 -12v-16l24 1q87 0 124 -49t37 -120q0 -38 -13 -74q-13 -37 -44 -63t-66 -26q-25 0 -50 13q-28 15 -51 35q-17 14 -37 14q-23 0 -36 -13q-15 -13 -15 -30q9 -55 109 -55q97 0 158 36
q38 25 65 58q28 34 43 76q15 41 15 84q0 55 -24 94q-25 39 -69 58q59 20 97 47q35 26 45 45q8 14 9 21l1 4q2 12 4 22q0 62 -41 100q-40 37 -102 37q-48 0 -91 -25t-69 -79l16 -6q20 32 51 50q31 17 60 17q41 0 64 -25q24 -25 24 -77z" />
    <glyph glyph-name="four" unicode="4" 
d="M20 244l-20 -66h262l-49 -178h80l45 176h100l15 64h-96l122 436h-41zM373 563l-98 -323h-211v4l305 319h4z" />
    <glyph glyph-name="five" unicode="5" 
d="M131 432q117 -13 168 -66q51 -52 51 -124q0 -50 -21 -97q-22 -49 -61 -79q-40 -33 -88 -33q-21 0 -35 7q-15 6 -28 19q-29 29 -60 29q-19 0 -31 -12t-12 -27q3 -35 34 -45q29 -10 77 -10q62 0 113 22t92 60q44 42 66 93q22 50 22 108q0 183 -219 231l37 88h231l23 70
h-256l-103 -217v-17z" />
    <glyph glyph-name="six" unicode="6" 
d="M59 357q-16 -38 -23 -74q-9 -39 -9 -76q0 -88 47 -152q47 -63 143 -63q61 0 113 33q51 30 86 89q34 56 43 124l2 31q0 52 -22 92t-62 62t-86 22q-47 0 -88 -21l-4 4q23 49 72 101q51 54 116 93q68 41 133 48v16q-39 0 -78 -9t-79 -24q-74 -27 -130 -70q-60 -45 -102 -101
q-45 -58 -72 -125zM213 20q-61 0 -83 34q-12 18 -18 42q-7 21 -7 50l4 45l4 39q4 42 25 87q20 44 53 68q34 25 73 25q107 -12 107 -129q0 -31 -4 -51q-14 -67 -38 -116q-25 -48 -54 -70q-30 -24 -62 -24z" />
    <glyph glyph-name="seven" unicode="7" 
d="M78 -8h70l389 664l-6 10h-377l-80 -137l14 -8l30 35q9 10 24 22q14 8 33 12q16 4 57 4h211l2 -4z" />
    <glyph glyph-name="eight" unicode="8" 
d="M221 359q-78 -24 -119 -61q-41 -35 -56 -70q-14 -33 -17 -56q0 -58 26 -98t69 -60q44 -18 95 -18q50 0 105 20q53 20 87 60t34 94q0 100 -117 211q154 45 164 140q0 51 -24 85q-28 37 -67 53q-42 17 -87 17q-37 0 -76 -14q-40 -14 -65 -42q-26 -28 -34 -67l-2 -15l-2 -17
q0 -33 15 -62q14 -27 41 -60q26 -32 30 -40zM217 566q7 41 36 64q28 22 65 22q32 0 56 -15q23 -16 37 -42q13 -26 13 -58q0 -95 -113 -139l-48 51q-10 10 -19 23q-13 16 -16 23q-13 23 -13 50zM96 154q0 126 150 190q59 -53 91 -97q34 -49 34 -101q0 -34 -16 -63
q-16 -30 -49 -49q-31 -18 -70 -18q-53 0 -85 27q-34 26 -44 57q-11 31 -11 54z" />
    <glyph glyph-name="nine" unicode="9" 
d="M21 0v-18q88 8 173 48q88 41 154 105q67 64 106 147q38 84 38 173q0 45 -10 81q-10 37 -30 67q-19 29 -51 49q-31 19 -79 24q-59 0 -112 -31q-54 -30 -92 -81q-36 -48 -44 -99l-3 -28l-3 -29q0 -85 44 -132t107 -47q67 0 129 44l4 -2q-4 -10 -13 -26q-4 -6 -8 -13
q-10 -16 -14 -22q-27 -39 -70 -82q-46 -46 -102 -79q-57 -35 -124 -49zM273 275q-117 0 -117 135l2 31q6 54 29 105q22 49 58 77q36 27 79 27q38 0 64 -32t26 -106q0 -94 -31 -160q-32 -68 -110 -77z" />
    <glyph glyph-name="colon" unicode=":" horiz-adv-x="332" 
d="M104 98q-23 0 -39 -16t-16 -39q0 -21 17 -38t38 -17q24 0 40 16t16 39t-16 39t-40 16zM205 439q-22 0 -39 -15q-16 -16 -16 -39q0 -21 17 -38t38 -17q24 0 41 17q16 16 16 38q0 23 -16 39q-16 15 -41 15z" />
    <glyph glyph-name="semicolon" unicode=";" horiz-adv-x="332" 
d="M57 53q0 -15 6 -24q3 -7 16 -20l9 -9l6 -6l1 -2q5 -8 5 -17q0 -42 -75 -88l10 -18q29 12 60 39q30 26 50 58q19 31 19 63q0 33 -17 53q-18 18 -43 18q-21 0 -34 -13t-13 -34zM205 439q-24 0 -40 -16q-17 -17 -17 -40q0 -21 17 -38t40 -17q22 0 39 17q16 16 16 38
q0 24 -16 40t-39 16z" />
    <glyph glyph-name="less" unicode="&#x3c;" horiz-adv-x="676" 
d="M84 283v-62l508 -231v69l-426 193l426 193v69z" />
    <glyph glyph-name="equal" unicode="=" horiz-adv-x="676" 
d="M86 385v-65h504v65h-504zM86 186v-67h504v67h-504z" />
    <glyph glyph-name="greater" unicode="&#x3e;" horiz-adv-x="676" 
d="M590 283l-508 231v-69l426 -193l-426 -193v-69l508 231v62z" />
    <glyph glyph-name="question" unicode="?" 
d="M320 402l-44 -49l-3 -4q-4 -6 -9 -12q-7 -9 -9 -12q-7 -10 -8 -12q-15 -22 -31 -62q-7 -18 -10 -35q-3 -12 -7 -40l18 -2q7 57 39 99q34 44 68 71l82 69q46 39 56 68q11 30 11 58q0 37 -20 66q-19 29 -52 44t-71 15t-68 -10q-33 -11 -55 -36q-23 -26 -23 -65
q0 -44 39 -49q17 2 28 11t11 24q0 9 -8 31l-10 24q0 20 22 33q22 14 50 14q38 0 60 -25t22 -61q0 -67 -78 -153zM184 -14q21 0 37 16q15 15 15 37q0 21 -15 37q-16 16 -37 16q-23 0 -37 -16q-16 -16 -16 -37q0 -22 16 -37q14 -16 37 -16z" />
    <glyph glyph-name="at" unicode="@" horiz-adv-x="920" 
d="M373 414q-26 -42 -41 -84q-14 -39 -14 -70q11 -59 27 -89q9 -16 25 -25q15 -9 38 -9q16 0 34 6q19 5 35 15q35 20 56 49q7 -34 32 -51q25 -19 58 -19q51 0 94 37q42 35 65 88q12 28 17 54q6 27 6 53q0 34 -6 67q-10 53 -41 98q-32 44 -76 72t-97 43q-52 15 -110 15
q-91 0 -173 -44q-80 -43 -129 -118q-26 -39 -40 -81t-14 -85l-1 -10v-10q0 -71 29 -134q29 -64 81 -107q53 -45 117 -67q66 -24 137 -24q115 0 215 55l-11 27q-30 -17 -82 -30q-19 -5 -55 -11q-24 -4 -55 -4q-51 0 -105 17q-49 15 -95 55q-44 38 -71 100q-13 31 -18 58
q-6 26 -6 58q0 24 5 57q3 22 13 58q17 57 43 96q37 53 98 85q59 30 124 30q51 0 105 -21q53 -21 93 -57q39 -36 63 -85q23 -51 23 -102l-2 -28q-7 -56 -27 -94t-47 -58q-29 -20 -51 -20q-18 0 -30 14q-9 14 -9 41l15 66l24 91l27 104h-70l-10 -37q-15 49 -76 49
q-35 0 -73 -21q-39 -23 -64 -63zM443 182q-26 3 -40 23t-14 55l9 60q11 35 31 65q22 33 47 52q26 20 49 20l12 -2q31 -7 31 -60q0 -45 -21 -110q-15 -43 -43 -74q-26 -29 -61 -29z" />
    <glyph glyph-name="A" unicode="A" horiz-adv-x="611" 
d="M367 668l-75 -129l-87 -153l-92 -158l-86 -142q-9 -15 -18 -27q-6 -9 -16 -20l-1 -2q-17 -18 -43 -21v-16h186v16q-60 0 -63 35q2 12 4 17l3 7q4 11 7 19l68 131h219q22 -110 22 -162q0 -26 -16 -36q-17 -11 -63 -11v-16h248v16l-40 6q-12 5 -19 21q-10 18 -17 59
l-93 566h-28zM324 521l45 -259h-195z" />
    <glyph glyph-name="B" unicode="B" horiz-adv-x="611" 
d="M191 520l-101 -372l-22 -70q-9 -22 -27 -42q-20 -20 -49 -20v-16h276q44 0 96 11q47 12 87 36t63 62t23 86q0 108 -121 157q90 20 131 58q41 40 41 102q0 63 -53 102q-53 38 -131 38h-275v-15q41 0 59 -8q17 -9 17 -35q0 -16 -14 -74zM311 588q5 22 17 28q10 7 33 7
q57 0 91 -27t34 -82q0 -54 -29 -92q-45 -60 -173 -60l-36 1zM238 330l69 -2q62 0 94 -32q31 -31 31 -85q0 -29 -14 -77q-15 -48 -58 -73q-44 -26 -94 -30l-30 -2q-66 0 -66 39l2 16z" />
    <glyph glyph-name="C" unicode="C" horiz-adv-x="668" 
d="M170 518q-48 -55 -76 -125q-15 -39 -22 -71q-8 -40 -8 -72q0 -33 6 -60q4 -23 16 -55q26 -71 91 -112t145 -41q77 0 149 37q73 38 129 112l-18 14q-63 -63 -116 -90q-31 -15 -56 -22q-30 -8 -55 -8q-43 4 -76 14q-49 16 -75 68t-26 122q0 63 20 135q19 68 52 120
q26 44 66 78q38 34 81 52q46 17 83 17q63 0 107 -41q22 -22 34 -52q12 -31 12 -71l19 -2l37 199h-21q-8 -20 -37 -23l-51 9l-60 12q-17 4 -30 4h-25q-84 0 -159 -38q-74 -40 -136 -110z" />
    <glyph glyph-name="D" unicode="D" horiz-adv-x="723" 
d="M78 109q-1 -1 -7 -20l-6 -18q-6 -19 -9 -23q-10 -17 -20 -22q-9 -4 -46 -10v-16h287q79 0 157 29q74 28 135 79q62 54 96 124t34 151q0 46 -11 90q-11 27 -36 68q-28 43 -88 76q-62 35 -156 35h-279v-14q76 0 76 -44v-14l-22 -97l-21 -79l-34 -117zM311 592q3 18 15 24
q10 7 33 7l65 -4q27 0 49 -9q25 -12 42 -26q37 -31 55 -80t18 -102q0 -93 -39 -179q-40 -85 -114 -138q-73 -54 -165 -54l-40 -2q-14 0 -26 2q-11 2 -22 8q-14 6 -14 27l2 11l2 13z" />
    <glyph glyph-name="E" unicode="E" horiz-adv-x="611" 
d="M203 535l-127 -457q-8 -29 -17 -40q-10 -12 -21 -15l-40 -7v-16h508l62 162l-17 8q-28 -40 -56 -68q-27 -27 -63 -44q-36 -16 -86 -21l-100 -6q-38 0 -54 10q-16 7 -16 27l6 34l62 226l30 -1l28 -1l26 -2l27 -2q28 0 41 -9q10 -9 10 -30q0 -18 -6 -56l20 -6l68 232l-19 4
q-18 -38 -29 -55t-27 -26q-13 -6 -22 -7q-15 -4 -28 -5q-16 -3 -63 -3h-13h-16h-19l66 235q5 13 11 16l26 7h41q116 0 153 -14q19 -10 26 -22q7 -13 7 -46v-35l22 -2l29 152h-496v-15q41 -5 57 -11q19 -7 19 -36q0 -22 -10 -55z" />
    <glyph glyph-name="F" unicode="F" horiz-adv-x="611" 
d="M217 551l-123 -449l-17 -50q-6 -15 -21 -24q-16 -9 -48 -12v-16h252v16l-31 1l-23 4q-9 2 -17 10q-6 10 -7 22l5 23l4 22l63 230l105 -4q27 0 39 -12t12 -39q0 -22 -6 -54l18 -4l76 234l-18 4q-19 -40 -39 -63q-10 -12 -26 -18q-14 -7 -32 -7q-21 -4 -71 -4h-13h-16h-19
l66 235q6 23 41 23h57q68 0 117 -9q49 -10 49 -65l-1 -24l-1 -19l21 -2l32 152h-499v-15l30 -2l25 -5q10 -4 16 -13t6 -25q0 -15 -6 -41z" />
    <glyph glyph-name="G" unicode="G" horiz-adv-x="723" 
d="M143 502q-29 -40 -50 -87q-20 -43 -30 -90q-6 -28 -9 -46q-3 -19 -3 -41l6 -45q13 -69 54 -116q39 -47 100 -72q59 -25 131 -25q117 0 234 63l43 168q10 40 21 58t25 24q17 7 26 8q14 2 32 2v15h-268v-15q24 0 37 -3q16 -3 24 -7q17 -8 17 -29l-1 -8l-1 -8
q-25 -125 -52 -182q-10 -20 -44 -34q-22 -9 -39 -12q-15 -4 -39 -4q-65 0 -121 36t-68 110l-6 57q0 31 6 68q6 36 15 72q21 77 58 136q37 61 93 98q58 38 129 38q43 0 85 -17q38 -18 63 -55q17 -25 23 -43q7 -21 7 -49l17 -2l49 197l-14 4q-19 -30 -56 -35q-16 2 -54 12
l-65 17q-28 6 -63 6q-37 0 -66 -7q-31 -7 -64 -18q-61 -23 -105 -59q-47 -38 -77 -80z" />
    <glyph glyph-name="H" unicode="H" horiz-adv-x="723" 
d="M205 568l-133 -478q-11 -42 -23 -54q-14 -16 -57 -20v-16h246v16l-31 3l-23 5q-9 5 -12 9q-4 5 -6 18l8 45l62 230h285l-64 -230q-7 -32 -27 -55q-11 -11 -29 -18t-46 -7v-16h272v16q-46 5 -61 11q-15 5 -15 28l12 60l126 459q9 36 26 47q15 8 53 16v15h-248v-15
q21 0 39 -6q10 -4 14 -6q15 -10 15 -31v-14q-7 -41 -30 -122l-25 -91h-285l59 213q6 21 30 38q25 19 65 19v15h-273v-15q39 0 58 -9q20 -11 20 -38z" />
    <glyph glyph-name="I" unicode="I" horiz-adv-x="332" 
d="M203 563l-123 -446q-13 -47 -21 -65q-7 -16 -20 -23q-16 -9 -47 -13v-16h244v16l-24 3l-25 5q-9 4 -14 12q-6 10 -7 23l12 58l123 442q3 13 8 28q1 2 4 9q1 2 4 9q5 11 20 19q14 8 46 13v15h-246v-15q37 -5 53 -12q17 -8 17 -35q0 -14 -4 -27z" />
    <glyph glyph-name="J" unicode="J" horiz-adv-x="443" 
d="M303 535l-127 -449q-7 -33 -20 -52q-12 -18 -37 -24q-22 3 -27 17q-6 14 -6 39q0 29 -13 42t-32 13q-17 0 -33 -14q-16 -13 -16 -37q0 -38 35 -64t77 -26q44 0 80 19q37 19 64 52q26 32 37 74l123 434q2 7 9 26q2 4 3 8q2 6 5 12q7 15 21 22q12 7 44 10v15h-254v-15
l45 -5q18 -3 25 -13t7 -27q0 -21 -10 -57z" />
    <glyph glyph-name="K" unicode="K" horiz-adv-x="668" 
d="M219 559l-129 -465l-16 -45q-5 -12 -20 -20q-13 -10 -48 -13v-16h248v16q-18 0 -33 3t-23 6q-16 7 -16 28q3 33 13 64l61 221h8l131 -227l7 -15l8 -17l6 -15l2 -17q0 -14 -11 -19q-7 -3 -16 -6l-18 -3l-31 -3v-16h275v16q-27 0 -44 6q-18 6 -30 18q-5 5 -11 13q-1 1 -1 2
q-6 8 -10 14l-19 33l-156 273l254 189q44 37 72 55q15 11 27 15q11 4 24 4v14h-223v-14q61 0 61 -25q0 -12 -24 -39q-16 -18 -30 -30q-7 -6 -24 -20q-4 -3 -6 -5q-28 -23 -36 -28q-14 -11 -41 -28l-75 -52l-52 -38l-7 2l50 185q20 78 102 78v14h-273v-14l46 -4q12 -2 22 -10
q10 -10 10 -30z" />
    <glyph glyph-name="L" unicode="L" horiz-adv-x="557" 
d="M205 570l-127 -461q-2 -7 -5 -16q-3 -10 -5 -17t-6 -18q-1 -2 -1 -3q-7 -15 -22 -25q-16 -11 -47 -14v-16h510l57 178l-20 6q-49 -108 -137 -137q-2 -1 -7 -2q-6 -1 -10 -2q-13 -3 -24 -3l-90 -5l-36 2l-30 2q-19 3 -27 9t-10 22q0 7 5 30q2 8 7 26q3 12 6 22l117 418
q10 39 40 55q29 16 59 16v15h-273v-15q40 0 59 -10t19 -37l-1 -10z" />
    <glyph glyph-name="M" unicode="M" horiz-adv-x="832" 
d="M133 637q21 0 34 -3q9 -2 23 -8q17 -11 17 -30l-6 -27l-8 -26l-29 -103l-33 -115l-30 -105l-35 -118q-27 -86 -86 -86v-16h200v14q-10 1 -30 5q-14 3 -25 8q-18 8 -18 34l8 41l117 433l4 2l59 -537h19l375 553l-119 -428q-13 -48 -21 -66q-9 -19 -27 -28t-61 -15v-16h273
v16l-47 4q-15 2 -22 10q-10 10 -11 25l5 25l5 22l125 457q5 17 9 27q4 11 10 21q6 12 20 18t45 12v15h-166l-334 -488h-4l-55 488h-181v-15z" />
    <glyph glyph-name="N" unicode="N" horiz-adv-x="668" 
d="M59 86q-10 -32 -28 -50q-19 -17 -52 -20v-16h199v16q-36 0 -55 11q-18 11 -18 37l28 107l32 116l34 129l33 113l229 -545h18l167 580q11 38 30 54q18 15 51 20v14h-200v-14q39 0 56 -11t17 -35l-4 -26l-110 -408h-4l-207 494h-160v-14q82 0 82 -60l-6 -31l-28 -96
l-36 -131l-38 -133z" />
    <glyph glyph-name="O" unicode="O" horiz-adv-x="723" 
d="M146 471q-41 -51 -63 -117q-13 -39 -18 -68q-6 -31 -6 -65q0 -62 24 -118q24 -55 73 -88q27 -18 55 -26q29 -9 64 -9q82 0 161 39q78 39 136 103q56 62 91 144q34 78 34 160q0 69 -25 120q-25 53 -69 81q-45 30 -97 37l-37 3q-100 0 -180 -60q-40 -30 -75 -63
q-40 -40 -68 -73zM217 408l2 5q9 23 15 35q14 26 21 38q26 43 56 73q32 35 70 55q37 19 76 19q41 0 72 -19q31 -20 47 -54q16 -33 16 -78q0 -47 -20 -144q-12 -60 -37 -114q-24 -53 -61 -104q-37 -49 -82 -77q-47 -29 -99 -29q-62 0 -95 41q-34 40 -34 115q0 29 4 53l2 14
q5 26 9 46q12 53 38 125z" />
    <glyph glyph-name="P" unicode="P" horiz-adv-x="611" 
d="M146 639l31 -5q17 -3 27 -13q11 -11 11 -33q0 -14 -6 -37l-113 -410l-10 -37q-10 -38 -16 -50q-7 -16 -26 -27q-20 -11 -44 -11v-16h244v16l-39 5q-11 3 -19 11q-9 9 -10 25q3 25 10 52l56 204q8 -1 17 -3q22 -3 29 -4q22 -2 50 -2q33 0 64 6q26 4 61 16q61 20 100 62
q41 44 41 110q0 63 -42 109q-43 45 -156 45h-260v-13zM314 570q7 27 11 33q3 8 11 13q8 3 25 3h43q54 0 76 -33q22 -34 22 -82q0 -83 -48 -124q-49 -40 -140 -40l-32 3l-32 3z" />
    <glyph glyph-name="Q" unicode="Q" horiz-adv-x="723" 
d="M115 422q-28 -48 -43 -102q-15 -52 -15 -105q0 -52 19 -97q18 -47 57 -82q38 -35 101 -50q-62 -57 -177 -140l11 -16q28 15 57 25q29 8 53 8q25 0 64 -10l77 -20q42 -10 83 -15l22 -1q46 0 88 16q47 15 87 45q40 28 69 71l-16 12q-64 -76 -168 -76q-20 0 -25 1
q-3 1 -10 2q-7 0 -16 2l-66 15q-16 4 -38 10q-10 2 -28 6q-6 1 -23 4l-5 1h-3q-18 2 -28 2l-21 -2l58 58q105 0 204 66q99 65 158 167q58 100 58 207q0 71 -28 123q-30 55 -79 85q-52 32 -106 32q-75 0 -150 -35q-74 -36 -129 -91q-56 -56 -92 -116zM246 469q46 78 100 121
q52 43 127 43q59 0 90 -45q29 -41 29 -113q0 -38 -14 -116l-3 -10q-9 -35 -13 -48q-10 -34 -22 -59q-16 -35 -28 -57q-13 -25 -33 -53q-38 -54 -86 -84q-50 -32 -106 -32q-59 0 -91 47t-32 115q0 37 7 72q8 38 18 78q23 80 57 141z" />
    <glyph glyph-name="R" unicode="R" horiz-adv-x="611" 
d="M72 109l-9 -33q-1 -6 -5 -16q-1 -1 -3 -6q-3 -5 -5 -8q-8 -13 -23 -20q-4 -1 -6 -2q-10 -4 -14 -5q-9 -3 -21 -3v-16h244v16l-23 3l-26 4q-7 3 -12 11q-6 10 -7 21q1 14 5 29q1 6 4 20l1 5l58 219l65 -6l123 -322h148v16q-26 0 -43 13q-14 9 -23 23l-20 44l-89 236
q85 17 142 64q55 46 55 124q0 25 -14 55q-15 29 -63 53t-138 24h-242v-15q37 -4 55 -12q17 -8 17 -35l-1 -7l-1 -9q-25 -109 -129 -465zM303 578q7 25 16 35q7 10 38 10q57 0 91 -28t34 -85l-1 -17l-1 -13q-10 -63 -58 -89q-30 -16 -57 -24q-30 -8 -64 -8q-21 2 -42 5
q-12 2 -17 3z" />
    <glyph glyph-name="S" unicode="S" 
d="M357 662q-23 4 -32 4h-16q-58 0 -99 -26t-61 -64t-20 -80q0 -19 6 -39q4 -19 15 -37q19 -32 79 -92q26 -26 50 -53q4 -4 15 -16q15 -18 19 -23q26 -35 29 -68q0 -76 -38 -114t-91 -38q-48 4 -78 25q-25 11 -45 53q-13 27 -16 44q-6 23 -6 44l2 23l-19 2l-35 -223h19
q6 34 33 34q10 0 30 -5l46 -14q9 -4 20 -7q2 -1 3 -1q5 -2 24 -6q22 -5 36 -5q26 0 48 6q23 6 48 18q44 22 76 69q31 46 31 115q0 34 -15 67q-14 30 -35 57q-15 20 -65 68l-67 67q-16 19 -24 41q-9 20 -9 41q0 24 9 43t25 33q28 28 77 28q55 0 89 -37t34 -125l18 -2l41 199
l-24 -2q-16 -22 -46 -25q-14 2 -19 4q-4 1 -18 5l-5 2l-4 2q-15 4 -20 5z" />
    <glyph glyph-name="T" unicode="T" horiz-adv-x="557" 
d="M174 103q-10 -37 -31 -62q-24 -25 -79 -25v-16h291v16q-34 0 -54 3q-16 0 -27 9q-10 7 -12 25l11 56l143 509h59q43 0 71 -21q28 -22 28 -66l-1 -21l-1 -18l16 -2l45 162h-533l-41 -154l17 -4q16 37 34 61q16 24 40 40q24 13 61 19q3 1 8 1l18 3h33h44z" />
    <glyph glyph-name="U" unicode="U" horiz-adv-x="723" 
d="M686 566q10 35 26 52q13 14 54 19v15h-200v-15q37 0 53 -10t16 -39l-4 -37q-45 -200 -117 -403q-23 -59 -74 -91q-52 -34 -112 -34l-27 2q-49 6 -79 37q-15 15 -23 36t-8 45q6 57 21 114q3 10 5 20q8 30 11 41q9 32 24 81l37 126q18 65 41 89q23 23 70 23v15h-273v-15
q37 0 57 -9q19 -9 19 -36l-2 -26l-29 -99l-33 -111l-24 -100q-11 -51 -15 -100q0 -73 51 -120q51 -46 128 -54l35 -2q56 0 107 21q50 20 88 62t57 103l36 116l26 88l26 87z" />
    <glyph glyph-name="V" unicode="V" horiz-adv-x="611" 
d="M305 135l-65 437q0 22 6 35t18 19q9 5 24 7l28 5v14h-240v-13q36 -6 48 -19q11 -14 17 -46l20 -104l25 -151l24 -151l30 -188h18l89 146l87 145l92 153l81 134l17 28l21 30q8 11 18 15q14 6 25 7v14h-186v-14q62 0 62 -38q0 -20 -19 -57l-234 -408h-6z" />
    <glyph glyph-name="W" unicode="W" horiz-adv-x="832" 
d="M211 -18h19l223 454h4l51 -456h19l65 124l77 149l77 146l90 175q16 31 29 42q12 13 41 21v15h-185v-15q31 0 48 -11q16 -12 16 -32q0 -14 -8 -35l-46 -95l-63 -125l-56 -109l-34 -64l-41 406q0 40 19 52q20 11 49 15v13h-238v-15q38 0 55 -10q17 -11 17 -31l12 -86
l-170 -344h-4l-43 400q0 43 16 55q16 11 57 16v15h-237v-15q19 0 31 -3q14 -6 19 -11q12 -11 17 -43l20 -141l18 -138l17 -154z" />
    <glyph glyph-name="X" unicode="X" horiz-adv-x="611" 
d="M168 572l105 -259q-148 -175 -189 -219q-21 -22 -31 -31q-6 -6 -24 -21l-4 -3q-23 -20 -54 -23v-16h215v16l-14 -2q-55 0 -55 37q3 20 20 43l154 174l61 -149q19 -47 19 -70q0 -19 -17 -27q-18 -6 -61 -6v-16h273v16q-23 0 -41 5q-17 5 -27 13q-20 17 -35 54l-102 260
l194 220q23 26 52 46q27 18 47 23v15h-207l-2 -15q29 0 45 -10q18 -9 18 -27q0 -17 -18 -37l-148 -170l-67 166l-3 9l-2 13l-2 11q0 22 18 32q17 11 54 11v17h-264v-15q36 0 56 -11q20 -10 36 -54z" />
    <glyph glyph-name="Y" unicode="Y" horiz-adv-x="557" 
d="M170 561l74 -258l-62 -217q-12 -39 -35 -54q-28 -16 -69 -16v-16h289v16q-33 0 -53 3q-19 3 -27 11q-9 9 -10 25q2 13 8 41q0 2 2 11q4 17 6 24l25 86l26 88l207 256q42 50 52 59q15 11 30 17v15h-190v-15q30 0 49 -6q20 -6 20 -27q0 -17 -18 -43q-25 -37 -80 -104
l-90 -109l-58 213l-8 37q0 24 14 29q17 6 58 10v15h-240v-15l44 -8q10 -4 17 -17l1 -3l6 -12z" />
    <glyph glyph-name="Z" unicode="Z" horiz-adv-x="557" 
d="M-6 14v-14h504l55 168l-20 2q-18 -42 -37 -66q-19 -22 -42 -38q-25 -18 -59 -23q-26 -5 -48 -7q-9 -1 -38 -1h-186l482 604v13h-486l-45 -144l18 -6l32 58q9 13 30 28q47 30 143 30h176z" />
    <glyph glyph-name="bracketleft" unicode="[" horiz-adv-x="389" 
d="M20 -154h189l6 27h-67q-21 0 -29 5q-8 4 -10 17l6 27l151 637l13 56q3 11 11 17q8 5 26 5h67l8 25h-174z" />
    <glyph glyph-name="backslash" unicode="\" horiz-adv-x="277" 
d="M248 -18h70l-287 684h-72z" />
    <glyph glyph-name="bracketright" unicode="]" horiz-adv-x="389" 
d="M12 -154h172l197 816h-188l-7 -25h68q14 0 25 -8q10 -7 10 -24l-1 -12l-6 -24l-7 -28l-132 -566l-8 -33l-9 -36q-3 -11 -14 -22q-13 -11 -32 -11h-62z" />
    <glyph glyph-name="asciicircum" unicode="^" horiz-adv-x="422" 
d="M-24 336l65 -10l188 262l97 -308l67 -11l-123 389l-57 10z" />
    <glyph glyph-name="underscore" unicode="_" 
d="M0 -125h500v51h-500v-51z" />
    <glyph glyph-name="grave" unicode="`" horiz-adv-x="332" 
d="M135 600l146 -108h30l-106 137q-29 35 -49 35q-16 0 -25 -10q-11 -10 -12 -27q4 -19 16 -27z" />
    <glyph glyph-name="a" unicode="a" 
d="M145 365q-58 -52 -92 -125q-35 -75 -35 -152q0 -47 29 -73q29 -27 70 -27q60 0 106 41q45 41 93 112l2 -2q-10 -33 -15 -61q-6 -25 -6 -45q5 -45 39 -45q56 0 141 112l-14 9l-24 -24l-32 -32q-13 -12 -25 -12l-7 2l-6 12q4 8 4 19l23 95l32 125l37 142l-6 5l-64 -7
l-14 -47q-12 52 -78 52q-37 0 -79 -19q-43 -19 -79 -55zM160 37q-60 0 -60 74q0 36 11 74q11 37 31 76t39 66t39 47q44 44 94 44q49 -4 49 -70q0 -54 -33 -131q-40 -93 -85 -136q-47 -44 -85 -44z" />
    <glyph glyph-name="b" unicode="b" 
d="M174 605l-151 -556l-2 -8q9 -27 51 -40q20 -7 42 -10q20 -3 38 -3q58 0 104 24q39 19 81 53q39 31 70 72q29 38 49 84q17 46 17 88q0 36 -15 64q-14 31 -41 48q-28 18 -65 18q-55 0 -102 -42q-49 -46 -82 -102l-2 2l102 381l-6 6q-51 -12 -153 -24v-17q49 0 59 -10
q6 -3 6 -20v-8zM111 78q12 62 29 113q15 44 46 96q65 104 144 104q57 -10 57 -80q0 -61 -45 -153q-12 -23 -18 -32q-7 -12 -17 -23q-19 -25 -42 -42q-23 -19 -53 -32q-31 -13 -60 -19q-45 0 -45 41l2 12z" />
    <glyph glyph-name="c" unicode="c" horiz-adv-x="443" 
d="M98 324q-34 -45 -51 -90q-18 -46 -18 -93q0 -16 3 -30q1 -12 12 -41q9 -28 26 -45q15 -15 45 -26q28 -11 59 -11q51 0 102 27q50 28 89 81l-15 9q-36 -39 -72 -61q-36 -21 -71 -21q-41 0 -67 33q-27 32 -27 87q0 29 11 71q11 43 28 81q25 53 70 90q44 35 92 35
q38 0 38 -20q0 -8 -7 -25t-7 -33q8 -29 37 -29q17 0 34 14q15 14 15 32q0 38 -33 59t-75 21q-56 0 -117 -31q-60 -31 -101 -84z" />
    <glyph glyph-name="d" unicode="d" 
d="M227 420q-46 -24 -97 -73q-47 -45 -79 -108q-19 -38 -26 -63q-9 -28 -9 -59q0 -65 29 -97t76 -32q25 0 55 11q26 10 47 28q20 17 38 38l36 50l2 -2l-14 -76q0 -44 39 -51q35 0 78 33q43 31 73 81l-12 11q-57 -70 -88 -70q-12 4 -14 14q14 69 33 146l45 164l49 171l39 142
l-6 6q-99 -19 -152 -24v-17q42 0 53 -8q8 -5 8 -20v-10q-12 -55 -57 -216l-2 -4q-7 54 -66 54q-40 0 -78 -19zM311 418q44 0 44 -70q0 -43 -17 -100q-17 -54 -44 -103q-24 -45 -61 -78q-34 -30 -71 -30l-17 2q-23 5 -33 22q-12 17 -12 46q0 34 11 70q12 40 32 81
q32 69 77 114q45 46 91 46z" />
    <glyph glyph-name="e" unicode="e" horiz-adv-x="443" 
d="M86 289q-28 -39 -42 -80q-15 -40 -15 -80q0 -32 10 -55q9 -26 28 -45q38 -39 97 -39q112 0 205 106l-12 11q-41 -35 -79 -55q-36 -19 -69 -19l-14 2q-36 5 -58 29t-22 63q4 34 10 57q21 0 46 5q26 6 52 13q52 16 94 42t68 63q25 35 25 80q-3 23 -26 38q-23 14 -60 14
q-56 0 -120 -37q-66 -38 -118 -113zM326 414q20 -11 20 -37q0 -30 -25 -64q-26 -35 -75 -65t-113 -41q11 41 42 92q14 23 35 49q17 20 33 36q34 34 66 34q10 0 17 -4z" />
    <glyph glyph-name="f" unicode="f" horiz-adv-x="277" 
d="M-135 -114q-11 -11 -11 -25q0 -34 23 -51t60 -17q33 0 67 25q34 22 64 75q14 24 28 61q12 31 21 69q14 55 43 180l10 42q20 88 33 151h110l5 32h-107q15 90 45 159t82 69q16 0 16 -13q0 -6 -12 -38q1 -16 16 -24q14 -9 31 -9q12 1 23 12q10 10 10 29q0 32 -27 48
q-29 17 -61 17q-134 0 -201 -250h-92l-8 -32h92l-94 -447q-10 -51 -26 -81q-15 -29 -31 -42q-17 -14 -33 -14q-7 0 -14 5q-7 4 -7 11q1 2 1 4t1 4q0 2 2 6l6 17l-2 6q-6 31 -34 31l-3 2q-15 -1 -26 -12z" />
    <glyph glyph-name="g" unicode="g" 
d="M119 352q-11 -20 -18 -40q-7 -21 -7 -42q0 -79 80 -108q-76 -49 -76 -84q5 -22 27 -39l-37 -24q-21 -14 -43 -32q-19 -17 -28 -34q-11 -20 -11 -42l2 -18q11 -51 58 -73q48 -23 106 -23q48 0 99 17q50 17 82 50q32 35 32 83q0 38 -27 70q-29 31 -88 50l-70 22
q-19 7 -26 19l-4 9q2 15 15 28t20 13l21 -3l20 -3q41 0 87 24q23 12 39 27t31 34q27 38 27 83q0 12 -2 26q-1 12 -6 24h49v38h-63q-41 35 -109 35q-33 0 -72 -11q-24 -7 -34 -13q-13 -7 -30 -18q-29 -20 -44 -45zM180 297q11 39 27 65q15 23 39 40q22 16 55 16q51 0 51 -74
q0 -36 -14 -78q-15 -43 -43 -68q-29 -26 -68 -26q-26 0 -39 22q-9 15 -12 27q-4 9 -4 29zM146 27l81 -28q41 -14 68 -33q26 -20 29 -46q0 -50 -40 -78t-96 -28q-49 0 -88 27q-39 25 -39 71q0 29 23 63q23 33 62 52z" />
    <glyph glyph-name="h" unicode="h" 
d="M164 553l-146 -553h76q23 95 54 178q18 43 53 90q36 48 78 85q41 36 69 36q21 0 21 -20v-10l-74 -281l-8 -45q0 -43 43 -43q74 0 149 114l-14 13q-59 -77 -84 -80l-8 7q-4 4 -6 13l5 23l7 29l60 219q6 24 6 45q0 36 -16 52t-44 16q-36 0 -71 -23q-15 -9 -37 -30
q-18 -17 -43 -45q-22 -25 -42 -54q-24 -32 -36 -53l-2 2l119 440l-5 6q-93 -21 -159 -28v-15q43 0 55 -4t12 -24q0 -19 -12 -60z" />
    <glyph glyph-name="i" unicode="i" horiz-adv-x="277" 
d="M125 359l-59 -218l-7 -32l-8 -36l-4 -30q0 -55 43 -55q75 0 144 114l-13 11q-22 -31 -43 -52q-26 -26 -41 -26q-13 3 -16 16q2 10 4 16q2 9 6 20l12 38l84 313l-2 3l-60 -11l-52 -8l-49 -6v-18h20q23 0 32 -4q11 -5 11 -19l-1 -8zM215 547q21 0 35 16t14 37q0 20 -14 37
q-15 15 -35 15t-35 -15q-14 -17 -14 -37t15 -37q13 -16 34 -16z" />
    <glyph glyph-name="j" unicode="j" horiz-adv-x="277" 
d="M141 23l105 416l-4 2l-59 -10l-57 -9l-54 -6v-16h22q29 0 40 -7q11 -8 11 -26q0 -24 -4 -37l-100 -400q-15 -64 -38 -90t-42 -26q-7 0 -9 1q-4 2 -5 3l-2 8l6 13q6 10 6 18q0 19 -10 28q-11 10 -27 11q-18 0 -31 -13q-14 -14 -14 -35q3 -28 28 -41q26 -14 56 -14
q123 0 182 230zM227 547q19 0 33 17q13 16 13 36q0 24 -13 38q-14 14 -33 14q-22 0 -35 -16q-14 -17 -14 -36t15 -36q14 -17 34 -17z" />
    <glyph glyph-name="k" unicode="k" horiz-adv-x="443" 
d="M14 0h74l49 180l41 31l40 -90l35 -74q20 -37 33 -48q14 -11 32 -11q59 0 110 110l-14 9q-3 -5 -7 -12t-7 -12q-10 -16 -18 -27q-11 -15 -28 -17l-18 8q-21 16 -100 211l104 90q21 16 24 18q16 12 17 13q12 8 29 19q21 11 51 14v16h-184v-16q55 0 55 -19q0 -17 -31 -45
q-85 -76 -153 -125l-2 2l120 453l-4 6q-25 -6 -69 -13q-18 -4 -19 -4q-47 -9 -69 -11v-15q43 0 55 -4t12 -22l-8 -41z" />
    <glyph glyph-name="l" unicode="l" horiz-adv-x="277" 
d="M178 582l-56 -209l-46 -177l-24 -95l-5 -19l-8 -45q0 -45 45 -49q30 0 51 10q21 11 46 37q19 19 59 78l-13 10q-14 -24 -45 -58q-30 -34 -53 -34q-9 0 -12 18l8 45l154 584l-6 6q-27 -6 -72 -14l-15 -3q-47 -9 -69 -11v-15q42 0 54 -4q13 -4 13 -22q0 -10 -6 -33z" />
    <glyph glyph-name="m" unicode="m" horiz-adv-x="723" 
d="M12 0h74l32 103q15 44 25 66l26 53q9 20 32 49q40 55 73 86q35 32 60 32q20 0 20 -22l-8 -45l-88 -322h76q9 39 23 85q10 36 23 70q27 69 61 116q89 116 129 116q22 0 22 -22q0 -10 -12 -51l-24 -99l-24 -98l-16 -82q0 -43 41 -43q74 0 146 112l-14 13q-59 -80 -87 -80
q-9 0 -12 14l20 86l30 110l24 85q6 24 6 43q0 66 -66 66q-31 -3 -72 -36q-41 -34 -78 -82q-14 -17 -33 -45l-1 -1q-4 -5 -17 -27l-8 -12q33 89 33 139q0 64 -55 64q-53 0 -115 -68q-62 -70 -104 -137l-2 2l57 201l-4 2q-7 -2 -35 -8q-10 -2 -23 -5q-7 -1 -102 -18v-17
q42 0 50 -4q12 -3 12 -20l-7 -47z" />
    <glyph glyph-name="n" unicode="n" 
d="M109 354l-95 -354h74l37 117l22 56q10 22 27 52q47 78 91 124q41 42 73 42q21 0 21 -34l-5 -43l-57 -218q-12 -45 -12 -61q5 -45 45 -45q30 0 54 15q24 16 41 36l2 2q17 19 27 33q5 6 11 14q5 8 10 14l-16 13l-49 -60q-18 -20 -33 -20q-13 0 -16 16q4 40 14 70l28 87
q17 50 27 91q9 38 9 74q0 57 -46 64l-17 2q-43 0 -99 -50q-57 -51 -127 -164l-2 2l65 209l-4 3l-162 -31v-15h22h1q19 -2 27 -5q14 -5 14 -23l-1 -7z" />
    <glyph glyph-name="o" unicode="o" 
d="M96 316q-36 -50 -53 -94q-18 -43 -18 -89q0 -24 8 -48q7 -23 20 -42q26 -37 62 -47q45 -8 61 -8q76 0 143 46q67 45 108 119q40 73 40 146q0 40 -19 72q-19 31 -55 52q-34 18 -73 18q-48 0 -92 -21t-79 -50q-37 -29 -53 -54zM162 14q-55 16 -55 90q0 37 14 81l33 88
q27 61 71 105q44 42 87 42l18 -2q24 -4 39 -30q14 -26 14 -70q0 -45 -20 -113q-23 -70 -53 -116q-30 -44 -62 -62q-31 -19 -60 -19z" />
    <glyph glyph-name="p" unicode="p" 
d="M57 402h21q22 0 31 -6q8 -6 8 -23q0 -16 -6 -43l-115 -439l-15 -54q-5 -14 -17 -20q-13 -6 -40 -6v-16h205v14q-37 0 -50 7q-15 7 -15 26l4 19l6 30l28 115q32 -18 68 -18q75 0 166 69q21 17 53 56q15 18 30 41q14 24 26 50q24 53 24 105q0 60 -31 95q-32 35 -90 35
q-49 0 -90 -30q-42 -32 -70 -77l-2 4l27 102l-4 3l-156 -23zM186 291q21 47 56 76t78 29q30 0 45 -23q14 -26 14 -62q0 -45 -14 -98q-13 -52 -42 -97q-28 -46 -68 -75q-41 -29 -87 -35q-53 5 -53 43l21 93l21 77q10 34 29 72z" />
    <glyph glyph-name="q" unicode="q" 
d="M133 342q-53 -56 -80 -119q-15 -38 -21 -64q-7 -25 -7 -55q12 -116 98 -116q63 0 109 42q48 44 98 115l-78 -260q-11 -35 -19 -47q-8 -15 -29 -23t-56 -8v-16h243v18q-40 0 -57 6q-16 6 -18 21l14 49l152 541h-72l-17 -45q-16 60 -79 60q-39 0 -89 -27q-47 -27 -92 -72z
M150 262q89 156 166 156q32 0 49 -17q16 -16 16 -47q0 -41 -29 -114q-15 -39 -41 -81q-29 -47 -67 -82t-75 -35l-21 3q-19 4 -30 23t-11 49q0 33 11 69q12 38 32 76z" />
    <glyph glyph-name="r" unicode="r" horiz-adv-x="389" 
d="M45 0h74q43 134 77 216q30 73 89 143q16 16 29 16q14 0 14 -10q5 -23 37 -27q47 6 47 51q0 35 -25 47q-15 5 -22 5q-32 0 -68 -34t-66 -81t-47 -88l-2 2l48 199l-3 2l-155 -27v-18l33 2q21 0 28 -7q8 -8 8 -24l-4 -29l-25 -94l-33 -119z" />
    <glyph glyph-name="s" unicode="s" horiz-adv-x="389" 
d="M221 123q6 -15 6 -35q0 -33 -20 -55t-55 -25q-34 3 -54 23q-19 19 -27 44q-12 32 -20 70h-16l-19 -159h15q8 20 28 20q12 0 43 -9q32 -9 50 -9q50 0 93 24q44 24 56 80l2 22q0 39 -15 66q-27 42 -59 87q-27 38 -35 55q-12 21 -12 35l-2 2q0 28 18 44q17 15 42 15
q79 -7 90 -115h16l19 138l-13 2q-7 -16 -30 -19l-43 8q-27 7 -52 7q-49 0 -83 -29q-34 -30 -39 -80q0 -31 17 -57q10 -18 50 -73q34 -46 49 -77z" />
    <glyph glyph-name="t" unicode="t" horiz-adv-x="277" 
d="M61 125l-12 -43l-10 -35l-4 -22q3 -28 31 -35l17 -2q28 0 53 18q18 14 26 21q14 14 20 21l45 61l-14 8q-57 -80 -86 -80q-10 7 -12 14l8 30l8 28l76 287h84l4 32h-80l27 99v10q0 10 -6 10l-7 -2l-4 -4q-37 -48 -67 -72q-31 -25 -54 -36l-34 -16q-13 -7 -13 -21h74z" />
    <glyph glyph-name="u" unicode="u" 
d="M111 338l-58 -229q-2 -10 -5 -22q-1 -5 -2 -8q-5 -27 -5 -36q0 -46 39 -53q71 0 127 59q25 25 65 86q22 34 33 52q9 15 21 36l2 4h4l-15 -58l-14 -67q-6 -29 -16 -59q6 -53 55 -53q25 0 47 15q20 13 37 36l49 66l-14 10l-18 -23l-23 -25l-23 -21q-12 -9 -22 -9
q-7 1 -10 14l3 12l3 13l94 354h-74q-23 -71 -51 -131q-34 -73 -62 -117q-33 -53 -73 -98q-8 -10 -32 -28q-19 -16 -36 -17l-14 6l-6 14l10 48l84 330l-4 2q-94 -19 -150 -27v-14q38 0 49 -4q11 -5 11 -23l-2 -15z" />
    <glyph glyph-name="v" unicode="v" horiz-adv-x="443" 
d="M20 402l12 1l17 1q44 0 53 -49l9 -49l8 -63l9 -104l7 -145q0 -12 10 -12q5 0 19 8q38 34 103 108q65 75 110 154q47 82 47 125q0 24 -14 43q-13 18 -41 18q-15 0 -26 -8q-11 -9 -11 -26l2 -8l2 -9q3 -11 13 -18l17 -17q8 -7 9 -18q0 -24 -23 -70q-23 -44 -62 -99
q-40 -54 -83 -97q0 111 -16 211q-12 77 -33 157q-1 1 -1 2q-1 1 -7 1q-20 0 -72 -11l-58 -12v-14z" />
    <glyph glyph-name="w" unicode="w" horiz-adv-x="668" 
d="M92 342l13 -105l8 -78l5 -81l5 -90l3 -3q1 -1 5 -1q14 0 15 4l196 340l29 -332q0 -16 8 -16q10 0 17 10q19 21 55 63q30 36 58 73q58 78 100 153q39 71 39 110q0 12 -3 19q-13 33 -49 33q-18 0 -28 -10q-12 -12 -13 -27l7 -13l16 -19q13 -14 18 -23q4 -8 4 -17
q0 -21 -18 -56q-22 -39 -51 -79l-97 -125l-32 362q-1 1 -1 2l-1 1q-2 2 -5 2q-8 0 -10 -5l-196 -305q0 68 -11 148q-9 65 -28 155q0 7 -7 7q-19 0 -71 -11l-56 -12v-14h15q35 0 45 -10t16 -50z" />
    <glyph glyph-name="x" unicode="x" horiz-adv-x="443" 
d="M197 211l-36 -52l-41 -58l-36 -44q-10 -9 -21 -12q-7 1 -25 11q-18 8 -24 8q-41 0 -41 -37q0 -16 15 -27q14 -12 32 -12q39 0 66 35l46 56q23 26 39 48q15 20 34 49l35 -137q8 -30 21 -40q14 -11 38 -11q22 0 45 22q15 13 21 22l3 3q10 13 16 21l32 46l-14 9l-20 -25
l-28 -32q-9 -9 -20 -11q-14 0 -22 15q-3 6 -7 20l-6 24l-18 74l-19 88l17 28l30 46q10 14 15 19l5 5l12 12q9 9 20 9q5 0 23 -8q4 -2 11 -4l2 -1q5 -2 13 -3q15 0 26 11q9 11 9 26q0 16 -12 26q-12 9 -29 9q-25 0 -45 -13q-20 -12 -41 -36q-14 -18 -19 -25q-3 -5 -12 -18
q-1 -2 -6 -10l-27 -40l-8 44l-13 57q-4 15 -16 31q-12 12 -31 12l-16 -2q-66 -15 -106 -33l2 -13l30 6l27 5q14 0 23 -9q9 -12 14 -32l13 -52l13 -51z" />
    <glyph glyph-name="y" unicode="y" horiz-adv-x="443" 
d="M127 330q10 -28 31 -108q14 -50 17 -65q1 -4 6 -27q6 -27 11 -48q11 -58 11 -86q-2 -7 -6 -17q-5 -9 -17 -26q-22 -33 -48 -62q-27 -31 -44 -39l-5 -1l-7 -1q-7 0 -24 11q-16 10 -23 12l-17 4q-16 -2 -27 -12q-10 -10 -10 -27q0 -19 14 -31t32 -12q42 0 106 60l7 7
q6 7 10 11q7 7 21 25l52 67q31 40 56 80q40 61 70 117q34 66 53 112q22 51 28 87v20q0 58 -51 58q-16 0 -29 -10q-12 -10 -14 -27q1 -10 8 -18q5 -10 21 -20l22 -17q6 -6 6 -17q-10 -78 -123 -258q-14 90 -35 173q-19 74 -43 142q-21 54 -28 54l-69 -11l-75 -14v-18l37 4
q32 0 47 -17t29 -55z" />
    <glyph glyph-name="z" unicode="z" horiz-adv-x="389" 
d="M90 72l289 344v12h-283l-32 -115l16 -4l6 13l12 22q5 8 18 16q11 7 48 7h143l-309 -371l8 -10q19 16 47 16q24 0 44 -10q8 -4 21 -10q11 -5 15 -7q18 -10 26 -15q4 -2 5 -3q20 -11 21 -12q19 -10 39 -17q21 -10 46 -10q18 0 29 4q62 20 62 78q-3 29 -35 29q-13 0 -21 -7
q-10 -7 -12 -24l7 -16l5 -13l2 -14q0 -8 -9 -12t-21 -4h-7q-17 3 -36 25l-38 45q-5 7 -17 18q-1 2 -5 5q-8 8 -22 18q-25 18 -62 22z" />
    <glyph glyph-name="braceleft" unicode="{" horiz-adv-x="400" 
d="M406 688q-62 0 -97 -16q-36 -16 -54 -42q-20 -27 -33 -70l-23 -78l-16 -66q-2 -8 -7 -29q-3 -10 -4 -14q-9 -28 -15 -42q-14 -32 -35 -50q-23 -20 -58 -27q51 -7 51 -66q0 -20 -8 -54l-25 -84l-25 -84q-8 -37 -8 -58q0 -40 26 -63q26 -24 81 -24l10 1h10l2 10
q-53 14 -53 64q0 16 3 28q1 4 4 20q2 9 3 15l24 76q20 57 25 82q7 31 7 65q0 52 -52 74q59 8 84 58q23 47 47 147q23 101 48 153q26 52 86 62z" />
    <glyph glyph-name="bar" unicode="|" horiz-adv-x="275" 
d="M104 666v-686h66v686h-66z" />
    <glyph glyph-name="braceright" unicode="}" horiz-adv-x="400" 
d="M-10 -180q63 0 99 16t55 43q19 26 32 71l21 75l18 68q15 58 26 84q15 32 35 50q21 20 58 27q-53 8 -53 64q0 23 8 53l25 82l26 87q8 37 8 60q0 43 -27 65q-28 21 -98 21l-4 -10q52 -13 52 -65q0 -28 -8 -65q-6 -26 -11 -39q-3 -7 -8 -25q-3 -10 -6 -18l-24 -77
q-5 -18 -7 -31q-2 -14 -2 -30q0 -27 14 -44q14 -19 41 -30q-58 -7 -84 -57q-27 -52 -49 -151q-22 -100 -47 -151q-26 -51 -86 -61z" />
    <glyph glyph-name="asciitilde" unicode="~" horiz-adv-x="541" 
d="M39 232l37 -50q29 72 92 72q23 0 49 -8l3 -1q19 -7 30 -12q13 -7 23 -12l57 -25q26 -10 49 -10q17 0 33 6q17 7 30 16q29 20 60 63l-37 51q-22 -38 -44 -54q-14 -10 -22 -13q-13 -5 -24 -5q-12 0 -22 2q-7 1 -24 8q-10 3 -28 11q-9 4 -29 14q-33 16 -59 24q-28 9 -53 9
q-73 0 -121 -86z" />
    <glyph glyph-name="quotesinglbase" unicode="&#x201a;" horiz-adv-x="250" 
d="M25 53q1 -14 7 -24l17 -20l9 -9l6 -6l1 -2q5 -8 5 -17q0 -41 -74 -88l10 -18q48 24 89 68q40 43 40 90q0 35 -18 54q-17 19 -43 19q-22 0 -35 -13q-14 -14 -14 -34z" />
    <glyph glyph-name="florin" unicode="&#x192;" 
d="M240 412h-109l-6 -31h111l-39 -340q-12 -105 -19 -127q-15 -72 -65 -72l-7 1l-4 1l-8 11l6 15l7 17q0 20 -10 33q-10 12 -28 12l-3 2q-19 0 -30 -17t-11 -38q0 -26 23 -44q13 -10 26 -14q15 -5 30 -5q52 0 89 45q36 42 55 94q9 25 16 47l2 7q4 19 5 28q4 11 10 64l39 280
h123l6 31h-125q12 91 23 152q8 43 26 64q18 24 41 24q24 0 24 -9q-1 -1 -1 -3q-3 -9 -6 -16q-7 -13 -7 -22q5 -30 41 -38q18 2 30 14q11 13 11 33q0 27 -18 48q-20 20 -52 23q-151 0 -196 -270z" />
    <glyph glyph-name="quotedblbase" unicode="&#x201e;" horiz-adv-x="557" 
d="M297 55q0 -11 6 -22q4 -10 17 -21l17 -17q5 -8 5 -18q0 -37 -76 -86l9 -20q33 16 63 41q27 23 47 55q19 31 19 64q0 32 -17 52q-16 19 -41 19q-22 0 -35 -13q-14 -14 -14 -34zM88 55q0 -11 5 -21q4 -9 18 -21l16 -18q6 -8 6 -18q0 -22 -22 -44q-19 -19 -54 -44l9 -18
q37 18 62 41q30 27 48 56q19 31 19 63q0 33 -17 53q-18 18 -43 18q-21 0 -34 -13t-13 -34z" />
    <glyph glyph-name="ellipsis" unicode="&#x2026;" horiz-adv-x="889" 
d="M113 100q-23 0 -39 -16q-17 -17 -17 -41q0 -21 17 -38t39 -17q23 0 39 16t16 39q0 25 -16 41t-39 16zM410 100q-23 0 -39 -16q-17 -17 -17 -41q0 -23 17 -40t39 -17q21 0 38 17t17 40t-17 40t-38 17zM705 98q-21 0 -38 -17t-17 -40q0 -21 17 -38t38 -17q24 0 41 17
q16 16 16 38q0 23 -17 40t-40 17z" />
    <glyph glyph-name="dagger" unicode="&#x2020;" 
d="M285 447q-39 0 -54 5q-2 1 -8 3q-4 2 -8 3q-4 2 -7 3q-10 3 -14 5q-9 5 -15 6q-18 5 -31 5q-43 0 -48 -41q5 -41 48 -41q19 3 41 12q16 9 36 14q10 3 26 5h1h27q-13 -103 -74 -164q4 -32 4 -80q0 -21 -2 -55q-2 -27 -6 -55q-2 -11 -3 -24q-3 -23 -5 -32q-5 -28 -9 -44
l-28 -132h22l23 101q12 60 31 128q16 55 32 97q19 49 43 94q-16 22 -16 70q0 19 3 44q4 34 7 52q17 0 45 -5l53 -15l46 -13q41 0 41 43q0 41 -56 41l-40 -12l-39 -14q-15 -4 -48 -4q7 32 19 61q12 28 29 55q19 29 22 46v12q0 22 -12 32q-13 11 -29 11q-19 0 -33 -14t-14 -41
l8 -91q0 -23 -8 -71z" />
    <glyph glyph-name="daggerdbl" unicode="&#x2021;" 
d="M285 447q-23 0 -48 5l-45 15q-29 9 -38 10q-49 0 -54 -39q2 -16 14 -29q12 -14 32 -14q13 0 44 11l45 17q20 5 46 5q-9 -56 -31 -100q-22 -46 -45 -64q14 -50 14 -86q0 -10 -2 -30v-3q-1 -18 -6 -49l-18 -2q-17 1 -28 5l-33 11l-34 11q-11 4 -17 4h-13q-22 0 -35 -13
t-13 -30q1 -16 14 -26q13 -11 34 -11q16 0 41 9l43 15q25 5 55 5q-4 -36 -14 -54l-30 -53q-19 -33 -24 -53l-2 -14q0 -21 13 -31q11 -12 28 -12q20 0 33 13q13 11 16 36l-4 40l-6 52q1 13 5 39q1 13 5 37q34 0 47 -4l40 -13q26 -9 45 -12q27 0 40 10t13 27q0 18 -14 32
q-14 13 -35 13l-24 -3l-30 -12l-38 -12q-13 -4 -41 -4q23 114 77 162q-1 2 -4 15q-7 27 -9 36q-5 25 -5 35l12 82q34 0 51 -4q21 -5 47 -15l5 -2q11 -4 16 -5q6 -2 16 -4q27 0 40 12q14 12 14 30t-14 29q-14 10 -35 10q-17 0 -43 -10l-47 -15q-22 -5 -46 -5q5 23 9 39
q0 1 2 6q4 15 6 19l4 8q8 14 10 17q2 4 12 18l2 3q18 26 23 48v14q0 21 -12 33t-31 12q-17 0 -31 -14q-14 -16 -14 -45l4 -34q4 -19 4 -48q0 -14 -2 -36q-2 -18 -6 -40z" />
    <glyph glyph-name="circumflex" unicode="&#x2c6;" horiz-adv-x="332" 
d="M90 492h39l137 104l84 -104h35l-88 168h-49z" />
    <glyph glyph-name="perthousand" unicode="&#x2030;" horiz-adv-x="1000" 
d="M551 330q-49 0 -93 -34q-46 -35 -68 -82q-12 -24 -19 -50q-6 -24 -6 -49q0 -51 30 -89q30 -39 85 -46q29 0 61 17q31 16 54 47q24 29 39 73q14 47 14 92q0 53 -24 87t-73 34zM559 301q66 0 66 -88q0 -44 -16 -89q-17 -48 -45 -79q-28 -32 -58 -37q-68 0 -68 76
q0 44 19 95q18 53 47 88q28 34 55 34zM914 330q-48 0 -95 -35q-42 -31 -66 -81q-24 -49 -24 -99q0 -51 29 -89q29 -39 86 -46q44 0 89 39q44 38 63 96q16 47 16 94q0 55 -24 88q-25 33 -74 33zM922 303q66 0 66 -90q0 -44 -16 -89q-16 -46 -44 -77q-26 -32 -59 -37
q-68 0 -68 76q0 42 18 94q18 53 47 88t56 35zM492 631l2 -2l-387 -649h47l432 725h-45l-77 -70q-25 -19 -52 -24l-39 -4q-26 0 -50 11q-18 7 -48 32q-29 26 -66 26q-53 0 -93 -31q-41 -32 -65 -81q-12 -24 -19 -50q-8 -26 -9 -49q0 -53 32 -93q31 -38 74 -46q49 0 90 32
t65 86q23 54 23 109l-2 45q23 -9 38 -12q12 -4 34 -4q39 0 66 13q28 12 49 36zM281 598q1 -3 1 -8l3 -18v-19q0 -24 -5 -49q-4 -22 -15 -46q-20 -49 -51 -77q-32 -29 -62 -29q-58 0 -58 78q0 16 5 41q4 19 14 46q7 23 18 43q9 18 24 39q26 38 50 49h6q7 0 16 -9l15 -14
l19 -9q18 -8 20 -18z" />
    <glyph glyph-name="Scaron" unicode="&#x160;" horiz-adv-x="534" 
d="M357 662q-23 4 -32 4h-16q-58 0 -99 -26t-61 -64t-20 -80q0 -19 6 -39q4 -19 15 -37q19 -32 79 -92q26 -26 50 -53q4 -4 15 -16q15 -18 19 -23q26 -35 29 -68q0 -76 -38 -114t-91 -38q-48 4 -78 25q-25 11 -45 53q-13 27 -16 44q-6 23 -6 44l2 23l-19 2l-35 -223h19
q6 34 33 34q10 0 30 -5l46 -14q9 -4 20 -7q2 -1 3 -1q5 -2 24 -6q22 -5 36 -5q26 0 48 6q23 6 48 18q44 22 76 69q31 46 31 115q0 34 -15 67q-14 30 -35 57q-15 20 -65 68l-67 67q-16 19 -24 41q-9 20 -9 41q0 24 9 43t25 33q28 28 77 28q55 0 89 -37t34 -125l18 -2l41 199
l-24 -2q-16 -22 -46 -25q-14 2 -19 4q-4 1 -18 5l-5 2l-4 2q-15 4 -20 5zM538 876h-44l-154 -106l-95 106h-39l99 -171h55z" />
    <glyph glyph-name="guilsinglleft" unicode="&#x2039;" horiz-adv-x="332" 
d="M51 213l50 -63l61 -78q28 -35 37 -39q3 0 4 6q0 16 -15 49l-63 129l137 144q15 17 15 32q0 3 -4 7q-7 0 -27 -15l-97 -84q-10 -8 -39 -31l-9 -7q-22 -17 -25 -19q-20 -16 -25 -19v-12z" />
    <glyph glyph-name="OE" unicode="&#x152;" horiz-adv-x="943" 
d="M811 619q44 0 65 -7q22 -8 32 -28q11 -24 11 -58l-1 -24h16l31 150h-377l-66 6q-52 6 -84 6q-83 0 -153 -37q-71 -38 -124 -101q-53 -65 -81 -140q-16 -39 -24 -79q-9 -39 -9 -77q0 -68 28 -121q15 -30 32 -47q20 -19 45 -36q26 -17 55 -26q27 -10 61 -10l117 5l127 5
h322l64 166l-15 6q-71 -109 -174 -131q-21 -6 -37 -7q-21 -3 -57 -3l-27 2q-36 0 -50 7q-17 6 -17 24l6 28l63 236l103 -6q57 0 57 -52q0 -11 -2 -25q-1 -10 -6 -22l20 -2l66 230l-17 4l-18 -36q-7 -18 -15 -27q-7 -10 -25 -18q-16 -9 -36 -9q-61 -6 -117 -6l24 83l22 81
l20 73q11 23 31 23h114zM547 527l-100 -363q-20 -75 -55 -107q-35 -34 -93 -34q-143 0 -143 176q0 60 18 130q19 74 37 110q48 99 108 147q59 47 119 47q52 0 82 -21q29 -21 29 -59z" />
    <glyph glyph-name="quoteleft" unicode="&#x2018;" horiz-adv-x="332" 
d="M279 482q0 15 -6 25q-5 7 -18 20l-16 17q-5 8 -5 17q0 39 77 87l-10 18q-103 -53 -131 -162q0 -30 18 -50t41 -20q12 0 22 5q10 6 14 9q14 14 14 34z" />
    <glyph glyph-name="quoteright" unicode="&#x2019;" horiz-adv-x="332" 
d="M180 619q1 -14 7 -23q6 -10 17 -21l16 -17q5 -8 5 -17q0 -38 -75 -88l10 -17q25 13 32 18q14 9 28 22q15 13 28 28q12 12 22 27q19 31 19 63t-17 52q-18 18 -43 18q-22 0 -35 -12q-14 -12 -14 -33z" />
    <glyph glyph-name="quotedblleft" unicode="&#x201c;" horiz-adv-x="557" 
d="M275 482q-1 13 -7 24l-17 20l-16 18q-5 8 -5 17q0 23 24 47q22 21 51 40l-10 18q-104 -53 -131 -162q0 -17 5 -29q6 -14 14 -22q17 -19 42 -19q12 0 22 5q10 6 14 9q14 14 14 34zM484 482q0 15 -6 25q-5 9 -18 20l-16 17q-5 8 -5 17q0 41 75 87l-10 18q-20 -10 -56 -37
q-29 -26 -48 -52q-11 -17 -15 -28q-6 -15 -8 -28l-2 -17q0 -32 19 -51q16 -19 40 -19q12 0 22 5q10 6 14 9q14 14 14 34z" />
    <glyph glyph-name="quotedblright" unicode="&#x201d;" horiz-adv-x="557" 
d="M391 619q0 -13 6 -22q4 -10 18 -22l16 -17q5 -8 5 -17q0 -37 -77 -88l10 -17q52 26 91 67q38 43 38 91q0 32 -17 52q-18 18 -43 18q-19 0 -33 -12t-14 -33zM182 619q0 -15 6 -24q3 -7 16 -20q5 -5 9 -8q5 -5 7 -9q5 -8 5 -17q0 -38 -75 -88l10 -17q25 13 32 18
q14 9 28 22q15 13 28 28q12 12 22 27q19 31 19 63t-17 52q-18 18 -43 18q-20 0 -33 -12q-14 -12 -14 -33z" />
    <glyph glyph-name="bullet" unicode="&#x2022;" horiz-adv-x="350" 
d="M174 461q-34 0 -66 -18q-33 -20 -50 -50q-19 -31 -19 -67q0 -35 19 -66q18 -32 50 -50q31 -19 66 -19q37 0 68 18q30 16 51 50q18 32 18 67q0 56 -40 96q-40 39 -97 39z" />
    <glyph glyph-name="endash" unicode="&#x2013;" horiz-adv-x="889" 
d="M2 242l-8 -45h893l8 45h-893z" />
    <glyph glyph-name="emdash" unicode="&#x2014;" 
d="M-6 197h502l8 45h-502z" />
    <glyph glyph-name="tilde" unicode="&#x2dc;" horiz-adv-x="332" 
d="M100 518h29q12 45 51 45q14 0 36 -5l42 -15l41 -16q6 -2 15 -4l3 -1q2 0 9 -1q3 0 8 -1q34 0 56 24q23 24 36 79h-28q-8 -22 -18 -32q-11 -11 -28 -13q-16 0 -30 6l-40 16q-3 1 -11 5q-13 5 -15 6q-7 3 -21 6q-19 6 -38 6q-75 0 -97 -105z" />
    <glyph glyph-name="trademark" unicode="&#x2122;" horiz-adv-x="980" 
d="M29 564h22q8 42 30 55q22 14 52 14h33v-289v-35q0 -25 -10 -31q-10 -7 -39 -10v-20h170v20q-38 4 -42 10q-5 5 -9 38l2 28v289q39 0 64 -5q20 -4 31 -18q10 -13 22 -46h20v88h-346v-88zM418 652v-19q32 0 51 -19t19 -50v-220l-2 -40q-3 -12 -14 -23t-36 -11v-22h130v20
q-33 3 -43 18q-9 15 -9 58v213l150 -311h12l154 309v-211l-1 -45q-1 -14 -5 -19q-5 -7 -12 -8l-31 -4v-20h170v22q-24 0 -36 5q-10 4 -13 18l-2 51v209q0 42 10 61t47 19v19h-103l-161 -308l-154 308h-121z" />
    <glyph glyph-name="scaron" unicode="&#x161;" horiz-adv-x="388" 
d="M418 659h-38l-137 -104l-83 104h-35l87 -168h49zM228 267q-26 32 -41 66q-4 9 -7 26q0 28 18 44q17 15 42 15q79 -7 90 -115h16l19 138l-13 2q-7 -16 -30 -19l-43 8q-27 7 -52 7q-49 0 -83 -29q-34 -30 -39 -80q0 -31 17 -57q15 -28 51 -75q35 -48 48 -75q6 -15 6 -35
q0 -33 -20 -55t-55 -25q-34 3 -54 23q-19 19 -27 44q-12 32 -20 70h-16l-19 -159h15q8 20 28 20q12 0 43 -9q32 -9 50 -9q50 0 93 24q44 24 56 80l2 22q0 38 -14 64q-11 20 -61 89z" />
    <glyph glyph-name="guilsinglright" unicode="&#x203a;" horiz-adv-x="332" 
d="M281 225l-32 41l-45 55l-36 46q-23 35 -39 35l-2 -2q-2 -2 -2 -4l18 -46l64 -127l-137 -145q-16 -16 -19 -35q2 -4 6 -8q13 5 29 18q113 102 195 162v10z" />
    <glyph glyph-name="oe" unicode="&#x153;" horiz-adv-x="668" 
d="M406 359q-9 38 -42 60q-34 22 -73 22q-27 0 -51 -7q-23 -7 -50 -22q-48 -27 -84 -69q-37 -43 -61 -100q-11 -27 -18 -54q-7 -25 -7 -50q0 -31 10 -57q11 -29 28 -49q18 -22 45 -33q27 -12 61 -12q45 0 76 18q30 18 63 51q32 -69 103 -69q46 0 101 29q52 28 97 77l-10 11
l-36 -27l-38 -26q-7 -4 -11 -7l-8 -4q-10 -4 -17 -6q-6 -2 -15 -3l-3 -1q-10 -2 -15 -2l-21 4q-27 5 -42 27q-15 23 -15 61q0 6 2 19v3q1 8 5 24q2 11 6 20q2 2 3 6l23 8l41 9l47 15q58 22 103 59q42 36 42 89q0 32 -20 50q-21 18 -55 18q-47 0 -84 -19q-38 -20 -80 -63z
M393 215q7 42 33 89q24 45 58 79q33 33 69 33q12 -1 20 -13q7 -10 7 -30q0 -63 -55 -100q-58 -39 -132 -58zM166 8q-64 0 -64 99q0 30 6 58q5 29 15 60q27 83 72 138q43 55 94 55q53 -11 53 -74l-2 -32l-6 -32l-9 -39l-9 -36q-22 -83 -61 -141q-38 -56 -89 -56z" />
    <glyph glyph-name="Ydieresis" unicode="&#x178;" horiz-adv-x="658" 
d="M170 561l74 -258l-62 -217q-12 -39 -35 -54q-28 -16 -69 -16v-16h289v16q-33 0 -53 3q-19 3 -27 11q-9 9 -10 25q2 13 8 41q0 2 2 11q4 17 6 24l25 86l26 88l207 256q42 50 52 59q15 11 30 17v15h-190v-15q30 0 49 -6q20 -6 20 -27q0 -17 -18 -43q-25 -37 -80 -104
l-90 -109l-58 213l-8 37q0 24 14 29q17 6 58 10v15h-240v-15l44 -8q10 -4 17 -17l1 -3l6 -12zM300 817q-21 0 -35 -14t-14 -34q0 -21 15 -35q16 -14 34 -14q19 0 36 14q15 14 15 35t-15 34q-17 14 -36 14zM501 817q-20 0 -34 -14t-14 -34q0 -21 14 -35t34 -14q21 0 35 14
t14 35q0 20 -14 34t-35 14z" />
    <glyph glyph-name="exclamdown" unicode="&#xa1;" horiz-adv-x="389" 
d="M168 -88q18 117 72 367l-17 6l-48 -131l-40 -95l-34 -78q-11 -24 -16 -35q-4 -9 -11 -27l-2 -7q-14 -43 -17 -66q4 -51 45 -51q50 0 68 117zM268 473q-23 0 -38 -15q-15 -16 -15 -38t16 -37q15 -16 37 -16q20 0 36 16t16 37t-15 37q-16 16 -37 16z" />
    <glyph glyph-name="cent" unicode="&#xa2;" 
d="M371 439l43 122h-31l-41 -122q-75 -8 -135 -53q-63 -47 -97 -116q-17 -33 -27 -67q-9 -31 -9 -64q0 -36 13 -66q12 -31 36 -51q24 -21 61 -30l-47 -135h31l47 131q40 0 79 15q40 14 69 38q31 25 49 55l-16 9q-27 -36 -68 -59t-74 -23l-25 6l136 391q30 0 35 -20l-5 -16
l-8 -21l-2 -13q1 -15 12 -26t25 -11q18 0 35 14q15 14 15 35l-3 19q-7 28 -37 43q-31 15 -61 15zM334 416l-133 -377q-39 32 -39 104q0 50 23 116q23 63 62 107q38 42 87 50z" />
    <glyph glyph-name="sterling" unicode="&#xa3;" 
d="M189 361h-109l-8 -43h112q0 -10 -2 -30q0 -4 -2 -16q-1 -6 -2 -13l-9 -74l-9 -72q-28 12 -60 12q-39 0 -65 -18q-25 -19 -25 -48l2 -14q5 -24 20 -37q17 -14 38 -14q26 0 54 17q28 18 46 46q77 -63 146 -63q52 0 89 28t52 68l-12 10q-20 -19 -41 -27q-22 -9 -52 -9
q-23 0 -65 11q-38 10 -90 29q47 92 73 214h125l7 43h-123l16 75q3 14 7 32q4 17 7 31l3 14q6 23 8 30q11 41 32 71q20 27 56 27q17 0 23 -11q7 -13 11 -35t11 -32q6 -10 26 -10q14 0 26 9q11 11 11 30q0 35 -28 57q-28 21 -66 21l-14 -1l-12 -1q-51 -10 -86 -42
q-34 -31 -57 -72q-21 -39 -34 -83zM146 70q-26 -51 -72 -56q-16 0 -30 12q-13 9 -13 21q0 23 15 36q13 13 38 13q39 0 62 -26z" />
    <glyph glyph-name="currency" unicode="&#xa4;" 
d="M76 449q-23 -30 -33 -64q-12 -34 -12 -74q0 -34 11 -65q11 -32 28 -53l-90 -91l47 -49l92 90q33 -25 64 -35q33 -12 75 -12q39 0 72 11q31 10 59 32l84 -86l48 49l-85 87q19 24 29 57q10 31 10 70q0 80 -47 139l93 94l-48 47l-96 -96q-52 37 -123 37q-66 0 -129 -39
l-98 98l-50 -47zM254 469q40 0 74 -19q35 -20 55 -55q19 -34 19 -75q0 -39 -19 -73q-20 -35 -55 -55t-74 -20t-74 20t-55 55t-20 73q0 40 20 75t55 55q34 19 74 19z" />
    <glyph glyph-name="yen" unicode="&#xa5;" 
d="M211 352h-139l-13 -41h164l2 -10l-22 -80h-164l-14 -39h166l-27 -94q-22 -72 -109 -72l-4 -16h285v16q-53 0 -73 9q-21 8 -21 32v2q2 13 5 24q3 17 9 38l19 61h180l12 39h-180l24 82l7 8h170l12 41h-152l183 227l36 39q14 12 37 20v14h-190v-14q68 0 68 -34
q0 -22 -25 -53l-32 -47l-40 -49l-47 -55l-45 -54l-28 106q-26 102 -42 146q0 24 19 31q20 9 57 9v14h-238v-14q45 -8 59 -14q15 -8 23 -34z" />
    <glyph glyph-name="brokenbar" unicode="&#xa6;" horiz-adv-x="279" 
d="M-23 -189h31l236 857h-33z" />
    <glyph glyph-name="section" unicode="&#xa7;" 
d="M248 398q-19 10 -49 10q-31 0 -56 -16t-39 -42t-14 -49q0 -49 13 -78q12 -31 27 -51l60 -68q42 -44 74 -92q21 -32 21 -65q0 -38 -28 -63t-69 -25q-10 0 -24 2q-11 1 -25 6q-24 8 -28 26q2 8 7 15l16 14q14 10 18 18q4 7 4 21q0 18 -14 30q-16 11 -37 11q-19 0 -34 -12
q-15 -13 -18 -35q0 -35 19 -60q19 -26 51 -42q33 -17 66 -17q38 0 73 19q36 18 58 49q22 29 22 67q0 66 -61 133l2 3l37 -7q45 0 79 33q35 34 35 97q0 44 -23 84q-24 40 -72 91q-47 50 -69 82q-23 32 -28 76q0 37 29 60q28 22 69 22q7 0 19 -2q4 -1 12 -4l11 -3
q14 -6 14 -23q0 -5 -12 -16q-12 -10 -17 -19q-6 -9 -6 -21q0 -20 15 -34q14 -13 34 -13t36 13q15 14 15 36q0 45 -25 68q-27 24 -54 31q-32 8 -42 8q-49 0 -82 -15q-34 -16 -54 -45t-20 -65q0 -37 18 -72q17 -36 48 -69zM191 385l22 2q29 0 54 -21q20 -16 59 -63
q49 -58 49 -114q0 -28 -18 -46q-17 -17 -44 -22q-49 0 -116 88q-51 65 -51 113q0 45 45 63z" />
    <glyph glyph-name="dieresis" unicode="&#xa8;" horiz-adv-x="332" 
d="M154 605q-21 0 -35 -14t-14 -34q0 -21 15 -35q16 -14 34 -14q19 0 36 14q15 14 15 35t-15 34q-17 14 -36 14zM355 605q-20 0 -34 -14t-14 -34q0 -21 14 -35t34 -14q21 0 35 14t14 35q0 20 -14 34t-35 14z" />
    <glyph glyph-name="copyright" unicode="&#xa9;" horiz-adv-x="760" 
d="M379 662q-92 0 -170 -45q-78 -44 -125 -124t-47 -171q0 -93 47 -170q47 -78 125 -124q77 -46 170 -46q94 0 171 46q77 47 123 124q46 76 46 170q0 92 -46 171q-46 77 -125 124q-78 45 -169 45zM379 623q80 0 150 -40q70 -41 110 -111q41 -71 41 -150q0 -81 -40 -149
q-40 -70 -111 -111t-150 -41q-80 0 -151 41q-70 41 -111 111t-41 149q0 80 41 151q40 69 111 110q70 40 151 40zM400 502q28 0 50 -9q23 -9 36 -22q11 -11 20 -29q6 -15 6 -28h17v74q-27 35 -117 35q-52 0 -102 -21t-82 -59t-37 -89l-1 -23q0 -86 53 -142t155 -56l10 2
q30 0 66 10q36 8 51 17q7 1 20 78h-16q-20 -42 -45 -61q-20 -14 -36 -19q-13 -4 -32 -4q-73 0 -110 46q-38 46 -38 134q0 80 38 124q38 42 94 42z" />
    <glyph glyph-name="ordfeminine" unicode="&#xaa;" horiz-adv-x="275" 
d="M289 645q-15 31 -57 31q-46 0 -90 -30q-22 -15 -39 -33q-20 -23 -32 -43q-15 -25 -22 -47q-8 -24 -8 -46q0 -32 17 -52q16 -19 46 -19q85 0 138 80l-7 -22q-1 -4 -3 -8q-2 -6 -3 -8q0 -1 -1 -7q0 -3 -1 -7q1 -12 7 -18q4 -4 10 -6l16 -6q23 0 40 16q6 5 27 27q4 5 23 24
l-8 11q-34 -39 -45 -39l-4 4l16 69l19 71l24 89h-12l-41 -2l-2 -2zM252 658q7 -1 12 -13q4 -9 4 -28q0 -38 -32 -94q-19 -37 -45 -60q-24 -24 -48 -24q-28 0 -28 43q1 20 8 43q6 20 14 34q24 44 50 72q28 29 51 29l9 -1z" />
    <glyph glyph-name="guillemotleft" unicode="&#xab;" 
d="M51 213l50 -63l61 -78q28 -35 37 -39q3 0 4 6q0 16 -15 49l-63 129l137 144q15 17 15 32q0 3 -4 7q-7 0 -27 -15l-97 -84q-10 -8 -39 -31l-9 -7q-22 -17 -25 -19q-20 -16 -25 -19v-12zM217 217l60 -76l53 -67q25 -34 37 -37l3 3q1 1 1 5q0 11 -16 47l-64 127l137 144
q19 19 19 33q0 6 -8 6l-27 -15q-46 -41 -110 -94q-55 -45 -85 -66v-10z" />
    <glyph glyph-name="logicalnot" unicode="&#xac;" horiz-adv-x="676" 
d="M86 385v-65h437v-213h67v278h-504z" />
    <glyph glyph-name="registered" unicode="&#xae;" horiz-adv-x="760" 
d="M379 666q-93 0 -170 -46q-78 -45 -124 -124q-46 -76 -46 -170q0 -92 46 -169q45 -78 124 -124q79 -47 170 -47t170 46q78 46 124 124q46 76 46 170q0 92 -46 171q-46 77 -125 124q-78 45 -169 45zM379 623q59 0 113 -22t97 -65t65 -97t22 -113q0 -83 -40 -150
q-40 -68 -108 -109q-67 -40 -149 -40q-78 0 -148 41q-70 40 -110 110q-41 70 -41 148q0 82 40 149q41 68 109 108q67 40 150 40zM221 496q35 -3 42 -10t7 -31v-226l-2 -45q-1 -13 -12 -18q-1 0 -2 -1q-7 -2 -12 -3q-14 -2 -21 -2v-15h160v15q-32 0 -41 10q-10 9 -10 31l2 26
v80h49l53 -87q27 -48 38 -60q12 -15 26 -15h65v11q-17 0 -131 160q37 12 59 40q21 29 21 62q0 40 -30 67t-86 27h-175v-16zM332 492l56 -2q12 -1 24 -8q14 -5 21 -25q8 -24 8 -49q0 -51 -25 -70q-11 -8 -20 -10l-35 -4h-29v168z" />
    <glyph glyph-name="degree" unicode="&#xb0;" horiz-adv-x="336" 
d="M116 772q-14 -16 -23 -33q-8 -18 -8 -32q0 -16 11 -30t28 -19l27 -2q33 0 62 17t47 42q17 26 17 51q0 16 -9 26q-8 11 -22 18q-15 7 -33 7q-21 0 -39 -7q-21 -8 -35 -18q-14 -9 -23 -20zM145 665q-24 6 -24 32q0 16 6 29l14 31q11 21 31 38q20 15 38 15l8 -1
q11 -1 16 -11q7 -7 7 -25q0 -17 -9 -41q-10 -23 -24 -40t-26 -23q-14 -6 -26 -6z" />
    <glyph glyph-name="plusminus" unicode="&#xb1;" horiz-adv-x="634" 
d="M38 138l-20 -64h504l21 64h-505zM347 422h-219l-21 -67h220l-51 -160h66l51 160h219l21 67h-219l50 158h-67z" />
    <glyph glyph-name="twosuperior" unicode="&#xb2;" horiz-adv-x="438" 
d="M203 563l-123 -446q-13 -47 -21 -65q-7 -16 -20 -23q-16 -9 -47 -13v-16h244v16l-24 3l-25 5q-9 4 -14 12q-6 10 -7 23l12 58l123 442q3 13 8 28q1 2 4 9q1 2 4 9q5 11 20 19q14 8 46 13v15h-246v-15q37 -5 53 -12q17 -8 17 -35q0 -14 -4 -27zM46 706l65 1l253 126
l34 -126h68l-45 159h-57z" />
    <glyph glyph-name="threesuperior" unicode="&#xb3;" horiz-adv-x="732" 
d="M686 566q10 35 26 52q13 14 54 19v15h-200v-15q37 0 53 -10t16 -39l-4 -37q-45 -200 -117 -403q-23 -59 -74 -91q-52 -34 -112 -34l-27 2q-49 6 -79 37q-15 15 -23 36t-8 45q6 57 21 114q3 10 5 20q8 30 11 41q9 32 24 81l37 126q18 65 41 89q23 23 70 23v15h-273v-15
q37 0 57 -9q19 -9 19 -36l-2 -26l-29 -99l-33 -111l-24 -100q-11 -51 -15 -100q0 -73 51 -120q51 -46 128 -54l35 -2q56 0 107 21q50 20 88 62t57 103l36 116l26 88l26 87zM232 706h65l253 132l34 -131h68l-45 165h-57z" />
    <glyph glyph-name="acute" unicode="&#xb4;" horiz-adv-x="872" 
d="M211 -18h19l223 454h4l51 -456h19l65 124l77 149l77 146l90 175q16 31 29 42q12 13 41 21v15h-185v-15q31 0 48 -11q16 -12 16 -32q0 -14 -8 -35l-46 -95l-63 -125l-56 -109l-34 -64l-41 406q0 40 19 52q20 11 49 15v13h-238v-15q38 0 55 -10q17 -11 17 -31l12 -86
l-170 -344h-4l-43 400q0 43 16 55q16 11 57 16v15h-237v-15q19 0 31 -3q14 -6 19 -11q12 -11 17 -43l20 -141l18 -138l17 -154zM342 704h39l137 104l84 -104h35l-88 168h-49z" />
    <glyph glyph-name="mu" unicode="&#xb5;" horiz-adv-x="600" 
d="M169 561l74 -258l-62 -217q-12 -39 -35 -54q-28 -16 -69 -16v-16h290l-1 16q-35 0 -53 3q-19 3 -27 12q-9 9 -10 24q2 13 8 41q0 2 2 11q4 17 6 24l25 86l27 88l207 256q42 50 52 59q15 11 30 17v15h-190v-15q30 0 49 -6q20 -6 20 -27q0 -17 -18 -43q-38 -51 -48 -64
q-3 -5 -16 -20l-16 -20l-90 -109l-59 213l-8 37q0 25 15 29q17 6 58 10v15h-240l-1 -15l44 -8q10 -4 17 -17l1 -3l6 -12zM237 704h40l137 104l84 -104h35l-88 168h-49z" />
    <glyph glyph-name="paragraph" unicode="&#xb6;" horiz-adv-x="402" 
d="M-4 490h65l253 127l34 -126h68l-45 159h-58zM227 438l-163 -22v-18h20q23 0 32 -4q11 -5 11 -19l-1 -8l-1 -8l-59 -218l-7 -32l-8 -36l-4 -30q0 -55 43 -55q75 0 144 114l-13 11q-22 -31 -43 -52q-26 -26 -41 -26q-13 3 -16 16q2 10 4 16q2 9 6 20l12 38z" />
    <glyph glyph-name="periodcentered" unicode="&#xb7;" horiz-adv-x="474" 
d="M111 338l-58 -229q-2 -10 -5 -22q-1 -5 -2 -8q-5 -27 -5 -36q0 -46 39 -53q71 0 127 59q25 25 65 86q22 34 33 52q9 15 21 36l2 4h4l-15 -58l-14 -67q-6 -29 -16 -59q6 -53 55 -53q25 0 47 15q20 13 37 36l49 66l-14 10l-18 -23l-23 -25l-23 -21q-12 -9 -22 -9
q-7 1 -10 14l3 12l3 13l94 354h-74q-23 -71 -51 -131q-34 -73 -62 -117q-33 -53 -73 -98q-8 -10 -32 -28q-19 -16 -36 -17l-14 6l-6 14l10 48l84 330l-4 2q-94 -19 -150 -27v-14q38 0 49 -4q11 -5 11 -23l-2 -15zM58 496l65 1l253 126l34 -126h68l-45 159h-58z" />
    <glyph glyph-name="periodcentered" unicode="&#x2219;" horiz-adv-x="474" 
d="M111 338l-58 -229q-2 -10 -5 -22q-1 -5 -2 -8q-5 -27 -5 -36q0 -46 39 -53q71 0 127 59q25 25 65 86q22 34 33 52q9 15 21 36l2 4h4l-15 -58l-14 -67q-6 -29 -16 -59q6 -53 55 -53q25 0 47 15q20 13 37 36l49 66l-14 10l-18 -23l-23 -25l-23 -21q-12 -9 -22 -9
q-7 1 -10 14l3 12l3 13l94 354h-74q-23 -71 -51 -131q-34 -73 -62 -117q-33 -53 -73 -98q-8 -10 -32 -28q-19 -16 -36 -17l-14 6l-6 14l10 48l84 330l-4 2q-94 -19 -150 -27v-14q38 0 49 -4q11 -5 11 -23l-2 -15zM58 496l65 1l253 126l34 -126h68l-45 159h-58z" />
    <glyph glyph-name="cedilla" unicode="&#xb8;" horiz-adv-x="656" 
d="M92 342l13 -105l8 -78l5 -81l5 -90l3 -3q1 -1 5 -1q14 0 15 4l196 340l29 -332q0 -16 8 -16q10 0 17 10q19 21 55 63q30 36 58 73q58 78 100 153q39 71 39 110q0 12 -3 19q-13 33 -49 33q-18 0 -28 -10q-12 -12 -13 -27l7 -13l16 -19q13 -14 18 -23q4 -8 4 -17
q0 -21 -18 -56q-22 -39 -51 -79l-97 -125l-32 362q-1 1 -1 2l-1 1q-2 2 -5 2q-8 0 -10 -5l-196 -305q0 68 -11 148q-9 65 -28 155q0 7 -7 7q-19 0 -71 -11l-56 -12v-14h15q35 0 45 -10t16 -50zM242 492h39l137 104l84 -104h35l-88 168h-49z" />
    <glyph glyph-name="onesuperior" unicode="&#xb9;" horiz-adv-x="418" 
d="M127 330q10 -28 31 -108q14 -50 17 -65q1 -4 6 -27q6 -27 11 -48q11 -58 11 -86q-2 -7 -6 -17q-5 -9 -17 -26q-22 -33 -48 -62q-27 -31 -44 -39l-5 -1l-7 -1q-7 0 -24 11q-16 10 -23 12l-17 4q-16 -2 -27 -12q-10 -10 -10 -27q0 -19 14 -31t32 -12q42 0 106 60l7 7
q6 7 10 11q7 7 21 25l52 67q31 40 56 80q40 61 70 117q34 66 53 112q22 51 28 87v20q0 58 -51 58q-16 0 -29 -10q-12 -10 -14 -27q1 -10 8 -18q5 -10 21 -20l22 -17q6 -6 6 -17q-10 -78 -123 -258q-14 90 -35 173q-19 74 -43 142q-21 54 -28 54l-69 -11l-75 -14v-18l37 4
q32 0 47 -17t29 -55zM102 492h39l137 104l84 -104h35l-88 168h-49z" />
    <glyph glyph-name="ordmasculine" unicode="&#xba;" horiz-adv-x="311" 
d="M264 676q-51 0 -97 -28q-45 -28 -74 -73q-29 -46 -29 -87q0 -33 24 -57q11 -10 29 -18q15 -7 37 -7q56 0 105 29q47 29 75 73q27 44 27 84q0 37 -26 61q-26 23 -71 23zM258 654q29 0 29 -49q0 -31 -14 -75q-15 -43 -40 -71q-26 -29 -52 -29q-13 0 -26 8q-13 7 -16 41
q0 31 17 76q16 41 43 71q25 28 59 28z" />
    <glyph glyph-name="guillemotright" unicode="&#xbb;" 
d="M447 223l-36 45l-40 49l-37 48q-23 35 -39 35l-4 -5q6 -25 18 -47l64 -127l-137 -145q-18 -21 -21 -37l6 -6q14 3 31 18l52 45l47 42l41 33l55 42v10zM279 221l-52 65q-44 52 -59 75q-27 36 -41 36l-2 -4q6 -25 18 -47l64 -127l-139 -145q-16 -19 -19 -37q0 -1 2 -3t4 -3
q13 5 29 18q129 113 195 162v10z" />
    <glyph glyph-name="onequarter" unicode="&#xbc;" horiz-adv-x="750" 
d="M141 635h35q19 0 19 -20v-4l-86 -273q-1 -2 -6 -17q-6 -15 -7 -16q-4 -8 -15 -10l-46 -8v-17h184l-2 17q-31 0 -39 4q-11 3 -12 16l18 60l91 295v6q0 8 -7 8l-57 -10l-70 -12v-19zM598 676l-455 -686h50l455 686h-50zM428 146l-12 -42h168l-33 -104h64l30 104h58l10 42
h-57l80 260h-37zM650 324l-58 -178h-129l185 182z" />
    <glyph glyph-name="onehalf" unicode="&#xbd;" horiz-adv-x="750" 
d="M584 676l-455 -686h51l455 686h-51zM141 635h35q19 0 19 -20v-4l-86 -273q-1 -2 -6 -17q-6 -15 -7 -16q-4 -8 -15 -10l-46 -8v-17h184l-2 17q-31 0 -39 4q-11 3 -12 16l18 60l91 295v6q0 8 -7 8l-57 -10l-70 -12v-19zM516 301q12 23 37 38q22 13 51 13q31 0 54 -20
q22 -19 22 -59q-3 -22 -23 -48q-16 -23 -56 -64l-146 -143v-18h233l33 78l-12 8q-10 -19 -24 -27q-16 -8 -50 -8l-98 2l-4 4l34 34q38 38 66 63l81 76q23 24 30 49l1 9l1 11q0 38 -24 69q-25 32 -72 36q-55 0 -93 -25q-41 -26 -57 -70z" />
    <glyph glyph-name="threequarters" unicode="&#xbe;" horiz-adv-x="750" 
d="M598 676l-455 -686h50l455 686h-50zM428 146l-12 -42h168l-33 -104h64l30 104h58l10 42h-57l80 260h-37zM650 324l-58 -178h-129l185 182zM131 607q38 36 70 36q25 0 39 -16q14 -17 14 -35q0 -40 -43 -61q-44 -23 -104 -33v-10q114 0 114 -93q0 -34 -23 -65
q-22 -31 -59 -31q-12 0 -19 4l-23 12l-23 13q-7 4 -19 4q-10 0 -20 -8q-10 -7 -10 -19q7 -22 22 -28t25 -8q11 -3 26 -3l39 4q60 7 104 51q42 44 42 103q0 67 -62 88q43 13 73 37q28 22 28 53q-3 35 -32 55q-28 19 -67 19q-65 0 -102 -61z" />
    <glyph glyph-name="questiondown" unicode="&#xbf;" 
d="M180 55q5 5 16 17q13 16 18 21q3 4 11 13q9 10 11 13q12 16 21 32q3 5 6 11q9 17 13 25q20 44 25 94l-18 2q-7 -54 -37 -96q-31 -40 -69 -72l-83 -69q-44 -38 -55 -69q-10 -25 -14 -59q0 -19 6 -35q5 -18 15 -31q23 -30 55 -44q32 -15 69 -15q35 0 70 11q33 11 54 35
q22 25 22 65q0 44 -41 49q-17 -2 -27 -10q-12 -11 -12 -25l10 -26q8 -19 8 -29q0 -21 -21 -34q-20 -13 -51 -13q-38 0 -58 24q-13 13 -18 29q-6 13 -6 33q0 35 21 73q18 34 59 80zM316 471q-22 0 -37 -15q-15 -16 -15 -38q0 -20 16 -35q15 -16 36 -16t37 15t16 36t-15 37
q-14 16 -38 16z" />
    <glyph glyph-name="Agrave" unicode="&#xc0;" horiz-adv-x="611" 
d="M367 668l-75 -129l-87 -153l-92 -158l-86 -142q-9 -15 -18 -27q-6 -9 -16 -20l-1 -2q-17 -18 -43 -21v-16h186v16q-60 0 -63 35q2 12 4 17l3 7q4 11 7 19l68 131h219q22 -110 22 -162q0 -26 -16 -36q-17 -11 -63 -11v-16h248v16l-40 6q-12 5 -19 21q-10 18 -17 59
l-93 566h-28zM324 521l45 -259h-195zM285 813l146 -108h30l-106 137q-29 35 -49 35q-16 0 -25 -10q-10 -10 -12 -27q4 -19 16 -27z" />
    <glyph glyph-name="Aacute" unicode="&#xc1;" horiz-adv-x="611" 
d="M367 668l-75 -129l-87 -153l-92 -158l-86 -142q-9 -15 -18 -27q-6 -9 -16 -20l-1 -2q-17 -18 -43 -21v-16h186v16q-60 0 -63 35q2 12 4 17l3 7q4 11 7 19l68 131h219q22 -110 22 -162q0 -26 -16 -36q-17 -11 -63 -11v-16h248v16l-40 6q-12 5 -19 21q-10 18 -17 59
l-93 566h-28zM324 521l45 -259h-195zM526 813q15 11 15 25t-11 27q-10 12 -26 12q-7 0 -14 -4l-17 -15l-18 -16l-136 -135h35z" />
    <glyph glyph-name="Acircumflex" unicode="&#xc2;" horiz-adv-x="611" 
d="M367 668l-75 -129l-87 -153l-92 -158l-86 -142q-9 -15 -18 -27q-6 -9 -16 -20l-1 -2q-17 -18 -43 -21v-16h186v16q-60 0 -63 35q2 12 4 17l3 7q4 11 7 19l68 131h219q22 -110 22 -162q0 -26 -16 -36q-17 -11 -63 -11v-16h248v16l-40 6q-12 5 -19 21q-10 18 -17 59
l-93 566h-28zM324 521l45 -259h-195zM235 705h39l137 104l84 -104h35l-88 168h-49z" />
    <glyph glyph-name="Atilde" unicode="&#xc3;" horiz-adv-x="611" 
d="M367 668l-75 -129l-87 -153l-92 -158l-86 -142q-9 -15 -18 -27q-6 -9 -16 -20l-1 -2q-17 -18 -43 -21v-16h186v16q-60 0 -63 35q2 12 4 17l3 7q4 11 7 19l68 131h219q22 -110 22 -162q0 -26 -16 -36q-17 -11 -63 -11v-16h248v16l-40 6q-12 5 -19 21q-10 18 -17 59
l-93 566h-28zM324 521l45 -259h-195zM239 731h29q12 45 51 45q14 0 36 -5l42 -15l41 -16q6 -2 15 -4l3 -1q2 0 9 -1q3 0 8 -1q34 0 56 24q23 24 36 79h-28q-8 -22 -18 -32q-11 -11 -28 -13q-16 0 -30 6l-40 16q-3 1 -11 5q-13 5 -15 6q-7 3 -21 6q-19 6 -38 6
q-74 0 -97 -105z" />
    <glyph glyph-name="Adieresis" unicode="&#xc4;" horiz-adv-x="611" 
d="M367 668l-75 -129l-87 -153l-92 -158l-86 -142q-9 -15 -18 -27q-6 -9 -16 -20l-1 -2q-17 -18 -43 -21v-16h186v16q-60 0 -63 35q2 12 4 17l3 7q4 11 7 19l68 131h219q22 -110 22 -162q0 -26 -16 -36q-17 -11 -63 -11v-16h248v16l-40 6q-12 5 -19 21q-10 18 -17 59
l-93 566h-28zM324 521l45 -259h-195zM293 818q-21 0 -35 -14t-14 -34q0 -21 15 -35q16 -14 34 -14q19 0 36 14q15 14 15 35t-15 34q-17 14 -36 14zM494 818q-20 0 -34 -14t-14 -34q0 -21 14 -35t34 -14q21 0 35 14t14 35q0 20 -14 34t-35 14z" />
    <glyph glyph-name="Aring" unicode="&#xc5;" horiz-adv-x="611" 
d="M367 668l-75 -129l-87 -153l-92 -158l-86 -142q-9 -15 -18 -27q-6 -9 -16 -20l-1 -2q-17 -18 -43 -21v-16h186v16q-60 0 -63 35q2 12 4 17l3 7q4 11 7 19l68 131h219q22 -110 22 -162q0 -26 -16 -36q-17 -11 -63 -11v-16h248v16l-40 6q-12 5 -19 21q-10 18 -17 59
l-93 566h-28zM324 521l45 -259h-195zM385 886q-28 0 -50 -13t-36 -36t-14 -50q0 -29 13 -51q14 -23 37 -36q23 -15 50 -15t51 15q23 14 36 36t13 51q0 28 -13 50q-13 23 -36 36q-22 13 -51 13zM385 851q28 0 47 -19t19 -47q0 -27 -19 -46t-47 -19q-26 0 -46 20t-20 45
q0 28 19 47t47 19z" />
    <glyph glyph-name="AE" unicode="&#xc6;" horiz-adv-x="889" 
d="M443 580l-396 -500l-16 -19l-19 -20l-20 -17q-10 -6 -19 -8v-16h185v16q-61 0 -64 29q0 15 21 49l31 45l42 53l33 42h189l-37 -130l-10 -39q-6 -21 -13 -29q-6 -8 -22 -13q-8 -2 -19 -4q-3 -1 -4 -1q-12 -2 -24 -2v-16h498l65 164l-18 4q-39 -61 -78 -87q-38 -27 -94 -40
q-1 0 -6 -1l-12 -3q-14 -2 -20 -2l-46 -3l-39 -1q-38 0 -51 7q-15 6 -15 25l8 41l62 224h28q75 0 99 -8q17 -4 25 -14q6 -10 6 -29l-2 -23l-3 -29l17 -4l68 232l-17 4q-12 -30 -24 -48t-23 -26q-12 -9 -19 -10l-20 -6q-22 -6 -125 -6l55 203l6 22q2 9 6 16q5 9 15 13
q8 4 27 4h92q39 0 64 -6q25 -7 38 -26t13 -56v-29l18 -2l33 152h-517v-15q27 0 47 -5q15 -6 15 -21q0 -14 -14 -31zM248 270l260 332h6l-92 -332h-174z" />
    <glyph glyph-name="Ccedilla" unicode="&#xc7;" horiz-adv-x="668" 
d="M162 508q-99 -127 -99 -256q0 -49 15 -93q15 -46 40 -78q25 -34 57 -56q33 -24 69 -31l-56 -90l9 -9l28 7q48 -5 48 -48q0 -36 -54 -36q-34 0 -65 14l-17 -29q42 -19 92 -19q47 0 81 18q34 19 38 53q0 37 -20 60q-20 22 -60 22l-26 -3l35 52q24 -4 51 -4q76 0 146 39
q68 37 126 110l-18 14q-27 -30 -54 -51q-30 -23 -58 -38q-61 -33 -116 -33q-20 0 -38 5q-20 6 -39 13q-48 22 -73 73q-26 51 -26 118q0 84 36 178q33 91 98 153q35 33 73 50q36 16 82 16q80 0 124 -41t44 -121l17 -2l37 199h-21q-8 -20 -37 -23l-49 9l-57 12q-16 4 -28 4
h-24q-94 0 -174 -44q-82 -44 -137 -114z" />
    <glyph glyph-name="Egrave" unicode="&#xc8;" horiz-adv-x="611" 
d="M203 535l-127 -457q-8 -29 -17 -40q-10 -12 -21 -15l-40 -7v-16h508l62 162l-17 8q-28 -40 -56 -68q-27 -27 -63 -44q-36 -16 -86 -21l-100 -6q-38 0 -54 10q-16 7 -16 27l6 34l62 226l30 -1l28 -1l26 -2l27 -2q28 0 41 -9q10 -9 10 -30q0 -18 -6 -56l20 -6l68 232l-19 4
q-18 -38 -29 -55t-27 -26q-13 -6 -22 -7q-15 -4 -28 -5q-16 -3 -63 -3h-13h-16h-19l66 235q5 13 11 16l26 7h41q116 0 153 -14q19 -10 26 -22q7 -13 7 -46v-35l22 -2l29 152h-496v-15q41 -5 57 -11q19 -7 19 -36q0 -22 -10 -55zM285 813l146 -108h30l-106 137q-29 35 -49 35
q-16 0 -25 -10q-10 -10 -12 -27q4 -19 16 -27z" />
    <glyph glyph-name="Eacute" unicode="&#xc9;" horiz-adv-x="611" 
d="M203 535l-127 -457q-8 -29 -17 -40q-10 -12 -21 -15l-40 -7v-16h508l62 162l-17 8q-28 -40 -56 -68q-27 -27 -63 -44q-36 -16 -86 -21l-100 -6q-38 0 -54 10q-16 7 -16 27l6 34l62 226l30 -1l28 -1l26 -2l27 -2q28 0 41 -9q10 -9 10 -30q0 -18 -6 -56l20 -6l68 232l-19 4
q-18 -38 -29 -55t-27 -26q-13 -6 -22 -7q-15 -4 -28 -5q-16 -3 -63 -3h-13h-16h-19l66 235q5 13 11 16l26 7h41q116 0 153 -14q19 -10 26 -22q7 -13 7 -46v-35l22 -2l29 152h-496v-15q41 -5 57 -11q19 -7 19 -36q0 -22 -10 -55zM537 813q15 11 15 25t-11 27q-10 12 -26 12
q-7 0 -14 -4l-17 -15l-18 -16l-136 -135h35z" />
    <glyph glyph-name="Ecircumflex" unicode="&#xca;" horiz-adv-x="611" 
d="M203 535l-127 -457q-8 -29 -17 -40q-10 -12 -21 -15l-40 -7v-16h508l62 162l-17 8q-28 -40 -56 -68q-27 -27 -63 -44q-36 -16 -86 -21l-100 -6q-38 0 -54 10q-16 7 -16 27l6 34l62 226l30 -1l28 -1l26 -2l27 -2q28 0 41 -9q10 -9 10 -30q0 -18 -6 -56l20 -6l68 232l-19 4
q-18 -38 -29 -55t-27 -26q-13 -6 -22 -7q-15 -4 -28 -5q-16 -3 -63 -3h-13h-16h-19l66 235q5 13 11 16l26 7h41q116 0 153 -14q19 -10 26 -22q7 -13 7 -46v-35l22 -2l29 152h-496v-15q41 -5 57 -11q19 -7 19 -36q0 -22 -10 -55zM260 705h39l137 104l84 -104h35l-88 168h-49z
" />
    <glyph glyph-name="Edieresis" unicode="&#xcb;" horiz-adv-x="611" 
d="M203 535l-127 -457q-8 -29 -17 -40q-10 -12 -21 -15l-40 -7v-16h508l62 162l-17 8q-28 -40 -56 -68q-27 -27 -63 -44q-36 -16 -86 -21l-100 -6q-38 0 -54 10q-16 7 -16 27l6 34l62 226l30 -1l28 -1l26 -2l27 -2q28 0 41 -9q10 -9 10 -30q0 -18 -6 -56l20 -6l68 232l-19 4
q-18 -38 -29 -55t-27 -26q-13 -6 -22 -7q-15 -4 -28 -5q-16 -3 -63 -3h-13h-16h-19l66 235q5 13 11 16l26 7h41q116 0 153 -14q19 -10 26 -22q7 -13 7 -46v-35l22 -2l29 152h-496v-15q41 -5 57 -11q19 -7 19 -36q0 -22 -10 -55zM314 818q-21 0 -35 -14t-14 -34q0 -21 15 -35
q16 -14 34 -14q19 0 36 14q15 14 15 35t-15 34q-17 14 -36 14zM515 818q-20 0 -34 -14t-14 -34q0 -21 14 -35t34 -14q21 0 35 14t14 35q0 20 -14 34t-35 14z" />
    <glyph glyph-name="Igrave" unicode="&#xcc;" horiz-adv-x="332" 
d="M203 563l-123 -446q-13 -47 -21 -65q-7 -16 -20 -23q-16 -9 -47 -13v-16h244v16l-24 3l-25 5q-9 4 -14 12q-6 10 -7 23l12 58l123 442q3 13 8 28q1 2 4 9q1 2 4 9q5 11 20 19q14 8 46 13v15h-246v-15q37 -5 53 -12q17 -8 17 -35q0 -14 -4 -27zM145 813l146 -108h30
l-106 137q-29 35 -49 35q-16 0 -25 -10q-10 -10 -12 -27q4 -19 16 -27z" />
    <glyph glyph-name="Iacute" unicode="&#xcd;" horiz-adv-x="332" 
d="M203 563l-123 -446q-13 -47 -21 -65q-7 -16 -20 -23q-16 -9 -47 -13v-16h244v16l-24 3l-25 5q-9 4 -14 12q-6 10 -7 23l12 58l123 442q3 13 8 28q1 2 4 9q1 2 4 9q5 11 20 19q14 8 46 13v15h-246v-15q37 -5 53 -12q17 -8 17 -35q0 -14 -4 -27zM397 813q15 11 15 25
t-11 27q-10 12 -26 12q-7 0 -14 -4l-17 -15l-18 -16l-136 -135h35z" />
    <glyph glyph-name="Icircumflex" unicode="&#xce;" horiz-adv-x="332" 
d="M203 563l-123 -446q-13 -47 -21 -65q-7 -16 -20 -23q-16 -9 -47 -13v-16h244v16l-24 3l-25 5q-9 4 -14 12q-6 10 -7 23l12 58l123 442q3 13 8 28q1 2 4 9q1 2 4 9q5 11 20 19q14 8 46 13v15h-246v-15q37 -5 53 -12q17 -8 17 -35q0 -14 -4 -27zM131 705h39l137 104
l84 -104h35l-88 168h-49z" />
    <glyph glyph-name="Idieresis" unicode="&#xcf;" horiz-adv-x="332" 
d="M203 563l-123 -446q-13 -47 -21 -65q-7 -16 -20 -23q-16 -9 -47 -13v-16h244v16l-24 3l-25 5q-9 4 -14 12q-6 10 -7 23l12 58l123 442q3 13 8 28q1 2 4 9q1 2 4 9q5 11 20 19q14 8 46 13v15h-246v-15q37 -5 53 -12q17 -8 17 -35q0 -14 -4 -27zM185 818q-21 0 -35 -14
t-14 -34q0 -21 15 -35q16 -14 34 -14q19 0 36 14q15 14 15 35t-15 34q-17 14 -36 14zM386 818q-20 0 -34 -14t-14 -34q0 -21 14 -35t34 -14q21 0 35 14t14 35q0 20 -14 34t-35 14z" />
    <glyph glyph-name="Eth" unicode="&#xd0;" horiz-adv-x="723" 
d="M78 109q-1 -1 -7 -20l-6 -18q-6 -19 -9 -23q-10 -17 -20 -22q-9 -4 -46 -10v-16h287q79 0 157 29q74 28 135 79q62 54 96 124t34 151q0 46 -11 90q-11 27 -36 68q-28 43 -88 76q-62 35 -156 35h-279v-14q76 0 76 -44v-14l-17 -76l-17 -64l-21 -73h-91l-12 -41h90l-21 -77
zM311 592q3 18 15 24q10 7 33 7l65 -4q27 0 49 -9q25 -12 42 -26q37 -31 55 -80t18 -102q0 -94 -40 -178q-41 -86 -113 -139q-73 -54 -165 -54l-34 -2q-29 0 -49 9q-19 7 -19 28l2 11l2 13l66 236h153l11 41h-152z" />
    <glyph glyph-name="Ntilde" unicode="&#xd1;" horiz-adv-x="668" 
d="M59 86q-10 -32 -28 -50q-19 -17 -52 -20v-16h199v16q-36 0 -55 11q-18 11 -18 37l28 107l32 116l34 129l33 113l229 -545h18l167 580q11 38 30 54q18 15 51 20v14h-200v-14q39 0 56 -11t17 -35l-4 -26l-110 -408h-4l-207 494h-160v-14q82 0 82 -60l-6 -31l-28 -96
l-36 -131l-38 -133zM278 729h29q12 45 51 45q14 0 36 -5l42 -15l41 -16q6 -2 15 -4l3 -1q2 0 9 -1q3 0 8 -1q34 0 56 24q23 24 36 79h-28q-8 -22 -18 -32q-11 -11 -28 -13q-16 0 -30 6l-40 16q-3 1 -11 5q-13 5 -15 6q-7 3 -21 6q-19 6 -38 6q-74 0 -97 -105z" />
    <glyph glyph-name="Ograve" unicode="&#xd2;" horiz-adv-x="723" 
d="M146 471q-41 -51 -63 -117q-13 -39 -18 -68q-6 -31 -6 -65q0 -62 24 -118q24 -55 73 -88q27 -18 55 -26q29 -9 64 -9q82 0 161 39q78 39 136 103q56 62 91 144q34 78 34 160q0 69 -25 120q-25 53 -69 81q-45 30 -97 37l-37 3q-100 0 -180 -60q-40 -30 -75 -63
q-40 -40 -68 -73zM217 408l2 5q9 23 15 35q14 26 21 38q26 43 56 73q32 35 70 55q37 19 76 19q41 0 72 -19q31 -20 47 -54q16 -33 16 -78q0 -47 -20 -144q-12 -60 -37 -114q-24 -53 -61 -104q-37 -49 -82 -77q-47 -29 -99 -29q-62 0 -95 41q-34 40 -34 115q0 29 4 53l2 14
q5 26 9 46q12 53 38 125zM340 811l146 -108h30l-106 137q-29 35 -49 35q-16 0 -25 -10q-10 -10 -12 -27q4 -19 16 -27z" />
    <glyph glyph-name="Oacute" unicode="&#xd3;" horiz-adv-x="723" 
d="M146 471q-41 -51 -63 -117q-13 -39 -18 -68q-6 -31 -6 -65q0 -62 24 -118q24 -55 73 -88q27 -18 55 -26q29 -9 64 -9q82 0 161 39q78 39 136 103q56 62 91 144q34 78 34 160q0 69 -25 120q-25 53 -69 81q-45 30 -97 37l-37 3q-100 0 -180 -60q-40 -30 -75 -63
q-40 -40 -68 -73zM217 408l2 5q9 23 15 35q14 26 21 38q26 43 56 73q32 35 70 55q37 19 76 19q41 0 72 -19q31 -20 47 -54q16 -33 16 -78q0 -47 -20 -144q-12 -60 -37 -114q-24 -53 -61 -104q-37 -49 -82 -77q-47 -29 -99 -29q-62 0 -95 41q-34 40 -34 115q0 29 4 53l2 14
q5 26 9 46q12 53 38 125zM582 813q15 11 15 25t-11 27q-10 12 -26 12q-7 0 -14 -4l-17 -15l-18 -16l-136 -135h35z" />
    <glyph glyph-name="Ocircumflex" unicode="&#xd4;" horiz-adv-x="723" 
d="M146 471q-41 -51 -63 -117q-13 -39 -18 -68q-6 -31 -6 -65q0 -62 24 -118q24 -55 73 -88q27 -18 55 -26q29 -9 64 -9q82 0 161 39q78 39 136 103q56 62 91 144q34 78 34 160q0 69 -25 120q-25 53 -69 81q-45 30 -97 37l-37 3q-100 0 -180 -60q-40 -30 -75 -63
q-40 -40 -68 -73zM217 408l2 5q9 23 15 35q14 26 21 38q26 43 56 73q32 35 70 55q37 19 76 19q41 0 72 -19q31 -20 47 -54q16 -33 16 -78q0 -47 -20 -144q-12 -60 -37 -114q-24 -53 -61 -104q-37 -49 -82 -77q-47 -29 -99 -29q-62 0 -95 41q-34 40 -34 115q0 29 4 53l2 14
q5 26 9 46q12 53 38 125zM320 703h39l137 104l84 -104h35l-88 168h-49z" />
    <glyph glyph-name="Otilde" unicode="&#xd5;" horiz-adv-x="723" 
d="M146 471q-41 -51 -63 -117q-13 -39 -18 -68q-6 -31 -6 -65q0 -62 24 -118q24 -55 73 -88q27 -18 55 -26q29 -9 64 -9q82 0 161 39q78 39 136 103q56 62 91 144q34 78 34 160q0 69 -25 120q-25 53 -69 81q-45 30 -97 37l-37 3q-100 0 -180 -60q-40 -30 -75 -63
q-40 -40 -68 -73zM217 408l2 5q9 23 15 35q14 26 21 38q26 43 56 73q32 35 70 55q37 19 76 19q41 0 72 -19q31 -20 47 -54q16 -33 16 -78q0 -47 -20 -144q-12 -60 -37 -114q-24 -53 -61 -104q-37 -49 -82 -77q-47 -29 -99 -29q-62 0 -95 41q-34 40 -34 115q0 29 4 53l2 14
q5 26 9 46q12 53 38 125zM315 729h29q12 45 51 45q14 0 36 -5l42 -15l41 -16q6 -2 15 -4l3 -1q2 0 9 -1q3 0 8 -1q34 0 56 24q23 24 36 79h-28q-8 -22 -18 -32q-11 -11 -28 -13q-16 0 -30 6l-40 16q-3 1 -11 5q-13 5 -15 6q-7 3 -21 6q-19 6 -38 6q-74 0 -97 -105z" />
    <glyph glyph-name="Odieresis" unicode="&#xd6;" horiz-adv-x="723" 
d="M146 471q-41 -51 -63 -117q-13 -39 -18 -68q-6 -31 -6 -65q0 -62 24 -118q24 -55 73 -88q27 -18 55 -26q29 -9 64 -9q82 0 161 39q78 39 136 103q56 62 91 144q34 78 34 160q0 69 -25 120q-25 53 -69 81q-45 30 -97 37l-37 3q-100 0 -180 -60q-40 -30 -75 -63
q-40 -40 -68 -73zM217 408l2 5q9 23 15 35q14 26 21 38q26 43 56 73q32 35 70 55q37 19 76 19q41 0 72 -19q31 -20 47 -54q16 -33 16 -78q0 -47 -20 -144q-12 -60 -37 -114q-24 -53 -61 -104q-37 -49 -82 -77q-47 -29 -99 -29q-62 0 -95 41q-34 40 -34 115q0 29 4 53l2 14
q5 26 9 46q12 53 38 125zM384 818q-21 0 -35 -14t-14 -34q0 -21 15 -35q16 -14 34 -14q19 0 36 14q15 14 15 35t-15 34q-17 14 -36 14zM585 818q-20 0 -34 -14t-14 -34q0 -21 14 -35t34 -14q21 0 35 14t14 35q0 20 -14 34t-35 14z" />
    <glyph glyph-name="multiply" unicode="&#xd7;" horiz-adv-x="592" 
d="M250 309l-216 -155l28 -47l216 155l94 -154l66 47l-94 154l215 155l-29 47l-215 -155l-96 156l-65 -47z" />
    <glyph glyph-name="Oslash" unicode="&#xd8;" horiz-adv-x="723" 
d="M572 645q-44 19 -99 19q-62 0 -129 -29q-28 -13 -64 -35q-29 -19 -57 -44q-53 -47 -94 -111q-36 -59 -52 -111q-18 -55 -18 -115q0 -66 25 -115q25 -51 70 -83l-86 -126h45l73 107q49 -20 103 -20q78 0 152 41q75 42 131 106q25 29 52 71q25 41 40 76q33 80 33 154
q0 126 -92 197l65 96h-45zM547 607l-356 -531q-15 28 -20 52q-7 24 -7 60q0 38 12 90q8 34 29 95q5 14 17 42q1 3 3 8q8 18 23 48q38 76 96 119t119 43q49 0 84 -26zM570 574q22 -25 22 -95q0 -66 -23 -147q-22 -80 -62 -152t-97 -118q-58 -46 -123 -46q-43 4 -70 31z" />
    <glyph glyph-name="Ugrave" unicode="&#xd9;" horiz-adv-x="723" 
d="M686 566q10 35 26 52q13 14 54 19v15h-200v-15q37 0 53 -10t16 -39l-4 -37q-45 -200 -117 -403q-23 -59 -74 -91q-52 -34 -112 -34l-27 2q-49 6 -79 37q-15 15 -23 36t-8 45q6 57 21 114q3 10 5 20q8 30 11 41q9 32 24 81l37 126q18 65 41 89q23 23 70 23v15h-273v-15
q37 0 57 -9q19 -9 19 -36l-2 -26l-29 -99l-33 -111l-24 -100q-11 -51 -15 -100q0 -73 51 -120q51 -46 128 -54l35 -2q56 0 107 21q50 20 88 62t57 103l36 116l26 88l26 87zM350 811l146 -108h30l-106 137q-29 35 -49 35q-16 0 -25 -10q-10 -10 -12 -27q4 -19 16 -27z" />
    <glyph glyph-name="Uacute" unicode="&#xda;" horiz-adv-x="723" 
d="M686 566q10 35 26 52q13 14 54 19v15h-200v-15q37 0 53 -10t16 -39l-4 -37q-45 -200 -117 -403q-23 -59 -74 -91q-52 -34 -112 -34l-27 2q-49 6 -79 37q-15 15 -23 36t-8 45q6 57 21 114q3 10 5 20q8 30 11 41q9 32 24 81l37 126q18 65 41 89q23 23 70 23v15h-273v-15
q37 0 57 -9q19 -9 19 -36l-2 -26l-29 -99l-33 -111l-24 -100q-11 -51 -15 -100q0 -73 51 -120q51 -46 128 -54l35 -2q56 0 107 21q50 20 88 62t57 103l36 116l26 88l26 87zM582 813q15 11 15 25t-11 27q-10 12 -26 12q-7 0 -14 -4l-17 -15l-18 -16l-136 -135h35z" />
    <glyph glyph-name="Ucircumflex" unicode="&#xdb;" horiz-adv-x="723" 
d="M686 566q10 35 26 52q13 14 54 19v15h-200v-15q37 0 53 -10t16 -39l-4 -37q-45 -200 -117 -403q-23 -59 -74 -91q-52 -34 -112 -34l-27 2q-49 6 -79 37q-15 15 -23 36t-8 45q6 57 21 114q3 10 5 20q8 30 11 41q9 32 24 81l37 126q18 65 41 89q23 23 70 23v15h-273v-15
q37 0 57 -9q19 -9 19 -36l-2 -26l-29 -99l-33 -111l-24 -100q-11 -51 -15 -100q0 -73 51 -120q51 -46 128 -54l35 -2q56 0 107 21q50 20 88 62t57 103l36 116l26 88l26 87zM305 703h39l137 104l84 -104h35l-88 168h-49z" />
    <glyph glyph-name="Udieresis" unicode="&#xdc;" horiz-adv-x="723" 
d="M686 566q10 35 26 52q13 14 54 19v15h-200v-15q37 0 53 -10t16 -39l-4 -37q-45 -200 -117 -403q-23 -59 -74 -91q-52 -34 -112 -34l-27 2q-49 6 -79 37q-15 15 -23 36t-8 45q6 57 21 114q3 10 5 20q8 30 11 41q9 32 24 81l37 126q18 65 41 89q23 23 70 23v15h-273v-15
q37 0 57 -9q19 -9 19 -36l-2 -26l-29 -99l-33 -111l-24 -100q-11 -51 -15 -100q0 -73 51 -120q51 -46 128 -54l35 -2q56 0 107 21q50 20 88 62t57 103l36 116l26 88l26 87zM379 818q-21 0 -35 -14t-14 -34q0 -21 15 -35q16 -14 34 -14q19 0 36 14q15 14 15 35t-15 34
q-17 14 -36 14zM580 818q-20 0 -34 -14t-14 -34q0 -21 14 -35t34 -14q21 0 35 14t14 35q0 20 -14 34t-35 14z" />
    <glyph glyph-name="Yacute" unicode="&#xdd;" horiz-adv-x="557" 
d="M170 561l74 -258l-62 -217q-12 -39 -35 -54q-28 -16 -69 -16v-16h289v16q-33 0 -53 3q-19 3 -27 11q-9 9 -10 25q2 13 8 41q0 2 2 11q4 17 6 24l25 86l26 88l207 256q42 50 52 59q15 11 30 17v15h-190v-15q30 0 49 -6q20 -6 20 -27q0 -17 -18 -43q-25 -37 -80 -104
l-90 -109l-58 213l-8 37q0 24 14 29q17 6 58 10v15h-240v-15l44 -8q10 -4 17 -17l1 -3l6 -12zM518 813q15 11 15 25t-11 27q-10 12 -26 12q-7 0 -14 -4l-17 -15l-18 -16l-136 -135h35z" />
    <glyph glyph-name="Thorn" unicode="&#xde;" horiz-adv-x="611" 
d="M205 180l11 -2q31 -7 40 -8q20 -2 43 -2q30 0 55 4q9 2 18 3q21 3 32 5q50 11 87 39q36 27 57 67q20 40 20 75q0 83 -64 120t-152 37h-51l14 55q8 29 24 45q14 16 44 19v15h-238v-15q40 -5 56 -12t16 -35q0 -14 -4 -27l-43 -155l-38 -139l-42 -152q-13 -47 -21 -65
q-7 -15 -22 -23q-18 -9 -47 -13v-16h244v16l-28 4q-13 1 -22 5q-5 2 -14 11q-4 9 -6 23q3 25 12 58zM215 211l33 110l23 88l17 56q5 12 15 17q4 4 27 4q33 0 64 -6q34 -8 52 -35q19 -28 19 -88q-3 -37 -10 -59t-29 -46q-24 -24 -63 -37q-22 -6 -36 -7q-19 -3 -52 -3z" />
    <glyph glyph-name="germandbls" unicode="&#xdf;" 
d="M-88 -207q49 0 94 44q45 43 72 124q17 48 27 81q3 11 7 26t7 26l43 172l39 157q14 46 22 70l4 13q4 11 9 27q16 43 46 83q28 40 75 40q28 0 42 -23q13 -23 13 -61q0 -64 -28 -113q-29 -50 -89 -61l-15 -1l-17 -2l-1 -1q0 -1 -1 -2t-1 -7q0 -9 6 -11l31 -7q35 -3 53 -32
q17 -29 17 -79q0 -9 -2 -31q-2 -17 -6 -41q-15 -73 -41 -123q-27 -49 -64 -53q-23 0 -25 12l2 6l1 3q10 13 10 28q0 14 -11 28q-10 13 -28 13q-19 0 -31 -13t-12 -38q10 -61 96 -61q43 4 79 27q36 24 63 59q28 40 41 80q14 42 14 82q0 38 -12 69q-13 31 -40 52
q-28 21 -71 28q68 22 116 64q46 40 46 104q0 36 -16 65q-17 29 -48 47q-32 17 -69 17q-78 0 -128 -50q-48 -48 -73 -109q-10 -26 -22 -60l-3 -9q-10 -29 -21 -71q-23 -83 -38 -155l-36 -165q-15 -69 -34 -141q-30 -104 -92 -104q-14 0 -14 10q0 6 6 18l6 17q-5 35 -33 35
q-19 0 -32 -11q-13 -10 -13 -31q0 -33 26 -47t54 -14z" />
    <glyph glyph-name="agrave" unicode="&#xe0;" 
d="M145 365q-58 -52 -92 -125q-35 -75 -35 -152q0 -47 29 -73q29 -27 70 -27q60 0 106 41q45 41 93 112l2 -2q-10 -33 -15 -61q-6 -25 -6 -45q5 -45 39 -45q56 0 141 112l-14 9l-24 -24l-32 -32q-13 -12 -25 -12l-7 2l-6 12q4 8 4 19l23 95l32 125l37 142l-6 5l-64 -7
l-14 -47q-12 52 -78 52q-37 0 -79 -19q-43 -19 -79 -55zM160 37q-60 0 -60 74q0 36 11 74q11 37 31 76t39 66t39 47q44 44 94 44q49 -4 49 -70q0 -54 -33 -131q-40 -93 -85 -136q-47 -44 -85 -44zM219 600l146 -108h30l-106 137q-29 35 -49 35q-16 0 -25 -10
q-10 -10 -12 -27q4 -19 16 -27z" />
    <glyph glyph-name="aacute" unicode="&#xe1;" 
d="M145 365q-58 -52 -92 -125q-35 -75 -35 -152q0 -47 29 -73q29 -27 70 -27q60 0 106 41q45 41 93 112l2 -2q-10 -33 -15 -61q-6 -25 -6 -45q5 -45 39 -45q56 0 141 112l-14 9l-24 -24l-32 -32q-13 -12 -25 -12l-7 2l-6 12q4 8 4 19l23 95l32 125l37 142l-6 5l-64 -7
l-14 -47q-12 52 -78 52q-37 0 -79 -19q-43 -19 -79 -55zM160 37q-60 0 -60 74q0 36 11 74q11 37 31 76t39 66t39 47q44 44 94 44q49 -4 49 -70q0 -54 -33 -131q-40 -93 -85 -136q-47 -44 -85 -44zM471 600q15 11 15 25t-11 27q-10 12 -26 12q-7 0 -14 -4l-17 -15l-18 -16
l-136 -135h35z" />
    <glyph glyph-name="acircumflex" unicode="&#xe2;" 
d="M145 365q-58 -52 -92 -125q-35 -75 -35 -152q0 -47 29 -73q29 -27 70 -27q60 0 106 41q45 41 93 112l2 -2q-10 -33 -15 -61q-6 -25 -6 -45q5 -45 39 -45q56 0 141 112l-14 9l-24 -24l-32 -32q-13 -12 -25 -12l-7 2l-6 12q4 8 4 19l23 95l32 125l37 142l-6 5l-64 -7
l-14 -47q-12 52 -78 52q-37 0 -79 -19q-43 -19 -79 -55zM160 37q-60 0 -60 74q0 36 11 74q11 37 31 76t39 66t39 47q44 44 94 44q49 -4 49 -70q0 -54 -33 -131q-40 -93 -85 -136q-47 -44 -85 -44zM174 492h39l137 104l84 -104h35l-88 168h-49z" />
    <glyph glyph-name="atilde" unicode="&#xe3;" 
d="M145 365q-58 -52 -92 -125q-35 -75 -35 -152q0 -47 29 -73q29 -27 70 -27q60 0 106 41q45 41 93 112l2 -2q-10 -33 -15 -61q-6 -25 -6 -45q5 -45 39 -45q56 0 141 112l-14 9l-24 -24l-32 -32q-13 -12 -25 -12l-7 2l-6 12q4 8 4 19l23 95l32 125l37 142l-6 5l-64 -7
l-14 -47q-12 52 -78 52q-37 0 -79 -19q-43 -19 -79 -55zM160 37q-60 0 -60 74q0 36 11 74q11 37 31 76t39 66t39 47q44 44 94 44q49 -4 49 -70q0 -54 -33 -131q-40 -93 -85 -136q-47 -44 -85 -44zM184 518h29q12 45 51 45q14 0 36 -5l42 -15l41 -16q6 -2 15 -4l3 -1
q2 0 9 -1q3 0 8 -1q34 0 56 24q23 24 36 79h-28q-8 -22 -18 -32q-11 -11 -28 -13q-16 0 -30 6l-40 16q-3 1 -11 5q-13 5 -15 6q-7 3 -21 6q-19 6 -38 6q-74 0 -97 -105z" />
    <glyph glyph-name="adieresis" unicode="&#xe4;" 
d="M145 365q-58 -52 -92 -125q-35 -75 -35 -152q0 -47 29 -73q29 -27 70 -27q60 0 106 41q45 41 93 112l2 -2q-10 -33 -15 -61q-6 -25 -6 -45q5 -45 39 -45q56 0 141 112l-14 9l-24 -24l-32 -32q-13 -12 -25 -12l-7 2l-6 12q4 8 4 19l23 95l32 125l37 142l-6 5l-64 -7
l-14 -47q-12 52 -78 52q-37 0 -79 -19q-43 -19 -79 -55zM160 37q-60 0 -60 74q0 36 11 74q11 37 31 76t39 66t39 47q44 44 94 44q49 -4 49 -70q0 -54 -33 -131q-40 -93 -85 -136q-47 -44 -85 -44zM238 605q-21 0 -35 -14t-14 -34q0 -21 15 -35q16 -14 34 -14q19 0 36 14
q15 14 15 35t-15 34q-17 14 -36 14zM439 605q-20 0 -34 -14t-14 -34q0 -21 14 -35t34 -14q21 0 35 14t14 35q0 20 -14 34t-35 14z" />
    <glyph glyph-name="aring" unicode="&#xe5;" 
d="M145 365q-58 -52 -92 -125q-35 -75 -35 -152q0 -47 29 -73q29 -27 70 -27q60 0 106 41q45 41 93 112l2 -2q-10 -33 -15 -61q-6 -25 -6 -45q5 -45 39 -45q56 0 141 112l-14 9l-24 -24l-32 -32q-13 -12 -25 -12l-7 2l-6 12q4 8 4 19l23 95l32 125l37 142l-6 5l-64 -7
l-14 -47q-12 52 -78 52q-37 0 -79 -19q-43 -19 -79 -55zM160 37q-60 0 -60 74q0 36 11 74q11 37 31 76t39 66t39 47q44 44 94 44q49 -4 49 -70q0 -54 -33 -131q-40 -93 -85 -136q-47 -44 -85 -44zM338 691q-28 0 -50 -13t-36 -36t-14 -50q0 -29 13 -51q14 -23 37 -36
q23 -15 50 -15t51 15q23 14 36 36t13 51q0 28 -13 50q-13 23 -36 36q-22 13 -51 13zM338 656q28 0 47 -19t19 -47q0 -27 -19 -46t-47 -19q-26 0 -46 20t-20 45q0 28 19 47t47 19z" />
    <glyph glyph-name="ae" unicode="&#xe6;" horiz-adv-x="668" 
d="M369 395q-18 46 -68 46q-33 0 -68 -19q-35 -18 -74 -54q-23 -21 -35 -37q-16 -19 -30 -42q-28 -47 -51 -101q-22 -53 -22 -100q0 -21 7 -38q8 -22 17 -33q20 -29 60 -29q44 0 94 38q51 39 94 113h6q0 -155 96 -155q49 0 104 33q55 31 99 83l-10 13q-40 -40 -75 -59
q-37 -21 -68 -21q-70 0 -70 96q1 4 1 11q2 12 3 24q1 13 3 29q1 1 1 4q104 26 166 59q41 20 67 52q25 31 25 63q0 31 -22 50q-22 18 -56 18q-67 0 -122 -58l-2 2l20 56l-72 -1zM391 223l9 32q0 1 2 4q3 9 5 13q5 14 13 30q12 26 27 48q43 64 90 64q35 0 35 -37
q0 -44 -28 -75q-25 -31 -67 -51q-45 -21 -86 -28zM137 39q-32 8 -32 59q0 37 19 94q19 60 46 107q67 121 141 121q37 0 37 -61q0 -38 -20 -95q-10 -30 -22 -54q-9 -19 -29 -53q-31 -51 -69 -84q-37 -34 -71 -34z" />
    <glyph glyph-name="ccedilla" unicode="&#xe7;" horiz-adv-x="443" 
d="M133 -8l-57 -90l10 -7l31 7q23 0 35 -14q12 -15 12 -33q0 -37 -59 -37q-31 0 -62 14l-18 -29q47 -19 94 -19q45 0 79 17q32 18 38 54q0 39 -23 61q-24 21 -57 21l-25 -3l37 54q39 0 78 15q38 13 70 39q31 23 49 54l-15 9q-30 -38 -73 -60q-43 -24 -78 -24q-44 4 -64 40
q-12 23 -16 40q-6 20 -6 44t4 43q3 18 11 46q15 50 39 90q22 40 59 66q20 15 40 23q18 7 41 7q45 0 45 -22q0 -9 -7 -22t-9 -24q4 -7 4 -16q8 -23 37 -23q47 11 47 48q0 39 -34 58q-35 20 -74 20q-59 0 -108 -25q-50 -25 -91 -69q-41 -45 -63 -97q-12 -28 -18 -56
q-7 -25 -7 -53q0 -51 26 -92q26 -42 78 -55z" />
    <glyph glyph-name="egrave" unicode="&#xe8;" horiz-adv-x="443" 
d="M86 289q-28 -39 -42 -80q-15 -40 -15 -80q0 -32 10 -55q9 -26 28 -45q38 -39 97 -39q112 0 205 106l-12 11q-41 -35 -79 -55q-36 -19 -69 -19l-14 2q-36 5 -58 29t-22 63q4 34 10 57q21 0 46 5q26 6 52 13q52 16 94 42t68 63q25 35 25 80q-3 23 -26 38q-23 14 -60 14
q-56 0 -120 -37q-66 -38 -118 -113zM326 414q20 -11 20 -37q0 -30 -25 -64q-26 -35 -75 -65t-113 -41q11 41 42 92q14 23 35 49q17 20 33 36q34 34 66 34q10 0 17 -4zM190 600l146 -108h30l-106 137q-29 35 -49 35q-16 0 -25 -10q-10 -10 -12 -27q4 -19 16 -27z" />
    <glyph glyph-name="eacute" unicode="&#xe9;" horiz-adv-x="443" 
d="M86 289q-28 -39 -42 -80q-15 -40 -15 -80q0 -32 10 -55q9 -26 28 -45q38 -39 97 -39q112 0 205 106l-12 11q-41 -35 -79 -55q-36 -19 -69 -19l-14 2q-36 5 -58 29t-22 63q4 34 10 57q21 0 46 5q26 6 52 13q52 16 94 42t68 63q25 35 25 80q-3 23 -26 38q-23 14 -60 14
q-56 0 -120 -37q-66 -38 -118 -113zM326 414q20 -11 20 -37q0 -30 -25 -64q-26 -35 -75 -65t-113 -41q11 41 42 92q14 23 35 49q17 20 33 36q34 34 66 34q10 0 17 -4zM442 600q15 11 15 25t-11 27q-10 12 -26 12q-7 0 -14 -4l-17 -15l-18 -16l-136 -135h35z" />
    <glyph glyph-name="ecircumflex" unicode="&#xea;" horiz-adv-x="443" 
d="M86 289q-28 -39 -42 -80q-15 -40 -15 -80q0 -32 10 -55q9 -26 28 -45q38 -39 97 -39q112 0 205 106l-12 11q-41 -35 -79 -55q-36 -19 -69 -19l-14 2q-36 5 -58 29t-22 63q4 34 10 57q21 0 46 5q26 6 52 13q52 16 94 42t68 63q25 35 25 80q-3 23 -26 38q-23 14 -60 14
q-56 0 -120 -37q-66 -38 -118 -113zM326 414q20 -11 20 -37q0 -30 -25 -64q-26 -35 -75 -65t-113 -41q11 41 42 92q14 23 35 49q17 20 33 36q34 34 66 34q10 0 17 -4zM145 492h39l137 104l84 -104h35l-88 168h-49z" />
    <glyph glyph-name="edieresis" unicode="&#xeb;" horiz-adv-x="443" 
d="M86 289q-28 -39 -42 -80q-15 -40 -15 -80q0 -32 10 -55q9 -26 28 -45q38 -39 97 -39q112 0 205 106l-12 11q-41 -35 -79 -55q-36 -19 -69 -19l-14 2q-36 5 -58 29t-22 63q4 34 10 57q21 0 46 5q26 6 52 13q52 16 94 42t68 63q25 35 25 80q-3 23 -26 38q-23 14 -60 14
q-56 0 -120 -37q-66 -38 -118 -113zM326 414q20 -11 20 -37q0 -30 -25 -64q-26 -35 -75 -65t-113 -41q11 41 42 92q14 23 35 49q17 20 33 36q34 34 66 34q10 0 17 -4zM201 605q-21 0 -35 -14t-14 -34q0 -21 15 -35q16 -14 34 -14q19 0 36 14q15 14 15 35t-15 34
q-17 14 -36 14zM402 605q-20 0 -34 -14t-14 -34q0 -21 14 -35t34 -14q21 0 35 14t14 35q0 20 -14 34t-35 14z" />
    <glyph glyph-name="igrave" unicode="&#xec;" horiz-adv-x="277" 
d="M125 359l-59 -218l-7 -32l-8 -36l-4 -30q0 -55 43 -55q75 0 144 114l-13 11q-16 -24 -42 -50q-26 -28 -42 -28q-11 3 -14 18l10 37l10 35l84 313l-2 3l-60 -11l-52 -8l-49 -6v-18h20q23 0 32 -4q11 -5 11 -19l-1 -8zM108 600l146 -108h30l-106 137q-29 35 -49 35
q-16 0 -25 -10q-11 -10 -12 -27q4 -19 16 -27z" />
    <glyph glyph-name="iacute" unicode="&#xed;" horiz-adv-x="277" 
d="M125 359l-59 -218l-7 -32l-8 -36l-4 -30q0 -55 43 -55q75 0 144 114l-13 11q-16 -24 -42 -50q-26 -28 -42 -28q-11 3 -14 18l10 37l10 35l84 313l-2 3l-60 -11l-52 -8l-49 -6v-18h20q23 0 32 -4q11 -5 11 -19l-1 -8zM340 600q15 11 15 25t-11 27q-10 12 -26 12
q-7 0 -14 -4l-17 -15l-18 -16l-136 -135h35z" />
    <glyph glyph-name="icircumflex" unicode="&#xee;" horiz-adv-x="277" 
d="M125 359l-59 -218l-7 -32l-8 -36l-4 -30q0 -55 43 -55q75 0 144 114l-13 11q-16 -24 -42 -50q-26 -28 -42 -28q-11 3 -14 18l10 37l10 35l84 313l-2 3l-60 -11l-52 -8l-49 -6v-18h20q23 0 32 -4q11 -5 11 -19l-1 -8zM33 492h39l137 104l84 -104h35l-88 168h-49z" />
    <glyph glyph-name="idieresis" unicode="&#xef;" horiz-adv-x="277" 
d="M125 359l-59 -218l-7 -32l-8 -36l-4 -30q0 -55 43 -55q75 0 144 114l-13 11q-16 -24 -42 -50q-26 -28 -42 -28q-11 3 -14 18l10 37l10 35l84 313l-2 3l-60 -11l-52 -8l-49 -6v-18h20q23 0 32 -4q11 -5 11 -19l-1 -8zM97 605q-21 0 -35 -14t-14 -34q0 -21 15 -35
q16 -14 34 -14q19 0 36 14q15 14 15 35t-15 34q-17 14 -36 14zM298 605q-20 0 -34 -14t-14 -34q0 -21 14 -35t34 -14q21 0 35 14t14 35q0 20 -14 34t-35 14z" />
    <glyph glyph-name="eth" unicode="&#xf0;" 
d="M96 316q-37 -47 -53 -88q-18 -43 -18 -91q0 -52 27 -93q24 -39 63 -48q30 -6 57 -6q86 0 154 56q67 55 103 143q36 89 36 172q0 137 -84 231l101 45l-33 27l-97 -43q-52 47 -123 63l-36 -18q69 -31 104 -66l-123 -55l33 -29l117 50q19 -19 45 -74q14 -30 21 -54
q5 -23 5 -39v-6q-25 46 -96 46q-27 0 -57 -11q-28 -10 -56 -29q-53 -39 -90 -83zM162 14q-55 16 -55 90q0 37 14 81l33 88q27 61 71 105q44 42 87 42l18 -2q24 -4 39 -30q14 -26 14 -70q0 -45 -20 -113q-23 -70 -53 -116q-30 -44 -62 -62q-31 -19 -60 -19z" />
    <glyph glyph-name="ntilde" unicode="&#xf1;" 
d="M109 354l-95 -354h74l37 117l22 56q10 22 27 52q47 78 91 124q41 42 73 42q21 0 21 -34l-5 -43l-57 -218q-12 -45 -12 -61q5 -45 45 -45q30 0 54 15q24 16 41 36l2 2q17 19 27 33q5 6 11 14q5 8 10 14l-16 13l-49 -60q-18 -20 -33 -20q-13 0 -16 16q4 40 14 70l28 87
q17 50 27 91q9 38 9 74q0 57 -46 64l-17 2q-43 0 -99 -50q-57 -51 -127 -164l-2 2l65 209l-4 3l-162 -31v-15h22h1q19 -2 27 -5q14 -5 14 -23l-1 -7zM149 518h29q12 45 51 45q14 0 36 -5l42 -15l41 -16q6 -2 15 -4l3 -1q2 0 9 -1q3 0 8 -1q34 0 56 24q23 24 36 79h-28
q-8 -22 -18 -32q-11 -11 -28 -13q-16 0 -30 6l-40 16q-3 1 -11 5q-13 5 -15 6q-7 3 -21 6q-19 6 -38 6q-74 0 -97 -105z" />
    <glyph glyph-name="ograve" unicode="&#xf2;" 
d="M96 316q-36 -50 -53 -94q-18 -43 -18 -89q0 -24 8 -48q7 -23 20 -42q26 -37 62 -47q45 -8 61 -8q76 0 143 46q67 45 108 119q40 73 40 146q0 40 -19 72q-19 31 -55 52q-34 18 -73 18q-48 0 -92 -21t-79 -50q-37 -29 -53 -54zM162 14q-55 16 -55 90q0 37 14 81l33 88
q27 61 71 105q44 42 87 42l18 -2q24 -4 39 -30q14 -26 14 -70q0 -45 -20 -113q-23 -70 -53 -116q-30 -44 -62 -62q-31 -19 -60 -19zM219 600l146 -108h30l-106 137q-29 35 -49 35q-16 0 -25 -10q-10 -10 -12 -27q4 -19 16 -27z" />
    <glyph glyph-name="oacute" unicode="&#xf3;" 
d="M96 316q-36 -50 -53 -94q-18 -43 -18 -89q0 -24 8 -48q7 -23 20 -42q26 -37 62 -47q45 -8 61 -8q76 0 143 46q67 45 108 119q40 73 40 146q0 40 -19 72q-19 31 -55 52q-34 18 -73 18q-48 0 -92 -21t-79 -50q-37 -29 -53 -54zM162 14q-55 16 -55 90q0 37 14 81l33 88
q27 61 71 105q44 42 87 42l18 -2q24 -4 39 -30q14 -26 14 -70q0 -45 -20 -113q-23 -70 -53 -116q-30 -44 -62 -62q-31 -19 -60 -19zM471 600q15 11 15 25t-11 27q-10 12 -26 12q-7 0 -14 -4l-17 -15l-18 -16l-136 -135h35z" />
    <glyph glyph-name="ocircumflex" unicode="&#xf4;" 
d="M96 316q-36 -50 -53 -94q-18 -43 -18 -89q0 -24 8 -48q7 -23 20 -42q26 -37 62 -47q45 -8 61 -8q76 0 143 46q67 45 108 119q40 73 40 146q0 40 -19 72q-19 31 -55 52q-34 18 -73 18q-48 0 -92 -21t-79 -50q-37 -29 -53 -54zM162 14q-55 16 -55 90q0 37 14 81l33 88
q27 61 71 105q44 42 87 42l18 -2q24 -4 39 -30q14 -26 14 -70q0 -45 -20 -113q-23 -70 -53 -116q-30 -44 -62 -62q-31 -19 -60 -19zM164 492h39l137 104l84 -104h35l-88 168h-49z" />
    <glyph glyph-name="otilde" unicode="&#xf5;" 
d="M96 316q-36 -50 -53 -94q-18 -43 -18 -89q0 -24 8 -48q7 -23 20 -42q26 -37 62 -47q45 -8 61 -8q76 0 143 46q67 45 108 119q40 73 40 146q0 40 -19 72q-19 31 -55 52q-34 18 -73 18q-48 0 -92 -21t-79 -50q-37 -29 -53 -54zM162 14q-55 16 -55 90q0 37 14 81l33 88
q27 61 71 105q44 42 87 42l18 -2q24 -4 39 -30q14 -26 14 -70q0 -45 -20 -113q-23 -70 -53 -116q-30 -44 -62 -62q-31 -19 -60 -19zM168 518h29q12 45 51 45q14 0 36 -5l42 -15l41 -16q6 -2 15 -4l3 -1q2 0 9 -1q3 0 8 -1q34 0 56 24q23 24 36 79h-28q-8 -22 -18 -32
q-11 -11 -28 -13q-16 0 -30 6l-40 16q-3 1 -11 5q-13 5 -15 6q-7 3 -21 6q-19 6 -38 6q-74 0 -97 -105z" />
    <glyph glyph-name="odieresis" unicode="&#xf6;" 
d="M96 316q-36 -50 -53 -94q-18 -43 -18 -89q0 -24 8 -48q7 -23 20 -42q26 -37 62 -47q45 -8 61 -8q76 0 143 46q67 45 108 119q40 73 40 146q0 40 -19 72q-19 31 -55 52q-34 18 -73 18q-48 0 -92 -21t-79 -50q-37 -29 -53 -54zM162 14q-55 16 -55 90q0 37 14 81l33 88
q27 61 71 105q44 42 87 42l18 -2q24 -4 39 -30q14 -26 14 -70q0 -45 -20 -113q-23 -70 -53 -116q-30 -44 -62 -62q-31 -19 -60 -19zM240 605q-21 0 -35 -14t-14 -34q0 -21 15 -35q16 -14 34 -14q19 0 36 14q15 14 15 35t-15 34q-17 14 -36 14zM441 605q-20 0 -34 -14
t-14 -34q0 -21 14 -35t34 -14q21 0 35 14t14 35q0 20 -14 34t-35 14z" />
    <glyph glyph-name="divide" unicode="&#xf7;" horiz-adv-x="514" 
d="M66 336l-25 -63h398l24 63h-397zM230 192q-23 0 -40 -17t-17 -40q0 -21 17 -38t40 -17t39 16t16 39q0 25 -16 41t-39 16zM276 526q-23 0 -40 -17t-17 -40q0 -21 17 -38t40 -17t39 16t16 39q0 25 -16 41t-39 16z" />
    <glyph glyph-name="oslash" unicode="&#xf8;" 
d="M96 314q-69 -94 -69 -179q0 -57 26 -92q26 -36 70 -47l-64 -131h35l62 125h24q52 0 105 26q55 27 95 71q42 47 64 99q23 54 23 107q0 49 -25 89t-73 54l59 119h-33l-57 -116l-20 1q-66 0 -128 -41q-29 -19 -54 -41q-19 -18 -40 -44zM166 14l191 392q26 -24 26 -86
q0 -47 -20 -115q-25 -76 -67 -134q-22 -29 -48 -46q-28 -17 -57 -17zM139 27q-14 15 -22 34q-8 21 -8 43q1 7 8 37q1 7 3 15q8 39 9 45q11 43 25 72q72 145 162 145h12z" />
    <glyph glyph-name="ugrave" unicode="&#xf9;" 
d="M111 338l-58 -229q-2 -10 -5 -22q-1 -5 -2 -8q-5 -27 -5 -36q0 -46 39 -53q71 0 127 59q25 25 65 86q22 34 33 52q9 15 21 36l2 4h4l-15 -58l-14 -67q-6 -29 -16 -59q6 -53 55 -53q25 0 47 15q20 13 37 36l49 66l-14 10l-18 -23l-23 -25l-23 -21q-12 -9 -22 -9
q-7 1 -10 14l3 12l3 13l94 354h-74q-23 -71 -51 -131q-34 -73 -62 -117q-33 -53 -73 -98q-8 -10 -32 -28q-19 -16 -36 -17l-14 6l-6 14l10 48l84 330l-4 2q-94 -19 -150 -27v-14q38 0 49 -4q11 -5 11 -23l-2 -15zM219 600l146 -108h30l-106 137q-29 35 -49 35q-16 0 -25 -10
q-10 -10 -12 -27q4 -19 16 -27z" />
    <glyph glyph-name="uacute" unicode="&#xfa;" 
d="M111 338l-58 -229q-2 -10 -5 -22q-1 -5 -2 -8q-5 -27 -5 -36q0 -46 39 -53q71 0 127 59q25 25 65 86q22 34 33 52q9 15 21 36l2 4h4l-15 -58l-14 -67q-6 -29 -16 -59q6 -53 55 -53q25 0 47 15q20 13 37 36l49 66l-14 10l-18 -23l-23 -25l-23 -21q-12 -9 -22 -9
q-7 1 -10 14l3 12l3 13l94 354h-74q-23 -71 -51 -131q-34 -73 -62 -117q-33 -53 -73 -98q-8 -10 -32 -28q-19 -16 -36 -17l-14 6l-6 14l10 48l84 330l-4 2q-94 -19 -150 -27v-14q38 0 49 -4q11 -5 11 -23l-2 -15zM461 600q15 11 15 25t-11 27q-10 12 -26 12q-7 0 -14 -4
l-17 -15l-18 -16l-136 -135h35z" />
    <glyph glyph-name="ucircumflex" unicode="&#xfb;" 
d="M111 338l-58 -229q-2 -10 -5 -22q-1 -5 -2 -8q-5 -27 -5 -36q0 -46 39 -53q71 0 127 59q25 25 65 86q22 34 33 52q9 15 21 36l2 4h4l-15 -58l-14 -67q-6 -29 -16 -59q6 -53 55 -53q25 0 47 15q20 13 37 36l49 66l-14 10l-18 -23l-23 -25l-23 -21q-12 -9 -22 -9
q-7 1 -10 14l3 12l3 13l94 354h-74q-23 -71 -51 -131q-34 -73 -62 -117q-33 -53 -73 -98q-8 -10 -32 -28q-19 -16 -36 -17l-14 6l-6 14l10 48l84 330l-4 2q-94 -19 -150 -27v-14q38 0 49 -4q11 -5 11 -23l-2 -15zM164 492h39l137 104l84 -104h35l-88 168h-49z" />
    <glyph glyph-name="udieresis" unicode="&#xfc;" 
d="M111 338l-58 -229q-2 -10 -5 -22q-1 -5 -2 -8q-5 -27 -5 -36q0 -46 39 -53q71 0 127 59q25 25 65 86q22 34 33 52q9 15 21 36l2 4h4l-15 -58l-14 -67q-6 -29 -16 -59q6 -53 55 -53q25 0 47 15q20 13 37 36l49 66l-14 10l-18 -23l-23 -25l-23 -21q-12 -9 -22 -9
q-7 1 -10 14l3 12l3 13l94 354h-74q-23 -71 -51 -131q-34 -73 -62 -117q-33 -53 -73 -98q-8 -10 -32 -28q-19 -16 -36 -17l-14 6l-6 14l10 48l84 330l-4 2q-94 -19 -150 -27v-14q38 0 49 -4q11 -5 11 -23l-2 -15zM228 605q-21 0 -35 -14t-14 -34q0 -21 15 -35q16 -14 34 -14
q19 0 36 14q15 14 15 35t-15 34q-17 14 -36 14zM429 605q-20 0 -34 -14t-14 -34q0 -21 14 -35t34 -14q21 0 35 14t14 35q0 20 -14 34t-35 14z" />
    <glyph glyph-name="yacute" unicode="&#xfd;" horiz-adv-x="443" 
d="M127 330q10 -28 31 -108q14 -50 17 -65q1 -4 6 -27q6 -27 11 -48q11 -58 11 -86q-2 -7 -6 -17q-5 -9 -17 -26q-22 -33 -48 -62q-27 -31 -44 -39l-5 -1l-7 -1q-7 0 -24 11q-16 10 -23 12l-17 4q-16 -2 -27 -12q-10 -10 -10 -27q0 -19 14 -31t32 -12q42 0 106 60l7 7
q6 7 10 11q7 7 21 25l52 67q31 40 56 80q40 61 70 117q34 66 53 112q22 51 28 87v20q0 58 -51 58q-16 0 -29 -10q-12 -10 -14 -27q1 -10 8 -18q5 -10 21 -20l22 -17q6 -6 6 -17q-10 -78 -123 -258q-14 90 -35 173q-19 74 -43 142q-21 54 -28 54l-69 -11l-75 -14v-18l37 4
q32 0 47 -17t29 -55zM444 600q15 11 15 25t-11 27q-10 12 -26 12q-7 0 -14 -4l-17 -15l-18 -16l-136 -135h35z" />
    <glyph glyph-name="thorn" unicode="&#xfe;" 
d="M188 605l-151 -556l-20 -80l-21 -84l-7 -27q-3 -16 -10 -24q-7 -10 -20 -16q-13 -7 -35 -7v-16h205v14q-35 0 -49 8q-15 8 -16 25l2 8l18 80l18 76q25 -16 66 -16q58 0 111 28t97 75q43 47 68 107q25 59 25 122q0 119 -131 119q-19 0 -49 -14q-28 -15 -53 -38
q-25 -22 -48 -57l93 346l-6 6q-50 -12 -152 -24v-17q49 0 59 -10q6 -3 6 -20v-8zM121 78q29 119 63 207q7 23 28 51q20 26 46 43t53 17q32 0 49 -23q17 -25 17 -60q0 -46 -14 -100q-17 -52 -43 -94q-27 -43 -65 -72q-40 -30 -89 -41q-51 0 -51 43z" />
    <glyph glyph-name="ydieresis" unicode="&#xff;" horiz-adv-x="443" 
d="M127 330q10 -28 31 -108q14 -50 17 -65q1 -4 6 -27q6 -27 11 -48q11 -58 11 -86q-2 -7 -6 -17q-5 -9 -17 -26q-22 -33 -48 -62q-27 -31 -44 -39l-5 -1l-7 -1q-7 0 -24 11q-16 10 -23 12l-17 4q-16 -2 -27 -12q-10 -10 -10 -27q0 -19 14 -31t32 -12q42 0 106 60l7 7
q6 7 10 11q7 7 21 25l52 67q31 40 56 80q40 61 70 117q34 66 53 112q22 51 28 87v20q0 58 -51 58q-16 0 -29 -10q-12 -10 -14 -27q1 -10 8 -18q5 -10 21 -20l22 -17q6 -6 6 -17q-10 -78 -123 -258q-14 90 -35 173q-19 74 -43 142q-21 54 -28 54l-69 -11l-75 -14v-18l37 4
q32 0 47 -17t29 -55zM191 605q-21 0 -35 -14t-14 -34q0 -21 15 -35q16 -14 34 -14q19 0 36 14q15 14 15 35t-15 34q-17 14 -36 14zM392 605q-20 0 -34 -14t-14 -34q0 -21 14 -35t34 -14q21 0 35 14t14 35q0 20 -14 34t-35 14z" />
    </font>
</defs>
</svg>
